<svg preserveAspectRatio="none" width="100%" height="100%" overflow="visible" style="display: block;" viewBox="0 0 149 169.005" fill="none" xmlns="http://www.w3.org/2000/svg">
<g id="Group">
<path id="Vector" d="M62.1533 163.22L66.0061 163.717L66.9669 151.929L63.0886 153.429L62.1533 163.22Z" fill="var(--fill-0, #D6D6E3)"/>
<path id="Vector_2" d="M66.1074 162.521C66.1074 162.521 66.0836 161.576 66.6569 161.75C67.2302 161.925 68.7743 163.022 68.7743 163.022C68.7743 163.022 74.3386 163.781 73.6579 164.981C72.9772 166.18 70.2343 166.438 69.4743 166.363C68.7143 166.287 64.7696 165.865 64.7696 165.865C64.7696 165.865 61.6967 166.179 61.7724 165.42C61.8481 164.661 61.8883 162.484 61.8883 162.484C61.8883 162.484 65.12 164.721 66.1074 162.521Z" fill="var(--fill-0, #090814)"/>
<path id="Vector_3" d="M101.006 88.932V84.3194C101.006 82.6801 101.658 81.1079 102.82 79.9488C103.982 78.7896 105.557 78.1384 107.2 78.1384C108.842 78.1384 110.418 78.7896 111.579 79.9488C112.741 81.1079 113.393 82.6801 113.393 84.3194V88.932C113.393 89.1521 113.305 89.3631 113.15 89.5187C112.994 89.6744 112.782 89.7619 112.562 89.7622H101.838C101.618 89.7619 101.406 89.6744 101.25 89.5187C101.095 89.3631 101.007 89.1521 101.007 88.932H101.006Z" fill="var(--fill-0, #090814)"/>
<path id="Vector_4" d="M108.867 73.6041L43.5224 111.717C43.2937 111.85 43.0214 111.887 42.7653 111.82C42.5092 111.753 42.2902 111.587 42.1564 111.359L0.136107 39.6117C0.00273103 39.3835 -0.0344623 39.1117 0.0326882 38.8562C0.0998387 38.6006 0.265848 38.3821 0.494285 38.2485L65.8386 0.135825C66.0673 0.00272536 66.3396 -0.0343908 66.5957 0.0326204C66.8518 0.0996317 67.0708 0.265296 67.2047 0.49326L109.226 72.2414C109.359 72.4696 109.396 72.7412 109.329 72.9968C109.262 73.2523 109.096 73.4708 108.867 73.6044V73.6041Z" fill="var(--fill-0, white)"/>
<path id="Vector_5" d="M58.7614 84.5393C58.7614 84.5393 61.9308 83.1053 63.086 84.9499C64.2412 86.7946 62.1211 91.0532 62.1211 91.0532L56.4519 89.9105L58.7614 84.5393Z" fill="var(--fill-0, #ED9DA0)"/>
<path id="Vector_6" d="M108.867 73.6041L43.5224 111.717C43.2937 111.85 43.0214 111.887 42.7653 111.82C42.5092 111.753 42.2902 111.587 42.1564 111.359L0.136107 39.6117C0.00273103 39.3835 -0.0344623 39.1117 0.0326882 38.8562C0.0998387 38.6006 0.265848 38.3821 0.494285 38.2485L65.8386 0.135825C66.0673 0.00272536 66.3396 -0.0343908 66.5957 0.0326204C66.8518 0.0996317 67.0708 0.265296 67.2047 0.49326L109.226 72.2414C109.359 72.4696 109.396 72.7412 109.329 72.9968C109.262 73.2523 109.096 73.4708 108.867 73.6044V73.6041ZM0.694332 38.5926C0.557257 38.6728 0.457643 38.8039 0.41736 38.9573C0.377076 39.1106 0.399414 39.2736 0.479468 39.4106L42.4997 111.158C42.58 111.295 42.7114 111.395 42.8651 111.435C43.0188 111.475 43.1822 111.453 43.3194 111.373L108.666 73.26C108.803 73.1799 108.903 73.0487 108.943 72.8954C108.983 72.742 108.961 72.579 108.881 72.4421L66.8604 0.694369C66.7801 0.557578 66.6487 0.458172 66.4951 0.417972C66.3414 0.377772 66.178 0.400062 66.0408 0.47995L0.694332 38.5926Z" fill="var(--fill-0, #3F3D56)"/>
<path id="Vector_7" d="M43.545 45.7377L27.3381 55.1905C27.1094 55.3236 26.8371 55.3608 26.581 55.2937C26.3249 55.2267 26.1059 55.0611 25.9721 54.8331L16.4996 38.6598C16.3663 38.4316 16.3291 38.1598 16.3962 37.9043C16.4634 37.6487 16.6294 37.4302 16.8578 37.2966L33.0647 27.8438C33.2934 27.7107 33.5657 27.6736 33.8218 27.7406C34.0779 27.8076 34.2969 27.9733 34.4307 28.2012L43.9032 44.3745C44.0366 44.6028 44.0738 44.8745 44.0066 45.1301C43.9395 45.3856 43.7735 45.6042 43.545 45.7377ZM17.06 37.6397C16.9229 37.7198 16.8233 37.8509 16.783 38.0043C16.7427 38.1577 16.7651 38.3207 16.8451 38.4576L26.3176 54.6309C26.3979 54.7677 26.5292 54.867 26.6829 54.9072C26.8365 54.9474 26.9998 54.9252 27.137 54.8453L43.3439 45.3925C43.481 45.3124 43.5806 45.1813 43.6209 45.0279C43.6612 44.8746 43.6388 44.7115 43.5588 44.5746L34.0863 28.4013C34.006 28.2646 33.8747 28.1652 33.721 28.125C33.5674 28.0848 33.4041 28.107 33.2669 28.1869L17.06 37.6397Z" fill="var(--fill-0, #F2F2F2)"/>
<path id="Vector_8" d="M40.0488 50.4315L23.8419 59.8843C23.636 60.004 23.391 60.0374 23.1606 59.9771C22.9301 59.9168 22.733 59.7677 22.6126 59.5626L13.1401 43.3893C13.0202 43.1839 12.9867 42.9394 13.0472 42.7094C13.1076 42.4794 13.257 42.2827 13.4625 42.1625L29.6694 32.7097C29.8753 32.59 30.1203 32.5566 30.3507 32.617C30.5812 32.6773 30.7783 32.8263 30.8987 33.0315L40.3712 49.2048C40.4911 49.4102 40.5246 49.6547 40.4641 49.8847C40.4037 50.1146 40.2543 50.3113 40.0488 50.4315Z" fill="var(--fill-0, #FD527B)"/>
<path id="Vector_9" d="M79.167 38.2348L28.477 67.799C28.3751 67.8584 28.2625 67.8972 28.1456 67.9132C28.0287 67.9292 27.9097 67.9221 27.7956 67.8922C27.6814 67.8623 27.5743 67.8103 27.4803 67.7391C27.3863 67.6679 27.3073 67.5789 27.2477 67.4773C27.1882 67.3756 27.1493 67.2632 27.1333 67.1465C27.1172 67.0298 27.1244 66.9112 27.1543 66.7973C27.1843 66.6833 27.2364 66.5764 27.3077 66.4826C27.3791 66.3888 27.4682 66.3099 27.5701 66.2505L78.2601 36.6855C78.4659 36.5654 78.711 36.5319 78.9415 36.5923C79.172 36.6526 79.3691 36.8018 79.4894 37.0072C79.6096 37.2125 79.6432 37.4571 79.5828 37.6872C79.5223 37.9172 79.3727 38.1139 79.167 38.2339V38.2348Z" fill="var(--fill-0, #E6E6E6)"/>
<path id="Vector_10" d="M70.0495 50.7076L31.6011 73.1326C31.3953 73.2526 31.1502 73.2862 30.9197 73.2258C30.6892 73.1655 30.4921 73.0162 30.3718 72.8109C30.2516 72.6056 30.218 72.361 30.2784 72.1309C30.3389 71.9008 30.4885 71.7042 30.6942 71.5842L69.1427 49.1589C69.2445 49.0995 69.3572 49.0607 69.4741 49.0447C69.591 49.0287 69.7099 49.0358 69.8241 49.0657C69.9382 49.0956 70.0454 49.1476 70.1394 49.2188C70.2334 49.29 70.3124 49.379 70.3719 49.4807C70.4315 49.5823 70.4704 49.6947 70.4864 49.8114C70.5024 49.9281 70.4953 50.0467 70.4653 50.1607C70.4354 50.2746 70.3833 50.3815 70.3119 50.4753C70.2406 50.5691 70.1514 50.648 70.0495 50.7074V50.7076Z" fill="var(--fill-0, #E6E6E6)"/>
<path id="Vector_11" d="M67.5069 18.7201L45.0929 31.7931C44.991 31.8525 44.8784 31.8914 44.7615 31.9073C44.6446 31.9233 44.5256 31.9162 44.4115 31.8863C44.2973 31.8564 44.1902 31.8044 44.0962 31.7332C44.0022 31.662 43.9232 31.5731 43.8636 31.4714C43.8041 31.3697 43.7652 31.2573 43.7491 31.1406C43.7331 31.024 43.7403 30.9053 43.7702 30.7914C43.8002 30.6775 43.8523 30.5706 43.9236 30.4767C43.995 30.3829 44.0841 30.3041 44.186 30.2446L66.5998 17.1717C66.8056 17.0516 67.0507 17.0181 67.2813 17.0785C67.5118 17.1388 67.7089 17.288 67.8291 17.4934C67.9494 17.6987 67.983 17.9433 67.9225 18.1734C67.8621 18.4034 67.7127 18.6001 67.5069 18.7201Z" fill="var(--fill-0, #E6E6E6)"/>
<path id="Vector_12" d="M65.0372 27.3163L48.217 37.1268C48.1151 37.1862 48.0025 37.225 47.8856 37.241C47.7687 37.257 47.6497 37.2498 47.5356 37.2199C47.305 37.1596 47.108 37.0104 46.9877 36.805C46.8675 36.5997 46.8339 36.3551 46.8943 36.125C46.9548 35.895 47.1044 35.6983 47.3101 35.5783L64.1303 25.7678C64.2322 25.7084 64.3448 25.6696 64.4617 25.6536C64.5786 25.6376 64.6976 25.6448 64.8117 25.6746C64.9258 25.7045 65.033 25.7565 65.127 25.8277C65.221 25.8989 65.3 25.9879 65.3596 26.0896C65.4191 26.1912 65.458 26.3036 65.474 26.4203C65.4901 26.537 65.4829 26.6557 65.453 26.7696C65.423 26.8835 65.3709 26.9904 65.2996 27.0842C65.2282 27.178 65.139 27.2569 65.0372 27.3163Z" fill="var(--fill-0, #E6E6E6)"/>
<path id="Vector_13" d="M85.415 48.9014L34.725 78.4665C34.6231 78.5259 34.5105 78.5647 34.3936 78.5807C34.2767 78.5967 34.1577 78.5895 34.0436 78.5597C33.9294 78.5298 33.8223 78.4778 33.7283 78.4066C33.6343 78.3354 33.5553 78.2464 33.4957 78.1447C33.4362 78.0431 33.3973 77.9307 33.3813 77.814C33.3652 77.6973 33.3724 77.5787 33.4023 77.4647C33.4323 77.3508 33.4844 77.2439 33.5557 77.1501C33.6271 77.0563 33.7162 76.9774 33.8181 76.918L84.5079 47.3529C84.6098 47.2935 84.7224 47.2547 84.8393 47.2387C84.9562 47.2227 85.0751 47.2299 85.1893 47.2597C85.3034 47.2896 85.4106 47.3416 85.5046 47.4128C85.5986 47.484 85.6776 47.573 85.7372 47.6747C85.7967 47.7763 85.8356 47.8887 85.8516 48.0054C85.8676 48.1221 85.8605 48.2408 85.8305 48.3547C85.8006 48.4686 85.7485 48.5755 85.6771 48.6693C85.6058 48.7631 85.5166 48.842 85.4148 48.9014H85.415Z" fill="var(--fill-0, #E6E6E6)"/>
<path id="Vector_14" d="M76.2973 61.3751L37.8489 83.7995C37.747 83.8589 37.6344 83.8977 37.5175 83.9137C37.4006 83.9297 37.2816 83.9226 37.1675 83.8927C37.0533 83.8628 36.9462 83.8108 36.8522 83.7396C36.7582 83.6684 36.6792 83.5794 36.6196 83.4778C36.5601 83.3761 36.5212 83.2637 36.5052 83.147C36.4891 83.0304 36.4963 82.9117 36.5262 82.7978C36.5562 82.6838 36.6083 82.5769 36.6796 82.4831C36.751 82.3893 36.8401 82.3104 36.942 82.251L75.3905 59.8266C75.5962 59.7066 75.8413 59.6731 76.0719 59.7334C76.3024 59.7938 76.4995 59.943 76.6197 60.1484C76.74 60.3537 76.7736 60.5983 76.7131 60.8284C76.6527 61.0584 76.5031 61.2551 76.2973 61.3751Z" fill="var(--fill-0, #E6E6E6)"/>
<path id="Vector_15" d="M91.663 59.5691L40.9728 89.1342C40.767 89.2542 40.5219 89.2877 40.2914 89.2274C40.0608 89.167 39.8638 89.0178 39.7435 88.8124C39.6233 88.6071 39.5897 88.3625 39.6501 88.1324C39.7106 87.9024 39.8601 87.7057 40.0659 87.5857L90.7557 58.0206C90.9614 57.9006 91.2066 57.8671 91.4371 57.9275C91.6676 57.9878 91.8647 58.137 91.985 58.3424C92.1052 58.5477 92.1388 58.7923 92.0783 59.0224C92.0179 59.2524 91.8683 59.4491 91.6625 59.5691H91.663Z" fill="var(--fill-0, #E6E6E6)"/>
<path id="Vector_16" d="M94.7864 64.9027L44.0965 94.4678C43.8907 94.5878 43.6456 94.6213 43.4151 94.561C43.1845 94.5007 42.9874 94.3514 42.8672 94.1461C42.7469 93.9407 42.7133 93.6961 42.7738 93.4661C42.8343 93.236 42.9838 93.0394 43.1896 92.9194L93.8796 63.3543C94.0853 63.2343 94.3304 63.2007 94.561 63.2611C94.7915 63.3214 94.9886 63.4707 95.1088 63.676C95.2291 63.8814 95.2627 64.126 95.2022 64.356C95.1418 64.5861 94.9922 64.7827 94.7864 64.9027Z" fill="var(--fill-0, #E6E6E6)"/>
<path id="Vector_17" d="M78.3943 85.6665C79.0986 84.8389 79.7326 83.9542 80.2896 83.0214C80.7892 82.18 81.2792 81.2805 81.3893 80.2936C81.4456 79.8734 81.4017 79.4458 81.2613 79.0457C81.1208 78.6456 80.8877 78.2842 80.5809 77.9909C80.2844 77.7181 79.9086 77.5465 79.5079 77.5009C79.1072 77.4553 78.7024 77.5382 78.352 77.7375C77.9975 77.9405 77.7045 78.2354 77.5043 78.591C77.304 78.9466 77.2038 79.3496 77.2144 79.7574C77.2431 80.2064 77.3731 80.6431 77.5946 81.035C77.8161 81.4269 78.1234 81.7637 78.4936 82.0205C79.9919 83.1038 82.3317 83.0472 83.9287 82.2229C85.7281 81.2934 86.6568 78.864 85.2437 77.2021C84.9499 76.8563 84.4605 77.2427 84.5344 77.616C84.6279 78.1198 84.9106 78.569 85.3248 78.8719C85.739 79.1748 86.2535 79.3084 86.7631 79.2456C87.2727 79.1827 87.7391 78.9281 88.0669 78.5337C88.3948 78.1394 88.5594 77.635 88.5272 77.1236L87.8922 77.4941C88.671 77.8384 89.527 77.9719 90.3739 77.8812C91.2209 77.7905 92.029 77.4789 92.717 76.9776C93.0572 76.7309 93.3611 76.4378 93.6198 76.1068C93.9308 75.7021 94.453 75.4405 94.876 75.1488L97.9243 73.0471C98.3727 72.738 97.9455 72.0012 97.4944 72.313L94.734 74.2163C94.274 74.5332 93.811 74.8469 93.3537 75.168C93.0269 75.3976 92.8258 75.7684 92.5281 76.0411C91.965 76.5465 91.2696 76.8818 90.5228 77.0079C89.7761 77.1339 89.0088 77.0455 88.3105 76.753C88.2454 76.7182 88.1725 76.7006 88.0987 76.7019C88.0248 76.7033 87.9526 76.7235 87.8889 76.7607C87.8251 76.7979 87.772 76.8508 87.7347 76.9143C87.6973 76.9778 87.6769 77.0499 87.6754 77.1236C87.6935 77.2754 87.6814 77.4292 87.6399 77.5764C87.5984 77.7235 87.5282 77.8611 87.4334 77.9812C87.3386 78.1013 87.2211 78.2015 87.0874 78.2763C86.9538 78.351 86.8068 78.3988 86.6546 78.4168C86.5025 78.4349 86.3483 78.4228 86.2009 78.3814C86.0534 78.34 85.9156 78.2699 85.7952 78.1754C85.6749 78.0808 85.5744 77.9634 85.4995 77.8301C85.4246 77.6968 85.3767 77.55 85.3587 77.3982L84.6493 77.812C85.5608 78.8847 84.9539 80.5302 83.9037 81.2499C82.7293 82.055 80.9936 82.1946 79.67 81.6935C79.3452 81.582 79.047 81.4049 78.7939 81.1732C78.5408 80.9414 78.3384 80.6601 78.1991 80.3468C78.0702 80.0637 78.0335 79.7473 78.0943 79.4423C78.155 79.1373 78.3102 78.859 78.5378 78.6467C78.735 78.4523 79.0001 78.3419 79.2772 78.339C79.5544 78.336 79.8218 78.4407 80.023 78.6308C80.2422 78.8543 80.4028 79.1281 80.4909 79.4282C80.579 79.7282 80.5918 80.0453 80.5281 80.3515C80.3916 81.2034 79.9195 81.9891 79.4805 82.7175C78.9792 83.5467 78.4122 84.3345 77.7851 85.0735C77.4335 85.4886 78.0391 86.0875 78.3952 85.6674L78.3943 85.6665Z" fill="var(--fill-0, #FD527B)"/>
<path id="Vector_18" d="M85.1135 105.885C85.187 105.961 85.2544 106.042 85.3151 106.128L94.7543 105.897L95.855 103.889L99.1091 105.152L97.5058 108.896C97.3762 109.198 97.1518 109.45 96.8664 109.615C96.5809 109.779 96.2498 109.847 95.9226 109.808L85.2581 108.522C85.0065 108.84 84.664 109.074 84.276 109.192C83.888 109.311 83.4729 109.309 83.086 109.187C82.6992 109.064 82.3588 108.827 82.1102 108.507C81.8616 108.187 81.7165 107.799 81.6943 107.395C81.6721 106.99 81.7738 106.589 81.9858 106.243C82.1979 105.898 82.5103 105.625 82.8814 105.462C83.2526 105.298 83.665 105.251 84.0636 105.326C84.4623 105.402 84.8284 105.597 85.1133 105.886L85.1135 105.885Z" fill="var(--fill-0, #ED9DA0)"/>
<path id="Vector_19" d="M115.884 163.091H112.78L111.304 151.145H115.884L115.884 163.091Z" fill="var(--fill-0, #ED9DA0)"/>
<path id="Vector_20" d="M87.534 163.251L84.5191 161.965L88.0524 149.748L92.5021 151.645L87.534 163.251Z" fill="var(--fill-0, #ED9DA0)"/>
<path id="Vector_21" d="M104.933 88.766C105.924 87.5986 108.646 88.4153 108.646 88.4153L109.532 93.0856H104.679C104.679 93.0856 103.942 89.9335 104.933 88.766Z" fill="var(--fill-0, #ED9DA0)"/>
<path id="Vector_22" d="M100.798 108.473L100.574 112.103L107.135 112.803L113.999 113.536L111.979 108.025L100.798 108.473Z" fill="var(--fill-0, #FFB7B7)"/>
<path id="Vector_23" d="M100.367 112.149L97.8185 94.4194L102.236 92.9747L103.533 91.1991L109.847 91.572L110.774 93.6439L114.14 95.2315L113.622 104.82L114 112.841L100.367 112.149Z" fill="var(--fill-0, #E6E6E6)"/>
<path id="Vector_24" d="M98.7628 107.398L94.2697 105.604L94.289 105.524C94.3082 105.444 96.2206 97.469 96.4744 96.1872C96.7391 94.8521 97.7054 94.4828 97.7465 94.4678L97.7765 94.4568L99.5547 94.997L100.336 101.12L98.7628 107.398Z" fill="var(--fill-0, #E6E6E6)"/>
<path id="Vector_25" d="M90.0131 160.923L84.032 159.698L93.5917 133.374L96.8633 124.396C96.8633 124.396 98.9379 117.197 99.8759 114.411L100.442 110.673L113.835 112.152C113.835 112.152 117.576 117.634 116.439 126.57L116.953 160.157L110.972 160.463L105.963 126.59L97.1701 145.159C95.1913 150.589 92.7986 155.859 90.0131 160.923Z" fill="var(--fill-0, #090814)"/>
<path id="Vector_26" d="M108.464 113.4C108.57 113.397 108.675 113.403 108.779 113.417L115.028 106.353L114.301 104.182L117.441 102.659L119.102 106.377C119.102 106.377 119.212 107.718 118.695 108.155L110.5 115.084C110.562 115.485 110.501 115.894 110.325 116.259C110.148 116.624 109.865 116.926 109.512 117.126C109.159 117.326 108.753 117.414 108.349 117.378C107.945 117.342 107.561 117.185 107.249 116.926C106.936 116.667 106.71 116.32 106.601 115.93C106.491 115.54 106.503 115.126 106.635 114.743C106.767 114.36 107.013 114.026 107.34 113.786C107.666 113.546 108.059 113.41 108.464 113.398V113.4Z" fill="var(--fill-0, #ED9DA0)"/>
<path id="Vector_27" d="M114.529 107.04L111.923 100.922L112.939 96.6602L114.034 95.2792C114.114 95.245 114.201 95.2277 114.288 95.2285C114.375 95.2293 114.461 95.2481 114.541 95.2839C114.945 95.4461 115.289 95.9434 115.563 96.7626L118.006 103.706L114.529 107.04Z" fill="var(--fill-0, #E6E6E6)"/>
<path id="Vector_28" d="M105.927 89.6549C108.435 89.6549 110.468 87.626 110.468 85.1232C110.468 82.6204 108.435 80.5914 105.927 80.5914C103.419 80.5914 101.386 82.6204 101.386 85.1232C101.386 87.626 103.419 89.6549 105.927 89.6549Z" fill="var(--fill-0, #ED9DA0)"/>
<path id="Vector_29" d="M99.5406 84.6882C99.542 83.3919 100.059 82.1491 100.977 81.2325C101.896 80.3159 103.141 79.8003 104.44 79.7988H105.365C106.664 79.8003 107.909 80.3159 108.827 81.2325C109.746 82.1491 110.263 83.3919 110.264 84.6882V84.7805H108.31L107.644 82.9186L107.511 84.7805H106.501L106.165 83.8411L106.097 84.7805H99.5406V84.6882Z" fill="var(--fill-0, #090814)"/>
<path id="Vector_30" d="M105.48 90.2808C105.388 90.1569 105.333 90.0096 105.322 89.856C105.31 89.7024 105.343 89.5486 105.415 89.4124C106.394 87.5534 107.766 84.117 105.945 81.9975L105.815 81.8452H111.1V89.7643L106.299 90.6093C106.25 90.6179 106.2 90.6222 106.151 90.6222C106.019 90.6222 105.89 90.5912 105.774 90.5317C105.657 90.4721 105.556 90.3858 105.479 90.2798L105.48 90.2808Z" fill="var(--fill-0, #090814)"/>
<path id="Vector_31" d="M44.382 160.39L47.5127 162.013L51.162 151.884H48.5633L44.382 160.39Z" fill="var(--fill-0, #D6D6E3)"/>
<path id="Vector_32" d="M56.1202 90.0022L57.4155 87.4478C57.4155 87.4478 62.242 88.6544 62.68 91.4455L56.1202 90.0022Z" fill="var(--fill-0, #E6E6E6)"/>
<path id="Vector_33" d="M50.775 119.21L52.085 133.436L52.5814 138.828L45.1327 157.542L48.8925 159.521C48.8925 159.521 56.6539 146.41 59.3264 141.318C61.999 136.226 61.2221 137.151 61.2221 137.151L61.8405 162.769L67.1441 161.939C67.1441 161.939 68.1996 149.094 67.8507 138.828C67.5019 128.563 65.5952 118.726 65.5952 118.726L50.775 119.21Z" fill="var(--fill-0, #2F2E41)"/>
<path id="Vector_34" d="M57.4627 123.847C52.2874 123.847 49.0015 122.86 48.9278 122.844L48.8087 122.819L51.5043 110.347L51.6256 98.8424C51.6256 93.9672 54.841 90.373 55.2878 90.0413C55.3629 89.7454 55.5019 89.4694 55.6949 89.2326C55.888 88.9958 56.1305 88.8039 56.4055 88.6703C57.478 88.1844 58.7887 88.7675 58.8438 88.7924L62.7774 90.2642L62.7958 90.3187C62.8432 90.4581 68.0245 107.432 68.0245 107.432C68.0245 107.432 67.711 122.263 67.6011 122.749C67.6007 122.749 60.3377 123.847 57.4627 123.847Z" fill="var(--fill-0, #3F3D56)"/>
<path id="Vector_35" d="M61.4389 87.7963C64.3751 87.7963 66.7555 85.421 66.7555 82.4908C66.7555 79.5606 64.3751 77.1852 61.4389 77.1852C58.5026 77.1852 56.1223 79.5606 56.1223 82.4908C56.1223 85.421 58.5026 87.7963 61.4389 87.7963Z" fill="var(--fill-0, #ED9DA0)"/>
<path id="Vector_36" d="M84.673 108.595C84.4114 108.801 84.1076 108.948 83.783 109.025C83.4584 109.102 83.1209 109.106 82.7943 109.039C82.4677 108.971 82.1599 108.833 81.8926 108.634C81.6253 108.435 81.405 108.179 81.2472 107.886L73.2412 109.165L74.9755 105.333L82.3122 104.706C82.8235 104.474 83.4024 104.437 83.9391 104.603C84.4758 104.768 84.9331 105.124 85.2241 105.604C85.5151 106.083 85.6198 106.653 85.5181 107.204C85.4165 107.755 85.1157 108.25 84.6728 108.595H84.673Z" fill="var(--fill-0, #ED9DA0)"/>
<path id="Vector_37" d="M75.3879 105.115L78.2645 104.834L79.0618 108.838L75.4419 108.901L75.3879 105.115Z" fill="var(--fill-0, #E6E6E6)"/>
<path id="Vector_38" d="M77.7461 110.234L63.6574 108.982L56.5436 97.6915L56.5224 97.5918C56.321 96.6696 56.4626 95.7059 56.9209 94.8803C57.3792 94.0547 58.1228 93.4238 59.013 93.1051C59.9033 92.7865 60.8792 92.8019 61.7589 93.1486C62.6385 93.4953 63.3617 94.1495 63.7935 94.9892L67.9695 103.118L76.3975 104.389L77.7461 110.234Z" fill="var(--fill-0, #3F3D56)"/>
<path id="Vector_39" d="M148.744 166.34H13.4031C13.3512 166.328 13.3051 166.298 13.2721 166.256C13.2392 166.214 13.2212 166.163 13.2212 166.11C13.2212 166.056 13.2392 166.005 13.2721 165.963C13.3051 165.921 13.3512 165.891 13.4031 165.879H148.817C148.871 165.886 148.921 165.915 148.955 165.958C148.989 166.001 149.004 166.055 148.999 166.11C148.989 166.171 148.959 166.228 148.912 166.27C148.866 166.312 148.807 166.337 148.744 166.34Z" fill="var(--fill-0, #E6E6E6)"/>
<path id="Vector_40" d="M116.496 165.675C116.622 165.586 116.727 165.471 116.806 165.338C116.885 165.205 116.934 165.057 116.952 164.903C116.973 164.583 116.814 164.24 116.481 163.883C116.473 163.78 116.369 162.508 116.139 162.28C116.158 162.212 116.276 161.76 116.083 161.467C116.034 161.396 115.969 161.338 115.894 161.296C115.819 161.255 115.735 161.231 115.649 161.227H115.64L115.636 161.235C115.63 161.245 115.069 162.229 114.225 162.316C113.742 162.365 113.257 162.114 112.786 161.568C112.769 161.528 112.636 160.863 112.55 160.423L112.546 160.405L107.948 162.847L105.26 163.599C105.106 163.643 104.969 163.733 104.867 163.857C104.765 163.981 104.703 164.132 104.689 164.291C104.675 164.451 104.709 164.611 104.788 164.75C104.867 164.89 104.986 165.002 105.129 165.073L106.432 165.707C106.979 165.972 107.579 166.11 108.187 166.111H115.254C115.705 166.113 116.144 165.96 116.495 165.677L116.496 165.675Z" fill="var(--fill-0, #090814)"/>
<path id="Vector_41" d="M89.2326 165.636C89.3655 165.542 89.477 165.42 89.5599 165.28C89.6428 165.14 89.6952 164.984 89.7137 164.822C89.7349 164.484 89.5687 164.122 89.2171 163.746C89.2087 163.638 89.0996 162.295 88.8573 162.055C88.8146 161.693 88.7 161.344 88.5202 161.028C88.4246 160.882 87.729 162.001 86.839 162.092C86.3286 162.144 85.8178 161.879 85.3206 161.303C85.3026 161.261 85.1622 160.559 85.0714 160.095L85.0678 160.077L80.2174 162.653L77.3829 163.445C77.2205 163.492 77.0761 163.587 76.9687 163.717C76.8613 163.848 76.7959 164.007 76.7811 164.176C76.7662 164.344 76.8026 164.512 76.8855 164.659C76.9684 164.807 77.0938 164.925 77.2455 165L78.6196 165.667C79.1966 165.947 79.8295 166.093 80.471 166.094H87.925C88.401 166.096 88.8632 165.934 89.2334 165.636L89.2326 165.636Z" fill="var(--fill-0, #090814)"/>
<path id="Vector_42" d="M47.3135 160.485C48.2261 160.802 47.7759 159.435 48.2834 159.79C48.7908 160.145 50.2163 162.013 50.2163 162.013C50.2163 162.013 55.4433 164.537 54.3889 165.499C53.3345 166.462 50.5564 165.838 49.8334 165.521C49.1105 165.204 45.3678 163.53 45.3678 163.53C45.3678 163.53 42.246 162.858 42.5633 162.136C42.8807 161.415 44.8918 158.818 44.8918 158.818C44.8918 158.818 46.4009 160.168 47.3135 160.485Z" fill="var(--fill-0, #090814)"/>
<path id="Vector_43" d="M59.8129 86.3294C58.5379 86.6731 57.5741 87.1955 56.5791 86.3294C55.5842 85.4633 54.5198 83.2549 54.1612 81.9865C53.8985 81.057 53.7741 80.0263 54.1885 79.1543C54.603 78.2823 55.7186 77.6937 56.5791 78.1344C56.0482 77.5171 56.3135 76.4961 56.9335 75.968C57.5535 75.4399 58.405 75.2886 59.2159 75.2058C60.3929 75.0856 61.608 75.0723 62.7283 75.4528C63.8485 75.8332 64.8663 76.6651 65.2163 77.7926C65.5742 77.9589 65.9774 78.0021 66.3625 77.9153C66.7477 77.8285 67.0932 77.6167 67.3448 77.3131C67.4096 77.6618 67.3575 78.0222 67.1965 78.3384C67.0355 78.6546 66.7745 78.9091 66.454 79.0624L68.17 78.5072C68.465 79.1306 67.9479 79.9015 67.2868 80.1018C66.6257 80.302 65.9108 80.0832 65.2842 79.7948C64.6576 79.5065 64.0486 79.1418 63.3672 79.0295C62.6857 78.9171 61.8853 79.1351 61.5697 79.749C61.4046 80.0703 61.3959 80.4461 61.3 80.7947C61.2041 81.1432 60.9613 81.5038 60.6014 81.5323C60.3735 81.5503 60.1503 81.4293 59.924 81.454C59.7847 81.4815 59.6565 81.549 59.555 81.6481C59.4535 81.7472 59.3831 81.8737 59.3525 82.0121C59.2959 82.29 59.2952 82.5764 59.3504 82.8546L59.7862 86.1792" fill="var(--fill-0, #090814)"/>
</g>
</svg>
