<svg preserveAspectRatio="none" width="100%" height="100%" overflow="visible" style="display: block;" viewBox="0 0 36 36" fill="none" xmlns="http://www.w3.org/2000/svg">
<g id="icons8-line 1">
<path id="Vector" d="M9.375 31.5H26.625C29.3175 31.5 31.5 29.3175 31.5 26.625V9.375C31.5 6.6825 29.3175 4.5 26.625 4.5H9.375C6.6825 4.5 4.5 6.6825 4.5 9.375V26.625C4.5 29.3175 6.6825 31.5 9.375 31.5Z" fill="var(--fill-0, #00C300)"/>
<path id="Vector_2" d="M27.8348 16.8128C27.8348 12.414 23.4248 8.835 18.0045 8.835C12.5843 8.835 8.1735 12.414 8.1735 16.8128C8.1735 20.7563 11.6708 24.0593 16.395 24.684C16.7153 24.753 17.151 24.8955 17.2613 25.1685C17.3603 25.4167 17.3258 25.806 17.2928 26.0573C17.2928 26.0573 17.178 26.751 17.1525 26.8988C17.1098 27.147 16.9553 27.8707 18.0038 27.429C19.053 26.9872 23.6648 24.0952 25.7273 21.7207H25.7265C27.1523 20.1592 27.8348 18.573 27.8348 16.8128ZM14.1563 19.4302H12.2033C11.919 19.4302 11.688 19.1993 11.688 18.9143V15.0075C11.688 14.7233 11.919 14.4923 12.2033 14.4923C12.4875 14.4923 12.7185 14.7233 12.7185 15.0075V18.3983H14.1563C14.4405 18.3983 14.6715 18.6293 14.6715 18.9135C14.6715 19.1985 14.4405 19.4302 14.1563 19.4302ZM16.176 18.9143C16.176 19.1985 15.945 19.4302 15.6608 19.4302C15.3765 19.4302 15.1455 19.1993 15.1455 18.9143V15.0075C15.1455 14.7233 15.3765 14.4923 15.6608 14.4923C15.945 14.4923 16.176 14.7233 16.176 15.0075V18.9143ZM20.8785 18.9143C20.8785 19.137 20.7375 19.3335 20.526 19.4033C20.4728 19.4213 20.4173 19.4302 20.3625 19.4302C20.2013 19.4302 20.0475 19.353 19.9508 19.224L17.949 16.4978V18.9143C17.949 19.1985 17.718 19.4302 17.433 19.4302C17.1488 19.4302 16.917 19.1993 16.917 18.9143V15.0075C16.917 14.7855 17.0588 14.589 17.2695 14.5185C17.3228 14.5005 17.3775 14.4923 17.433 14.4923C17.5935 14.4923 17.748 14.5695 17.8448 14.6985L19.8473 17.4248V15.0075C19.8473 14.7233 20.079 14.4923 20.3632 14.4923C20.6475 14.4923 20.8785 14.7233 20.8785 15.0075V18.9143ZM24.039 16.4453C24.3233 16.4453 24.555 16.6763 24.555 16.9613C24.555 17.2455 24.324 17.4765 24.039 17.4765H22.6013V18.399H24.039C24.3233 18.399 24.555 18.63 24.555 18.9143C24.555 19.1985 24.3233 19.4302 24.039 19.4302H22.086C21.8025 19.4302 21.5708 19.1993 21.5708 18.9143V16.962V16.9605V15.0098C21.5708 15.009 21.5708 15.009 21.5708 15.0082C21.5708 14.724 21.8018 14.493 22.086 14.493H24.039C24.3233 14.493 24.555 14.724 24.555 15.0082C24.555 15.2925 24.324 15.5235 24.039 15.5235H22.6013V16.446L24.039 16.4453Z" fill="var(--fill-0, white)"/>
</g>
</svg>
