<svg preserveAspectRatio="none" width="100%" height="100%" overflow="visible" style="display: block;" viewBox="0 0 126 156.001" fill="none" xmlns="http://www.w3.org/2000/svg">
<g id="Group">
<path id="Vector" d="M125.844 156H0.156401C0.0700422 156 0 155.902 0 155.781C0 155.66 0.0700422 155.562 0.156401 155.562H125.844C125.93 155.562 126 155.66 126 155.781C126 155.902 125.93 156 125.844 156Z" fill="var(--fill-0, #CBCBCB)"/>
<path id="Vector_2" d="M91.7406 37.0399H90.8667V13.5788C90.8667 11.7957 90.5083 10.0299 89.8121 8.38249C89.1158 6.73505 88.0953 5.23814 86.8088 3.97723C85.5223 2.71632 83.995 1.7161 82.314 1.03369C80.6331 0.351273 78.8315 2.56098e-05 77.012 0L26.2949 0C22.6204 5.17203e-05 19.0964 1.43067 16.4981 3.97715C13.8998 6.52362 12.4401 9.97737 12.4401 13.5786V142.29C12.4401 145.891 13.8998 149.345 16.498 151.891C19.0963 154.438 22.6203 155.869 26.2949 155.869H77.012C80.6866 155.869 84.2107 154.438 86.809 151.891C89.4073 149.345 90.8671 145.891 90.8671 142.29V53.74H91.741L91.7406 37.0399Z" fill="var(--fill-0, #3F3D56)"/>
<path id="Vector_3" d="M87.9183 13.674V142.195C87.9196 143.525 87.6534 144.843 87.135 146.073C86.6166 147.303 85.8561 148.42 84.897 149.362C83.9379 150.304 82.7989 151.051 81.5451 151.561C80.2913 152.071 78.9473 152.335 77.5897 152.336H26.6101C25.2522 152.337 23.9075 152.076 22.6527 151.567C21.3978 151.059 20.2574 150.313 19.2966 149.373C18.3358 148.433 17.5733 147.316 17.0528 146.087C16.5323 144.858 16.2639 143.54 16.2629 142.209V13.674C16.262 12.3432 16.5285 11.0253 17.0472 9.79546C17.5659 8.56563 18.3267 7.44797 19.2862 6.5063C20.2456 5.56463 21.3849 4.8174 22.639 4.30726C23.8932 3.79712 25.2375 3.53407 26.5954 3.53312H32.7919C32.4874 4.26462 32.3712 5.05829 32.4534 5.8442C32.5357 6.6301 32.8139 7.38411 33.2636 8.03979C33.7133 8.69546 34.3207 9.23267 35.0321 9.60407C35.7436 9.97547 36.5374 10.1697 37.3435 10.1695H66.4C67.2061 10.1697 67.9999 9.97547 68.7114 9.60407C69.4228 9.23267 70.0302 8.69546 70.4799 8.03979C70.9295 7.38411 71.2078 6.6301 71.29 5.8442C71.3723 5.05829 71.2561 4.26462 70.9516 3.53312H77.5712C78.9288 3.53191 80.2733 3.79279 81.528 4.30084C82.7827 4.80889 83.923 5.55418 84.8838 6.49415C85.8447 7.43411 86.6072 8.55035 87.1278 9.77912C87.6485 11.0079 87.9171 12.3251 87.9183 13.6557V13.674Z" fill="var(--fill-0, white)"/>
<path id="Vector_4" d="M87.9183 32.6883V28.3116H81.1579V4.15932C80.0097 3.74374 78.7952 3.53177 77.5712 3.53331H76.6913V28.3116H53.241V10.1697H48.7745V28.3116H29.1211V3.53331H26.6109C25.9543 3.53233 25.2992 3.5932 24.6545 3.71507V28.3116H16.2637V32.6893H24.6543V42.815L16.2637 47.5625V52.6187L24.6543 47.8712V77.997H16.2637V82.3745H24.6543V125.932H16.2637V130.31H24.6543V152.154C25.299 152.276 25.9541 152.337 26.6107 152.336H29.1209V130.31H48.7743V152.336H53.241V130.31H76.6913V152.336H77.5712C78.7952 152.337 80.0097 152.125 81.1579 151.71V130.31H87.9181V125.932H81.1579V106.889H87.8578V102.512H81.1579V82.3745H87.9181V77.997H81.1579V51.2933H87.9181V46.9162H81.1579V32.6883H87.9183ZM42.5501 32.6883L29.1211 40.2879V32.6883H42.5501ZM29.1209 45.342L48.7745 34.2206V77.997H29.1211L29.1209 45.342ZM29.1209 125.932V82.3745H48.7743V125.932H29.1209ZM76.6911 125.932H53.241V106.889H76.6913L76.6911 125.932ZM76.6911 102.512H53.241V82.3745H76.6913L76.6911 102.512ZM76.6911 77.997H53.241V51.2933H76.6913L76.6911 77.997ZM76.6911 46.9158H53.241V32.6883H76.6913L76.6911 46.9158Z" fill="var(--fill-0, #F2F2F2)"/>
<g id="Group_2">
<path id="Vector_5" d="M82.5921 32.7386C82.5921 40.4675 68.3131 57.685 68.3131 57.685C68.3131 57.685 54.034 40.4675 54.034 32.7386C54.0481 29.0362 55.5587 25.4901 58.235 22.8769C60.9113 20.2637 64.5352 18.7965 68.313 18.7965C72.0908 18.7965 75.7146 20.2637 78.3909 22.8769C81.0672 25.4901 82.578 29.0362 82.5921 32.7386Z" fill="var(--fill-0, #FD527B)"/>
<path id="Vector_6" d="M76.7567 32.1304C76.7567 33.767 76.2615 35.3669 75.3338 36.7277C74.406 38.0885 73.0874 39.1491 71.5446 39.7754C70.0018 40.4018 68.3041 40.5656 66.6663 40.2463C65.0284 39.927 63.524 39.1389 62.3432 37.9817C61.1624 36.8244 60.3582 35.3499 60.0324 33.7447C59.7066 32.1396 59.8738 30.4757 60.5129 28.9637C61.152 27.4516 62.2342 26.1593 63.6226 25.25C65.0111 24.3408 66.6435 23.8554 68.3135 23.8554C69.4217 23.8549 70.5193 24.0684 71.5434 24.4836C72.5675 24.8988 73.4982 25.5076 74.2822 26.2753C75.0662 27.043 75.6883 27.9545 76.1129 28.9578C76.5375 29.9611 76.7562 31.0366 76.7567 32.1228V32.1304Z" fill="var(--fill-0, white)"/>
<path id="Vector_7" d="M68.3131 67.7855C70.4389 67.7855 72.1622 66.0965 72.1622 64.0131C72.1622 61.9297 70.4389 60.2407 68.3131 60.2407C66.1873 60.2407 64.4639 61.9297 64.4639 64.0131C64.4639 66.0965 66.1873 67.7855 68.3131 67.7855Z" fill="var(--fill-0, #FD527B)"/>
</g>
<g id="Group_3">
<path id="Vector_8" d="M95.8813 74.7499L91.1866 76.3797L91.8579 71.0199L95.07 70.7295C94.7464 72.0867 95.0472 73.4263 95.8813 74.7499Z" fill="var(--fill-0, #9F616A)"/>
<path id="Vector_9" d="M97.0345 89.6574L97.6315 91.0177L96.6565 95.8492L86.7073 94.4932L86.7869 88.602L86.9859 87.3116L97.0345 89.6574Z" fill="var(--fill-0, #FFB6B6)"/>
<path id="Vector_10" d="M102.576 152.273H99.2299L97.9365 140.992H102.576V152.273Z" fill="var(--fill-0, #9F616A)"/>
<path id="Vector_11" d="M90.7638 152.273H87.5416L85.6461 140.056H90.7636L90.7638 152.273Z" fill="var(--fill-0, #9F616A)"/>
<path id="Vector_12" d="M80.6771 154.324L86.2355 152.067V150.593L87.7173 150.617L90.7401 150.762L91.5291 150.798L92.0769 156H90.1316L89.7862 154.544L88.8965 156H81.3363C81.1074 156.012 80.88 155.956 80.683 155.841C80.486 155.726 80.3282 155.557 80.2296 155.354C80.1608 155.158 80.1686 154.945 80.2514 154.754C80.3343 154.564 80.4862 154.41 80.6779 154.324L80.6771 154.324Z" fill="var(--fill-0, #090814)"/>
<path id="Vector_13" d="M102.951 141.659C103.23 130.575 102.833 125.603 102.066 112.157C103.473 103.221 96.7679 97.3918 96.7679 97.3918L97.3848 92.7086L86.5402 92.9503L86.7246 97.3926L83.9211 104.855C82.7869 115.692 85.5116 141.456 85.7337 141.381C91.7529 141.366 90.7879 141.659 90.7879 141.659C91.8118 138.229 91.7231 137.161 91.4047 126.315L92.218 114.18L95.2956 129.103L97.7063 141.659C97.5561 141.791 103.217 141.655 102.951 141.659Z" fill="var(--fill-0, #090814)"/>
<path id="Vector_14" d="M99.3111 66.6996C99.3115 67.561 99.0961 68.4093 98.6839 69.1701C98.2717 69.9308 97.6752 70.5808 96.9469 71.0629C96.2185 71.545 95.3805 71.8445 94.5065 71.9351C93.6325 72.0257 92.7491 71.9046 91.934 71.5825C91.1188 71.2604 90.3968 70.7471 89.8314 70.0877C89.2659 69.4283 88.8742 68.6429 88.6907 67.8006C88.5072 66.9582 88.5375 66.0845 88.779 65.2563C89.0204 64.428 89.4656 63.6705 90.0755 63.0503L90.1014 63.0249C90.1443 62.9807 90.1873 62.9366 90.2325 62.8945C90.233 62.8947 90.2336 62.8947 90.2341 62.8945C90.2343 62.894 90.2343 62.8934 90.2341 62.8929C90.2957 62.8489 90.3526 62.7988 90.4038 62.7435C91.1287 61.7507 91.9505 60.9186 93.9412 61.4385C96.8077 62.1858 99.3111 63.7925 99.3111 66.6996Z" fill="var(--fill-0, #090814)"/>
<path id="Vector_15" d="M69.8152 64.4468C69.803 64.7284 69.8539 65.0092 69.9645 65.2694C70.075 65.5296 70.2424 65.7629 70.4549 65.9528C70.6674 66.1427 70.9198 66.2847 71.1943 66.3686C71.4688 66.4526 71.7588 66.4765 72.0438 66.4387L85.8915 77.5777L88.0065 73.9328L73.7296 64.1299C73.6331 63.6651 73.366 63.2511 72.9789 62.9663C72.5918 62.6815 72.1116 62.5458 71.6293 62.5848C71.1469 62.6238 70.6959 62.8348 70.3616 63.1778C70.0274 63.5209 69.8331 63.9722 69.8156 64.4462L69.8152 64.4468Z" fill="var(--fill-0, #9F616A)"/>
<path id="Vector_16" d="M91.7386 80.862C91.7386 80.862 91.2875 81.7785 89.5329 80.4762C88.1282 79.4331 81.4225 74.9321 79.9331 73.0297C79.6206 73.1681 79.27 73.2007 78.9365 73.1223C78.603 73.0439 78.3056 72.859 78.0911 72.5968L81.7548 69.1399C82.9045 69.2161 82.9163 69.9699 82.8178 70.4028L85.7627 71.5495L93.4315 75.8672L92.0773 80.2046L91.7386 80.862Z" fill="var(--fill-0, #E6E6E6)"/>
<path id="Vector_17" d="M92.6187 72.3302C95.1054 72.3302 97.1213 70.3545 97.1213 67.9173C97.1213 65.4802 95.1054 63.5045 92.6187 63.5045C90.132 63.5045 88.1161 65.4802 88.1161 67.9173C88.1161 70.3545 90.132 72.3302 92.6187 72.3302Z" fill="var(--fill-0, #9F616A)"/>
<path id="Vector_18" d="M86.4769 89.8058L86.4307 87.3441C86.248 87.0982 84.7159 84.9515 85.0593 82.8071C85.1449 82.2985 85.3361 81.8125 85.6213 81.3794C85.9065 80.9462 86.2795 80.5752 86.7171 80.2892L87.3224 78.9085L88.2178 76.8674L90.8396 75.3377L91.2029 74.6128L91.5014 74.0108L95.5265 73.7236L96.0098 74.8326L96.0273 74.8348C96.8466 75.0172 97.6162 75.3704 98.2838 75.8703C99.0167 76.4153 99.6107 77.1193 100.019 77.9271C100.428 78.7349 100.64 79.6245 100.639 80.5261L100.617 83.387L100.613 83.7966L100.61 84.1936L98.354 90.1461L98.2682 90.377L97.3832 92.7094L97.5352 92.9553C97.6988 93.2231 97.7592 93.5394 97.7055 93.8471C97.6517 94.1547 97.4874 94.4333 97.2423 94.6325L97.1366 96.0908L96.945 96.039L95.8554 95.7412L86.4757 96.0906C86.4757 96.0906 85.9177 90.5354 86.4769 89.8058Z" fill="var(--fill-0, #E6E6E6)"/>
<path id="Vector_19" d="M97.3312 69.0746C97.2904 69.0681 97.2496 69.059 97.2089 69.0535C96.5064 68.9314 95.8042 68.8115 95.1036 68.6873L95.0391 67.1316L94.1909 68.525C92.2558 69.1543 90.445 68.798 88.7419 68.0131C88.1803 67.7517 87.6354 67.4572 87.1102 67.1312C86.9371 64.5004 88.0224 62.8161 90.0421 62.9928C90.1159 62.9992 90.1686 62.9255 90.2333 62.8937C90.2338 62.8939 90.2344 62.8939 90.2349 62.8937C90.2351 62.8932 90.2351 62.8926 90.2349 62.8921C90.3443 62.8416 90.4565 62.7931 90.5672 62.749C91.4415 62.4141 92.3949 62.3293 93.3165 62.5044C94.2381 62.6796 95.0901 63.1074 95.7734 63.7383C97.1486 65.0241 97.7672 67.148 97.3312 69.0746Z" fill="var(--fill-0, #090814)"/>
<path id="Vector_20" d="M94.3974 61.5643C94.4424 61.7163 94.5315 61.8523 94.6538 61.9557C94.7761 62.0591 94.9264 62.1255 95.0865 62.1468C95.692 62.8802 96.3853 63.657 97.335 63.8044C97.6062 63.8608 97.8892 63.8129 98.1254 63.6706C98.1543 63.6531 98.181 63.6322 98.205 63.6086C98.4294 63.3994 98.4471 62.9785 98.1807 62.8212C99.3746 63.2851 100.071 64.5472 100.248 65.792C100.425 67.0368 100.18 68.2947 100.019 69.5416C99.8585 70.7886 99.7881 72.0983 100.288 73.2569C100.878 74.622 102.234 75.6043 103.713 75.9171C103.846 75.9452 107.129 75.7482 108.109 75.2332C109.45 74.5407 110.566 73.4833 111.48 72.299C109.906 73.3928 107.731 73.8027 106.019 72.9375C104.486 72.1607 103.581 70.5298 103.185 68.8858C102.789 67.2418 104.454 65.2226 104.274 63.5423C104.093 61.8621 102.023 60.4351 100.891 59.1599C100.169 58.3465 99.1036 57.7447 98.0058 57.8461C97.6347 57.8807 97.2757 57.9933 96.953 58.1762C96.6304 58.3592 96.3518 58.6081 96.1362 58.9061C95.9206 59.204 95.7731 59.5441 95.7037 59.903C95.6343 60.2619 95.6446 60.6312 95.734 60.9859C95.4214 60.5515 94.6135 60.6471 94.4131 61.1419C94.3592 61.2769 94.3536 61.4258 94.3974 61.5643Z" fill="var(--fill-0, #090814)"/>
<path id="Vector_21" d="M97.2089 69.0529C97.2089 69.0529 95.8757 64.1736 90.1575 63.0474C90.1509 63.0454 90.1296 63.0368 90.1016 63.0242C90.0823 63.0127 90.0624 63.0024 90.0419 62.9932C90.1063 62.9573 90.1684 62.9259 90.2331 62.8941H90.2347V62.8925C90.2906 62.842 90.3465 62.7915 90.4044 62.7431L90.5676 62.7496C90.5676 62.7496 96.3047 61.8582 97.2089 69.0529Z" fill="var(--fill-0, #FD527B)"/>
<path id="Vector_22" d="M100.622 104.166C100.8 103.946 100.928 103.689 100.995 103.415C101.061 103.141 101.066 102.856 101.008 102.58C100.95 102.304 100.832 102.044 100.66 101.818C100.488 101.591 100.268 101.405 100.015 101.271L102.975 92.6825L100.558 83.5797L96.6609 85.3066L99.0656 92.1723L97.2658 102.165C97.0635 102.597 97.0302 103.086 97.172 103.54C97.3138 103.995 97.6209 104.382 98.035 104.629C98.4491 104.876 98.9414 104.965 99.4182 104.88C99.8951 104.795 100.323 104.541 100.622 104.166V104.166Z" fill="var(--fill-0, #9F616A)"/>
<path id="Vector_23" d="M97.0534 76.0811C97.0534 76.0811 97.9688 75.5994 98.6055 77.6649C99.1153 79.3184 102.584 88.2958 102.646 90.6932C102.982 90.7614 103.285 90.9371 103.508 91.1927C103.73 91.4483 103.86 91.7692 103.876 92.1049L98.8383 92.7874C97.9542 92.0631 98.3974 91.4465 98.7369 91.1532L97.021 88.3048L93.4345 80.6149L96.3845 76.4168L97.0534 76.0811Z" fill="var(--fill-0, #E6E6E6)"/>
<path id="Vector_24" d="M94.0989 154.324L98.596 152.067V150.593L99.795 150.617L102.241 150.762L102.879 150.798L103.322 156H101.748L101.47 154.544L100.75 156H94.6324C94.4322 156 94.2371 155.937 94.0758 155.821C93.9145 155.705 93.7954 155.541 93.7358 155.354C93.6763 155.166 93.6795 154.965 93.7449 154.78C93.8104 154.594 93.9346 154.434 94.0995 154.323L94.0989 154.324Z" fill="var(--fill-0, #090814)"/>
</g>
</g>
</svg>
