<svg preserveAspectRatio="none" width="100%" height="100%" overflow="visible" style="display: block;" viewBox="0 0 198 140" fill="none" xmlns="http://www.w3.org/2000/svg">
<g id="undraw_medicine_hqqg 1" clip-path="url(#clip0_0_60)">
<path id="Vector" opacity="0.1" d="M65.8268 139.921C75.4692 139.921 83.286 138.668 83.286 137.122C83.286 135.576 75.4692 134.323 65.8268 134.323C56.1843 134.323 48.3676 135.576 48.3676 137.122C48.3676 138.668 56.1843 139.921 65.8268 139.921Z" fill="var(--fill-0, #6C63FF)"/>
<path id="Vector_2" opacity="0.1" d="M160.733 140C172.765 140 182.519 138.747 182.519 137.201C182.519 135.655 172.765 134.402 160.733 134.402C148.7 134.402 138.946 135.655 138.946 137.201C138.946 138.747 148.7 140 160.733 140Z" fill="var(--fill-0, #6C63FF)"/>
<path id="Vector_3" opacity="0.1" d="M2.47984 60.4901H20.6647V85.2316H3.81114C3.76634 85.4856 3.72334 85.7414 3.67675 85.9971H20.6647V105.951C20.6343 105.942 20.6074 105.931 20.5787 105.92C20.0985 105.731 19.6219 105.53 19.1453 105.316L18.8407 105.178C18.3629 104.953 17.8851 104.714 17.4072 104.463C17.2406 104.375 17.074 104.284 16.9091 104.191C14.2565 102.707 11.8468 100.828 9.76347 98.6174C9.70255 98.5584 9.64521 98.4958 9.58429 98.4386C9.29402 98.1238 9.00912 97.8054 8.73319 97.4799L8.42858 97.1222C8.10248 96.7233 7.78712 96.3137 7.48072 95.8988C7.43593 95.838 7.39293 95.7771 7.34634 95.7199C6.10023 93.9952 5.06557 92.1277 4.26446 90.1574C4.23938 90.0984 4.21787 90.034 4.19458 89.9785C3.94851 89.3466 3.73051 88.7086 3.54058 88.0647C3.45816 87.7947 3.37932 87.5282 3.31123 87.2474C3.28614 87.1651 3.26464 87.0846 3.24493 87.0041C2.2272 83.0388 2.10715 78.9197 2.10715 74.8292C2.10715 74.3516 2.10715 73.8723 2.10715 73.3983C2.10715 71.7439 2.12686 70.0787 2.15552 68.4153C2.15552 67.9843 2.17344 67.555 2.1824 67.1222C2.20749 66.024 2.24332 64.9258 2.28991 63.8276C2.30066 63.5217 2.31499 63.2177 2.33112 62.9136C2.33112 62.7383 2.34008 62.563 2.358 62.3878C2.401 61.751 2.43684 61.1197 2.47984 60.4901Z" fill="var(--fill-0, #6C63FF)"/>
<path id="Vector_4" opacity="0.1" d="M20.6647 32.9422H10.6898C12.3113 30.4088 14.0829 27.9744 15.9953 25.6519C17.4771 23.8347 19.0414 22.064 20.6647 20.3577V32.9422Z" fill="var(--fill-0, #6C63FF)"/>
<path id="Vector_5" opacity="0.1" d="M20.6647 33.7077V59.7246H2.53718C2.53718 59.6494 2.54972 59.5725 2.55509 59.4974C2.57122 59.2917 2.58735 59.086 2.60526 58.8821C2.62497 58.6425 2.64647 58.401 2.66977 58.1667C2.69306 57.9324 2.71815 57.6462 2.74502 57.3869C2.7719 57.1275 2.79698 56.8646 2.82745 56.6053C2.85791 56.3459 2.88478 56.0866 2.91703 55.829C2.94929 55.5715 2.97796 55.3103 3.012 55.0528C3.03888 54.8381 3.06754 54.6253 3.09621 54.4107C3.13742 54.1084 3.18043 53.8043 3.22701 53.5038C3.22701 53.4591 3.23956 53.4126 3.24672 53.3697C3.57376 51.17 4.01937 48.9896 4.58161 46.8378C5.17014 44.5806 5.92167 42.3688 6.8303 40.22C7.79602 37.9721 8.92672 35.7984 10.2132 33.7167L20.6647 33.7077Z" fill="var(--fill-0, #6C63FF)"/>
<path id="Vector_6" opacity="0.1" d="M25.0062 60.4883V85.2316H63.8469V60.4883H25.0062ZM25.0062 85.9954V107.244C25.2284 107.29 25.4488 107.335 25.6674 107.373C25.9648 107.43 26.2605 107.482 26.5633 107.526C26.6206 107.535 26.6798 107.544 26.7425 107.55C26.8607 107.569 26.9826 107.585 27.1008 107.602C27.4001 107.643 27.6975 107.677 27.9967 107.703C28.1383 107.718 28.2816 107.73 28.425 107.741L28.7708 107.768C28.9589 107.782 29.1453 107.793 29.3298 107.798C29.4445 107.798 29.5592 107.809 29.6774 107.813C29.767 107.813 29.8566 107.813 29.9498 107.813C30.0429 107.813 30.1755 107.813 30.2884 107.813C30.4425 107.813 30.5966 107.813 30.7489 107.813H30.955C31.1091 107.813 31.2632 107.813 31.4155 107.798H31.4262C31.5319 107.798 31.6394 107.798 31.7469 107.784C31.7768 107.786 31.8067 107.786 31.8365 107.784C31.9261 107.784 32.0157 107.784 32.1017 107.771H32.1644L32.7647 107.725C32.9618 107.707 33.1607 107.684 33.3613 107.662L33.7699 107.614C35.4319 107.382 37.0755 107.033 38.6883 106.569C42.3113 105.561 45.8555 104.15 49.4767 103.116C54.1586 101.783 59.3315 101.129 63.8558 102.758V85.9954H25.0062ZM63.8469 32.9422V0.00178852C59.5945 -0.0442003 55.3536 0.452277 51.2273 1.47916C41.3921 3.94563 32.5676 9.2953 25.0062 16.1277V32.9404H26.9557V33.7042H25.0062V59.7246H63.8469V33.706H34.9596V32.9422H63.8469ZM113.736 21.8154C111.302 21.7296 108.884 20.9605 106.696 19.7728C102.512 17.5013 99.1702 13.9939 95.4361 11.0338C87.6777 4.86854 78.0558 1.14827 68.1848 0.225362V32.9422H123.632L123.77 32.7974L113.736 21.8154ZM118.787 20.9211L124.142 26.7877V19.3829C122.349 19.6047 120.777 20.1324 118.794 20.914L118.787 20.9211ZM124.142 112.52V85.9954H112.73C112.7 85.8827 112.67 85.7682 112.634 85.6537C112.668 85.7682 112.696 85.8827 112.729 85.9954H68.192V105.178C68.6148 105.491 69.0323 105.82 69.4462 106.155C69.8924 106.512 70.3331 106.89 70.7757 107.26L71.2219 107.628C71.4351 107.807 71.6501 107.986 71.8669 108.154C72.2969 108.502 72.7312 108.846 73.1695 109.184C73.3864 109.363 73.6085 109.524 73.8289 109.692C77.3278 112.363 81.0187 114.772 84.8717 116.902C85.7354 117.379 86.6068 117.845 87.486 118.299C88.0719 118.598 88.6614 118.895 89.2527 119.183C90.1414 119.615 91.0373 120.033 91.9403 120.435C100.266 124.165 109.07 126.725 118.1 128.042C120.106 128.337 122.119 128.57 124.141 128.739V112.518H124.32L124.142 112.52ZM68.192 33.706V59.7246H124.15V33.706H68.192ZM68.192 60.4883V85.2316H124.15V60.4883H68.192ZM128.493 19.3507V27.6104L135.329 20.1234C133.064 19.7585 130.785 19.498 128.493 19.3418V19.3507ZM128.493 60.4972V85.2316H182.918V60.4883L128.493 60.4972ZM182.72 114.484L182.911 85.9954H128.493V129.023C131.999 129.17 135.51 129.129 139.011 128.898H139.072C140.744 128.793 142.409 128.641 144.065 128.44H144.103C152.942 127.413 161.585 125.111 169.761 121.606M193.413 64.5627C193.209 64.0816 192.996 63.604 192.779 63.1318C192.374 62.2375 191.946 61.3683 191.505 60.499H187.258V85.2316H197.995C197.989 78.2275 196.214 71.0732 193.418 64.5537L193.413 64.5627ZM187.258 86.0043V110.508C190.283 107.614 192.838 104.303 194.678 100.519C196.891 95.9614 197.903 91.0267 197.986 86.0007L187.258 86.0043ZM187.258 53.2874V59.7263H191.107C189.943 57.5098 188.66 55.3574 187.264 53.2785L187.258 53.2874ZM150.347 24.205C150.064 24.0977 149.781 23.9886 149.496 23.883C146.492 22.7754 143.421 21.8543 140.303 21.125L129.842 32.5845L129.641 32.7974L129.776 32.944H167.006C161.821 29.3812 156.231 26.4447 150.353 24.196L150.347 24.205ZM168.097 33.7149H129.256L128.493 34.4125V59.7246H135.183H135.194H182.926V47.4638C178.608 42.2511 173.624 37.6258 168.102 33.706L168.097 33.7149Z" fill="var(--fill-0, #6C63FF)"/>
<path id="Vector_7" opacity="0.1" d="M20.6647 46.8306V59.7246H2.53718C2.53718 59.6494 2.54972 59.5725 2.55509 59.4974C2.57122 59.2917 2.58735 59.086 2.60526 58.8821C2.62497 58.6425 2.64647 58.401 2.66977 58.1667C2.69306 57.9324 2.71815 57.6462 2.74502 57.3869C2.7719 57.1275 2.79698 56.8646 2.82745 56.6053C2.85791 56.3459 2.88478 56.0866 2.91703 55.829C2.94929 55.5714 2.97796 55.3103 3.012 55.0528C3.03888 54.8381 3.06754 54.6253 3.09621 54.4107C3.13742 54.1084 3.18043 53.8043 3.22701 53.5038C3.22701 53.4591 3.23956 53.4126 3.24672 53.3697C3.57376 51.17 4.01937 48.9896 4.58161 46.8378L20.6647 46.8306Z" fill="var(--fill-0, #6C63FF)"/>
<path id="Vector_8" opacity="0.1" d="M2.47984 60.4901H20.6647V85.2316H3.81114C3.76634 85.4856 3.72334 85.7414 3.67675 85.9971H20.6647V105.951C20.6343 105.942 20.6074 105.931 20.5787 105.92C20.0985 105.731 19.6219 105.53 19.1453 105.316L18.8407 105.178C18.3629 104.953 17.8851 104.714 17.4072 104.463C17.2406 104.375 17.074 104.284 16.9091 104.191C14.2565 102.707 11.8468 100.828 9.76347 98.6174C9.70255 98.5584 9.64521 98.4958 9.58429 98.4386C9.29402 98.1238 9.00912 97.8054 8.73319 97.4799L8.42858 97.1222C8.10248 96.7233 7.78712 96.3137 7.48072 95.8988C7.43593 95.838 7.39293 95.7771 7.34634 95.7199C6.10023 93.9952 5.06557 92.1277 4.26446 90.1574C4.23938 90.0984 4.21787 90.034 4.19458 89.9785C3.94851 89.3466 3.73051 88.7086 3.54058 88.0647C3.45816 87.7947 3.37932 87.5282 3.31123 87.2474C3.28614 87.1651 3.26464 87.0846 3.24493 87.0041C2.2272 83.0388 2.10715 78.9197 2.10715 74.8292C2.10715 74.3516 2.10715 73.8723 2.10715 73.3983C2.10715 71.7439 2.12686 70.0787 2.15552 68.4153C2.15552 67.9843 2.17344 67.555 2.1824 67.1222C2.20749 66.024 2.24332 64.9258 2.28991 63.8276C2.30066 63.5217 2.31499 63.2177 2.33112 62.9136C2.33112 62.7383 2.34008 62.563 2.358 62.3878C2.401 61.751 2.43684 61.1197 2.47984 60.4901Z" fill="var(--fill-0, #6C63FF)"/>
<path id="Vector_9" opacity="0.1" d="M38.6794 37.4316V59.7246H25.0062V37.4316H26.9557V29.8837H34.9578V37.4316H38.6794Z" fill="var(--fill-0, #6C63FF)"/>
<path id="Vector_10" opacity="0.1" d="M38.6794 60.4883H25.008V85.2298H38.6794V60.4883Z" fill="var(--fill-0, #6C63FF)"/>
<path id="Vector_11" opacity="0.1" d="M25.0062 85.9971H38.6794V106.566C37.0665 107.029 35.4229 107.377 33.7609 107.609L33.3524 107.659C33.1517 107.682 32.9528 107.702 32.7557 107.721C32.5586 107.741 32.3544 107.755 32.1555 107.768H32.0928C32.0067 107.768 31.9136 107.779 31.8294 107.78H31.738C31.6305 107.78 31.523 107.791 31.4155 107.795C31.2632 107.804 31.1109 107.805 30.955 107.807C30.8887 107.807 30.826 107.807 30.7597 107.807C30.6056 107.807 30.4533 107.807 30.2992 107.807H29.9605C29.8691 107.807 29.7813 107.807 29.6864 107.807L29.3406 107.795C29.1614 107.795 28.9679 107.775 28.7815 107.762L28.4375 107.737L28.0093 107.698C27.7082 107.671 27.409 107.637 27.1134 107.596L26.755 107.546L26.5758 107.521C26.2766 107.475 25.981 107.424 25.6799 107.367C25.4595 107.33 25.2409 107.283 25.0188 107.238L25.0062 85.9971Z" fill="var(--fill-0, #6C63FF)"/>
<path id="Vector_12" opacity="0.1" d="M124.15 34.7988H112.876V59.7228H124.15V34.7988Z" fill="var(--fill-0, #6C63FF)"/>
<path id="Vector_13" opacity="0.1" d="M124.151 60.4883V85.2316H68.192V74.5591H97.9984V80.8549H112.876V60.4883H124.151Z" fill="var(--fill-0, #6C63FF)"/>
<path id="Vector_14" opacity="0.1" d="M124.329 112.525H124.15V128.757C122.131 128.586 120.118 128.354 118.111 128.061C109.076 126.741 100.269 124.175 91.9403 120.438C89.5358 119.358 87.1801 118.179 84.8735 116.9C81.0205 114.77 77.3291 112.36 73.8289 109.691C72.9498 109.018 72.0819 108.33 71.2255 107.627C70.6324 107.138 70.0429 106.637 69.4462 106.151C69.0323 105.816 68.6148 105.487 68.192 105.173V85.9971H112.727C112.696 85.8827 112.666 85.7682 112.634 85.6555C112.668 85.7682 112.7 85.8827 112.73 85.9971H124.15V112.515C124.21 112.517 124.27 112.522 124.329 112.525Z" fill="var(--fill-0, #6C63FF)"/>
<path id="Vector_15" opacity="0.1" d="M153.553 32.9422H146.206V30.6636H149.5V23.8759C149.785 23.9796 150.07 24.0863 150.353 24.196V30.6636H153.553V32.9422Z" fill="var(--fill-0, #6C63FF)"/>
<path id="Vector_16" opacity="0.1" d="M171.252 59.7246H135.187C135.187 59.7246 135.187 59.7246 135.2 59.7335L135.183 59.7246H128.493V34.8006H130.389V53.223H139.052V42.3126H146.208V33.7077H153.555V42.3198H160.711V53.2302H171.252V59.7246Z" fill="var(--fill-0, #6C63FF)"/>
<path id="Vector_17" opacity="0.1" d="M128.493 60.4883V85.2316H171.252V60.4883H128.493ZM182.859 114.357L182.919 94.772H171.252V86.0079H128.493V129.023C131.999 129.17 135.51 129.129 139.011 128.898H139.072C140.744 128.793 142.409 128.641 144.065 128.44H144.103C152.942 127.413 161.585 125.111 169.761 121.606" fill="var(--fill-0, #6C63FF)"/>
<path id="Vector_18" opacity="0.1" d="M188.018 85.9971H197.993C197.905 91.0213 196.894 95.956 194.683 100.513C192.843 104.3 190.286 107.61 187.265 110.503V94.763H188.018V85.9971Z" fill="var(--fill-0, #6C63FF)"/>
<path id="Vector_19" opacity="0.1" d="M197.998 85.2316H188.018V64.5537H193.418C196.214 71.0732 197.989 78.2275 197.998 85.2316Z" fill="var(--fill-0, #6C63FF)"/>
<path id="Vector_20" opacity="0.1" d="M124.151 41.7278H118.111V49.5421H124.151V41.7278Z" fill="var(--fill-0, #6C63FF)"/>
<path id="Vector_21" opacity="0.1" d="M124.151 57.9252H118.111V59.7246H124.151V57.9252Z" fill="var(--fill-0, #6C63FF)"/>
<path id="Vector_22" opacity="0.1" d="M124.151 60.4883H118.111V65.7378H124.151V60.4883Z" fill="var(--fill-0, #6C63FF)"/>
<path id="Vector_23" opacity="0.1" d="M124.151 74.1227H118.111V81.937H124.151V74.1227Z" fill="var(--fill-0, #6C63FF)"/>
<path id="Vector_24" opacity="0.1" d="M124.151 90.3202H118.111V98.1345H124.151V90.3202Z" fill="var(--fill-0, #6C63FF)"/>
<path id="Vector_25" opacity="0.1" d="M124.15 112.515C124.21 112.515 124.27 112.515 124.329 112.525H124.15V114.341H118.111V106.518H124.15V112.515Z" fill="var(--fill-0, #6C63FF)"/>
<path id="Vector_26" opacity="0.1" d="M124.15 122.712V128.748C122.131 128.577 120.118 128.346 118.111 128.052V122.712H124.15Z" fill="var(--fill-0, #6C63FF)"/>
<path id="Vector_27" opacity="0.1" d="M94.078 84.6575H68.192V85.2316H94.078V84.6575Z" fill="var(--fill-0, #6C63FF)"/>
<path id="Vector_28" opacity="0.1" d="M94.078 85.9953H68.192V88.1953H94.078V85.9953Z" fill="var(--fill-0, #6C63FF)"/>
<path id="Vector_29" opacity="0.1" d="M94.078 95.4069H68.192V98.9447H94.078V95.4069Z" fill="var(--fill-0, #6C63FF)"/>
<path id="Vector_30" opacity="0.1" d="M94.0762 106.156V109.694H73.8289C72.9498 109.024 72.0813 108.336 71.2237 107.63C70.6306 107.142 70.0429 106.641 69.4444 106.156H94.0762Z" fill="var(--fill-0, #6C63FF)"/>
<path id="Vector_31" opacity="0.1" d="M94.0762 116.904V120.438H91.9385C89.5364 119.357 87.1813 118.177 84.8735 116.899L94.0762 116.904Z" fill="var(--fill-0, #6C63FF)"/>
<path id="Vector_32" opacity="0.1" d="M144.108 62.8868H139.012V67.9735H144.108V62.8868Z" fill="var(--fill-0, #6C63FF)"/>
<path id="Vector_33" opacity="0.1" d="M33.7735 39.1862H28.6776V44.2729H33.7735V39.1862Z" fill="var(--fill-0, #6C63FF)"/>
<path id="Vector_34" opacity="0.1" d="M33.7735 51.0016H28.6776V56.0884H33.7735V51.0016Z" fill="var(--fill-0, #6C63FF)"/>
<path id="Vector_35" opacity="0.1" d="M33.7735 62.817H28.6776V67.9038H33.7735V62.817Z" fill="var(--fill-0, #6C63FF)"/>
<path id="Vector_36" opacity="0.1" d="M33.7735 74.6307H28.6776V79.7174H33.7735V74.6307Z" fill="var(--fill-0, #6C63FF)"/>
<path id="Vector_37" opacity="0.1" d="M33.7735 86.4461H28.6776V91.5328H33.7735V86.4461Z" fill="var(--fill-0, #6C63FF)"/>
<path id="Vector_38" opacity="0.1" d="M33.7735 98.2615H28.6776V103.348H33.7735V98.2615Z" fill="var(--fill-0, #6C63FF)"/>
<path id="Vector_39" opacity="0.1" d="M163.562 62.8868H158.466V67.9735H163.562V62.8868Z" fill="var(--fill-0, #6C63FF)"/>
<path id="Vector_40" opacity="0.1" d="M144.108 75.4337H139.012V80.5205H144.108V75.4337Z" fill="var(--fill-0, #6C63FF)"/>
<path id="Vector_41" opacity="0.1" d="M163.562 75.4337H158.466V80.5205H163.562V75.4337Z" fill="var(--fill-0, #6C63FF)"/>
<path id="Vector_42" opacity="0.1" d="M144.108 87.9789H139.012V93.0656H144.108V87.9789Z" fill="var(--fill-0, #6C63FF)"/>
<path id="Vector_43" opacity="0.1" d="M163.562 87.9789H158.466V93.0656H163.562V87.9789Z" fill="var(--fill-0, #6C63FF)"/>
<path id="Vector_44" opacity="0.1" d="M144.108 100.526H139.012V105.613H144.108V100.526Z" fill="var(--fill-0, #6C63FF)"/>
<path id="Vector_45" opacity="0.1" d="M163.562 100.526H158.466V105.613H163.562V100.526Z" fill="var(--fill-0, #6C63FF)"/>
<path id="Vector_46" opacity="0.1" d="M144.108 113.073H139.012V118.16H144.108V113.073Z" fill="var(--fill-0, #6C63FF)"/>
<path id="Vector_47" opacity="0.1" d="M163.562 113.073H158.466V118.16H163.562V113.073Z" fill="var(--fill-0, #6C63FF)"/>
<path id="Vector_48" opacity="0.1" d="M139.012 128.898V125.618H144.107V128.431L139.012 128.898Z" fill="var(--fill-0, #6C63FF)"/>
<path id="Vector_49" opacity="0.1" d="M3.22522 53.3661V56.2762H20.6647V53.3661H3.22522ZM4.96326 56.0937H3.54058V53.545H4.97401L4.96326 56.0937ZM6.6995 56.0937H5.26607V53.545H6.6995V56.0937ZM8.43217 56.0937H6.99873V53.545H8.43217V56.0937ZM10.1684 56.0937H8.73677V53.545H10.1702L10.1684 56.0937ZM11.9029 56.0937H10.4694V53.545H11.9029V56.0937ZM13.6391 56.0937H12.2057V53.545H13.6391V56.0937ZM15.3754 56.0937H13.9419V53.545H15.3754V56.0937ZM17.1098 56.0937H15.6764V53.545H17.1098V56.0937ZM18.8443 56.0937H17.4108V53.545H18.8443V56.0937ZM20.5787 56.0937H19.1453V53.545H20.5787V56.0937Z" fill="var(--fill-0, #6C63FF)"/>
<path id="Vector_50" opacity="0.1" d="M3.22522 61.8333V64.7433H20.6647V61.8333H3.22522ZM4.96326 64.5591H3.54058V62.0175H4.97401L4.96326 64.5591ZM6.6995 64.5591H5.26607V62.0175H6.6995V64.5591ZM8.43217 64.5591H6.99873V62.0175H8.43217V64.5591ZM10.1684 64.5591H8.73677V62.0175H10.1702L10.1684 64.5591ZM11.9029 64.5591H10.4694V62.0175H11.9029V64.5591ZM13.6391 64.5591H12.2057V62.0175H13.6391V64.5591ZM15.3754 64.5591H13.9419V62.0175H15.3754V64.5591ZM17.1098 64.5591H15.6764V62.0175H17.1098V64.5591ZM18.8443 64.5591H17.4108V62.0175H18.8443V64.5591ZM20.5787 64.5591H19.1453V62.0175H20.5787V64.5591Z" fill="var(--fill-0, #6C63FF)"/>
<path id="Vector_51" opacity="0.1" d="M3.22522 70.3041V73.2195H20.6647V70.3041H3.22522ZM4.96326 73.0299H3.54058V70.4865H4.97401L4.96326 73.0299ZM6.6995 73.0299H5.26607V70.4865H6.6995V73.0299ZM8.43217 73.0299H6.99873V70.4865H8.43217V73.0299ZM10.1684 73.0299H8.73677V70.4865H10.1702L10.1684 73.0299ZM11.9029 73.0299H10.4694V70.4865H11.9029V73.0299ZM13.6391 73.0299H12.2057V70.4865H13.6391V73.0299ZM15.3754 73.0299H13.9419V70.4865H15.3754V73.0299ZM17.1098 73.0299H15.6764V70.4865H17.1098V73.0299ZM18.8443 73.0299H17.4108V70.4865H18.8443V73.0299ZM20.5787 73.0299H19.1453V70.4865H20.5787V73.0299Z" fill="var(--fill-0, #6C63FF)"/>
<path id="Vector_52" opacity="0.1" d="M3.22522 78.7748V81.6813H20.6647V78.7748H3.22522ZM4.96326 81.5006H3.54058V78.9555H4.97401L4.96326 81.5006ZM6.6995 81.5006H5.26607V78.9555H6.6995V81.5006ZM8.43217 81.5006H6.99873V78.9555H8.43217V81.5006ZM10.1684 81.5006H8.73677V78.9555H10.1702L10.1684 81.5006ZM11.9029 81.5006H10.4694V78.9555H11.9029V81.5006ZM13.6391 81.5006H12.2057V78.9555H13.6391V81.5006ZM15.3754 81.5006H13.9419V78.9555H15.3754V81.5006ZM17.1098 81.5006H15.6764V78.9555H17.1098V81.5006ZM18.8443 81.5006H17.4108V78.9555H18.8443V81.5006ZM20.5787 81.5006H19.1453V78.9555H20.5787V81.5006Z" fill="var(--fill-0, #6C63FF)"/>
<path id="Vector_53" opacity="0.1" d="M3.30048 87.2438C3.37036 87.5174 3.4492 87.7911 3.53162 88.0612V87.4262H4.96505V89.9696H4.19816C4.22146 90.0286 4.24475 90.093 4.26804 90.1485H20.6647V87.2438H3.30048ZM6.70488 89.9696H5.27145V87.4262H6.70488V89.9696ZM8.43754 89.9696H7.00411V87.4262H8.43754V89.9696ZM10.1738 89.9696H8.73677V87.4262H10.1702L10.1738 89.9696ZM11.9082 89.9696H10.4748V87.4262H11.9082V89.9696ZM13.6445 89.9696H12.2111V87.4262H13.6445V89.9696ZM15.3807 89.9696H13.9473V87.4262H15.3807V89.9696ZM17.1152 89.9696H15.6817V87.4262H17.1152V89.9696ZM18.8496 89.9696H17.4162V87.4262H18.8496V89.9696ZM20.5841 89.9696H19.1507V87.4262H20.5841V89.9696Z" fill="var(--fill-0, #6C63FF)"/>
<path id="Vector_54" opacity="0.1" d="M7.34992 95.7145C7.39472 95.7718 7.43772 95.8362 7.48431 95.8934H8.43217V97.115C8.5343 97.2366 8.63464 97.3583 8.73856 97.4727V95.8862H10.172V98.4386H9.59145C9.64879 98.4976 9.70434 98.5602 9.77063 98.6174H20.6701V95.7145H7.34992ZM11.9029 98.4386H10.4694V95.897H11.9029V98.4386ZM13.6391 98.4386H12.2057V95.897H13.6391V98.4386ZM15.3754 98.4386H13.9419V95.897H15.3754V98.4386ZM17.1098 98.4386H15.6764V95.897H17.1098V98.4386ZM18.8443 98.4386H17.4108V95.897H18.8443V98.4386ZM20.5787 98.4386H19.1453V95.897H20.5787V98.4386Z" fill="var(--fill-0, #6C63FF)"/>
<path id="Vector_55" opacity="0.1" d="M16.9163 104.184C17.0793 104.277 17.246 104.362 17.4144 104.455V104.366H18.8478V105.171L19.1524 105.312V104.366H20.5859V105.913C20.6134 105.927 20.6422 105.938 20.6719 105.945V104.184H16.9163Z" fill="var(--fill-0, #6C63FF)"/>
<path id="Vector_56" opacity="0.1" d="M112.634 85.6537C112.668 85.7682 112.696 85.8827 112.729 85.9954C112.7 85.8827 112.67 85.7682 112.634 85.6537ZM26.9629 32.9369V33.7006H34.9668V32.9369H26.9629ZM112.634 85.6537C112.668 85.7682 112.696 85.8827 112.729 85.9954C112.7 85.8827 112.67 85.7682 112.634 85.6537ZM112.634 85.6537C112.668 85.7682 112.696 85.8827 112.729 85.9954C112.7 85.8827 112.67 85.7682 112.634 85.6537Z" fill="var(--fill-0, #6C63FF)"/>
<path id="Vector_57" d="M82.709 67.9073C82.709 67.9073 82.0031 67.809 82.0031 66.7823C82.0031 65.7557 81.4978 63.8383 81.4978 63.8383C81.4978 63.8294 81.0606 60.499 80.4568 59.9696C79.8529 59.4402 79.0771 56.3316 79.0771 56.3316C79.0771 56.3316 78.9445 54.645 78.6739 54.2819C78.4034 53.9188 78.0378 53.0299 77.4985 51.7618C76.9592 50.4937 74.7105 49.6155 74.7105 49.6155C74.7105 49.6155 70.6449 47.2617 69.4928 46.4944C69.3881 46.4313 69.2902 46.3576 69.2007 46.2744C69.0001 46.0114 68.1257 46.0061 68.1257 46.0061C68.0343 45.4302 67.9465 44.7684 67.9178 44.1692C67.9178 44.1048 67.9178 44.0404 67.9088 43.976C69.1935 43.218 70.1612 42.0228 70.6342 40.6099C70.6557 40.5419 70.6736 40.4704 70.6933 40.4024C70.7703 40.3771 70.8411 40.3361 70.9013 40.2818C70.9614 40.2276 71.0096 40.1615 71.0427 40.0876C71.1466 39.8569 71.1484 39.5868 71.2774 39.3722C71.4279 39.1182 71.7146 38.9823 71.9404 38.7909C72.5102 38.308 72.6571 37.4942 72.6302 36.7537C72.6123 36.1545 72.5155 35.55 72.5532 34.9544L72.5639 34.8041C72.5747 34.7147 72.5872 34.6253 72.6033 34.5394C72.6911 34.0959 72.8829 33.6773 72.9904 33.2373C73.0979 32.7974 73.1086 32.3019 72.8578 31.9227C72.4905 31.3665 71.7254 31.2556 71.0534 31.1984C70.2919 31.134 69.611 31.218 69.1237 30.5867C68.8956 30.2567 68.639 29.9473 68.3568 29.662C68.2565 29.569 67.2817 28.9751 67.2817 28.9358C66.3304 28.496 65.252 28.4134 64.2446 28.7033C63.7394 28.8499 63.2627 29.0896 62.7503 29.2094C61.6448 29.4706 60.3726 29.188 59.4337 29.8194C58.9105 30.1771 58.5969 30.7458 58.3031 31.3003C58.0642 31.757 57.8217 32.2131 57.5756 32.6686C57.1796 33.418 56.7765 34.1799 56.6098 35.0098C56.5748 35.1904 56.5532 35.3734 56.5453 35.5571V35.5661C56.5453 35.6323 56.5453 35.6984 56.5453 35.7646V35.8487C56.5453 35.9113 56.5453 35.9721 56.5561 36.0275C56.5668 36.083 56.565 36.1009 56.5704 36.1384C56.5758 36.176 56.5847 36.2601 56.5955 36.3173C56.6062 36.3745 56.6277 36.4747 56.6492 36.5534C56.6582 36.5874 56.6707 36.6196 56.6815 36.6518C56.6994 36.7126 56.7209 36.7716 56.7442 36.8306C56.7567 36.861 56.7693 36.8932 56.7836 36.9236C56.8105 36.9862 56.8428 37.047 56.875 37.1025C56.8893 37.1275 56.9001 37.1508 56.9144 37.174C56.9644 37.2572 57.0195 37.3372 57.0793 37.4137C57.4627 37.8913 58.0271 38.1953 58.4446 38.6425C58.4446 38.6603 58.4446 38.6782 58.4446 38.6943C58.4446 38.7444 58.4446 38.7927 58.4446 38.8428C58.4668 39.84 58.7327 40.8167 59.2192 41.688C59.7057 42.5593 60.3981 43.2987 61.2362 43.8419C61.2362 43.9099 61.2452 43.9796 61.2488 44.0476C61.2837 44.5785 61.2771 45.1113 61.2291 45.6412C61.1561 45.5554 61.0648 45.4871 60.9618 45.4413C60.8588 45.3955 60.7469 45.3733 60.6342 45.3765C60.5572 45.3727 60.48 45.3794 60.4048 45.3962L60.3887 45.3837V45.3997C59.9945 45.4963 59.5089 45.9059 59.0449 47.0703C59.0449 47.0703 57.6329 48.6586 56.5579 48.5924C55.4828 48.5262 52.7611 50.245 52.7611 50.245C52.7611 50.245 50.1056 51.9657 49.5358 53.7185C49.2173 54.7124 48.8355 55.685 48.3927 56.6303L45.1101 63.3822L44.5045 68.739C44.5045 68.739 44.8396 71.1214 44.7733 71.4845C44.707 71.8476 46.1511 75.1225 46.1511 75.1225C46.1511 75.1225 50.9227 83.4913 52.8721 83.9206L53.0119 83.8222C53.0953 83.8657 53.1838 83.8987 53.2753 83.9206L53.6767 83.638C53.7008 83.953 53.6906 84.2696 53.6462 84.5824C53.3774 85.4087 53.7465 90.8013 54.216 91.8583C54.6854 92.9154 54.5188 106.775 54.5188 106.775L54.4525 107.999C54.4525 107.999 54.4525 108.038 54.4686 108.106L54.4525 108.396L54.5009 108.421C54.5511 108.809 54.5348 109.202 54.4525 109.585C54.2841 110.122 54.216 111.638 54.216 111.638C54.216 111.638 52.8739 120.202 53.51 121.923C54.1461 123.643 54.6872 125.529 54.6872 125.529C54.6872 125.529 55.3592 127.675 54.7195 128.041C54.0798 128.408 52.2611 129.023 52.6356 129.918C52.9761 130.744 54.268 132.958 54.4597 133.282L54.4435 133.452L54.1802 136.301C54.2228 136.677 54.325 137.044 54.483 137.389C54.7714 138.009 55.3323 138.653 56.3984 138.583C56.5776 138.571 56.7854 138.549 56.9861 138.523C58.9374 138.261 61.3401 137.392 61.3401 137.392C61.2154 137.313 61.101 137.219 60.9997 137.111C60.9038 137.019 60.8278 136.907 60.7764 136.784C60.7249 136.661 60.6991 136.529 60.7005 136.396C60.7291 135.877 59.7562 133.405 59.5143 132.797C59.4767 132.71 59.457 132.66 59.457 132.66C59.457 132.66 61.6752 130.345 61.3061 128.294C61.3061 128.294 58.8514 126.863 59.6595 126.078C60.4675 125.292 61.9117 123.037 61.9117 123.037C61.9117 123.037 61.978 114.604 61.9117 113.345C61.8426 112.471 61.8841 111.592 62.0354 110.728C62.0622 110.597 62.0945 110.47 62.1285 110.345C63.2461 110.512 64.3743 110.597 65.5043 110.601C65.9164 110.601 66.3357 110.601 66.7585 110.576C66.7585 110.695 66.7639 110.824 66.7746 110.962C66.8678 113.051 67.0416 116.714 67.1832 118.075C67.3839 120.027 68.493 125.285 68.493 125.285C68.493 125.285 66.3769 126.641 68.8621 129.982C68.8621 129.982 68.8621 131.193 68.6972 131.368C68.5213 131.941 68.3794 132.524 68.2726 133.114C68.1687 133.744 68.1257 134.38 68.2941 134.711C68.6972 135.502 71.1162 135.437 71.1162 135.437L71.1753 135.427C71.6319 135.379 72.0934 135.423 72.533 135.556C72.9725 135.688 73.3813 135.906 73.7358 136.197C74.6549 136.934 78.1436 136.611 80.0321 136.376C80.7721 136.283 81.2666 136.197 81.2666 136.197C81.2906 136.114 81.2991 136.027 81.2917 135.94C81.272 135.477 80.9083 134.461 78.4428 133.554C78.4428 133.554 76.1242 131.998 76.1565 130.642H76.1081H75.8393C76.0346 130.631 76.16 130.642 76.16 130.642C76.16 130.642 75.2516 127.333 75.6225 127.065C75.9934 126.797 74.8825 123.13 74.8825 123.13C74.8825 123.13 74.2464 116.977 74.2124 116.546C74.2138 116.176 74.2699 115.809 74.379 115.455L74.2124 112.082C74.2124 112.082 74.1801 110.96 74.2124 110.596C74.2069 110.279 74.1812 109.963 74.1353 109.649C74.1192 109.524 74.1031 109.394 74.0851 109.265C74.9542 109.045 75.5186 108.841 75.5186 108.841L75.4182 97.0989C76.1565 95.668 76.2926 92.5291 76.2891 90.3023C76.2891 88.8714 76.2245 87.8126 76.2245 87.8126L77.2333 86.1688C77.2333 86.1688 77.4663 84.2014 77.0971 83.7703C76.9341 83.5754 77.0076 83.3733 77.1419 83.2069C77.2117 83.1517 77.2854 83.1015 77.3623 83.0567C77.3623 83.0567 77.3516 83.0406 77.339 83.0174C77.4095 82.9586 77.4844 82.9054 77.563 82.8582C77.563 82.8582 77.2047 82.3037 77.5254 82.0694C77.8264 82.2733 78.0952 82.4271 78.2994 82.5523C78.2851 82.6829 78.2708 82.758 78.2708 82.758L78.3568 82.5791C78.5539 82.69 78.6739 82.758 78.6739 82.758C78.6739 82.758 80.2543 79.6155 80.2202 79.1522C80.1862 78.689 81.2953 76.7376 81.2953 76.7376C81.2953 76.7376 81.4297 75.7128 82.0353 75.2835C82.6409 74.8542 82.5048 71.7439 82.5048 71.7439C82.5048 71.7439 82.6732 70.1234 83.0764 69.4616C83.4795 68.7999 82.709 67.9073 82.709 67.9073ZM52.4708 66.5283L52.5012 67.2778C52.3221 66.9898 52.1931 66.7823 52.1931 66.7823L52.4708 66.5283Z" fill="url(#paint0_linear_0_60)"/>
<path id="Vector_58" d="M78.7599 81.4005L78.3729 83.046C78.3729 83.046 75.2731 81.4666 74.7141 79.4598C74.155 77.453 75.6494 76.6911 75.6494 76.6911L78.5378 77.9127L78.7599 81.4005Z" fill="var(--fill-0, white)"/>
<path id="Vector_59" opacity="0.1" d="M78.7599 81.4005L78.3729 83.046C78.3729 83.046 75.2731 81.4666 74.7141 79.4598C74.155 77.453 75.6494 76.6911 75.6494 76.6911L78.5378 77.9127L78.7599 81.4005Z" fill="var(--fill-0, black)"/>
<path id="Vector_60" d="M61.3634 137.403C61.3634 137.403 58.4966 138.455 56.5256 138.587C55.4792 138.657 54.9291 138.016 54.646 137.399C54.4914 137.056 54.3916 136.691 54.3504 136.317L54.6066 133.482L54.7428 131.973L58.9302 130.887L59.5233 132.697L59.5788 132.835C59.8171 133.439 60.7722 135.899 60.7435 136.412C60.7423 136.544 60.7677 136.674 60.8182 136.795C60.8687 136.917 60.9433 137.027 61.0373 137.119C61.1335 137.227 61.2431 137.322 61.3634 137.403Z" fill="var(--fill-0, white)"/>
<path id="Vector_61" d="M80.9459 135.961C80.9531 136.047 80.9446 136.134 80.9208 136.217C80.9208 136.217 74.7893 137.238 73.5351 136.217C73.1815 135.919 72.7692 135.698 72.3249 135.568C71.8806 135.438 71.4139 135.402 70.9549 135.462C70.9549 135.462 68.5826 135.527 68.1866 134.747C68.0217 134.42 68.0647 133.785 68.1669 133.159C68.2711 132.572 68.4099 131.992 68.5826 131.422L68.6775 131.347L69.2419 130.894L75.8501 130.699H75.9002C75.868 132.048 78.1436 133.595 78.1436 133.595C80.5607 134.489 80.9173 135.5 80.9459 135.961Z" fill="var(--fill-0, white)"/>
<path id="Vector_62" opacity="0.1" d="M80.9459 135.961C80.9522 136.048 80.9431 136.134 80.919 136.217C80.919 136.217 74.7893 137.238 73.5351 136.217C73.1817 135.919 72.7698 135.698 72.3257 135.568C71.8817 135.438 71.4154 135.402 70.9567 135.462C70.9567 135.462 68.5826 135.527 68.1884 134.747C68.0235 134.418 68.0647 133.785 68.1669 133.159C69.0807 133.25 70.5231 133.477 71.0893 134.019C71.9458 134.843 73.3971 135.666 74.2876 135.731C74.9846 135.775 79.1541 135.908 80.9459 135.961Z" fill="var(--fill-0, black)"/>
<path id="Vector_63" opacity="0.1" d="M61.3634 137.403C61.3634 137.403 58.4966 138.455 56.5256 138.587C55.4792 138.657 54.9291 138.016 54.6478 137.398C55.3771 137.643 56.3894 137.9 56.9216 137.664C57.5523 137.385 59.7885 137.204 61.0427 137.128C61.1382 137.232 61.2459 137.324 61.3634 137.403Z" fill="var(--fill-0, black)"/>
<path id="Vector_64" d="M65.6171 52.6507C63.252 51.7331 60.2095 48.7015 60.9692 47.2849C61.138 46.9275 61.2382 46.5416 61.2649 46.1474C61.3138 45.6122 61.321 45.074 61.2864 44.5377C61.2331 43.6593 61.1272 42.7849 60.9692 41.9192C60.9692 41.9192 68.3532 42.0855 67.9232 43.1712C67.7978 43.4895 67.778 44.0422 67.8121 44.6611C67.8461 45.2799 67.9357 45.9793 68.0289 46.5713C68.1579 47.3833 68.2869 48.0021 68.2869 48.0021C68.2869 48.0021 67.8354 48.6335 67.5702 48.6675C67.305 48.7015 69.0108 53.9581 65.6171 52.6507Z" fill="var(--fill-0, #CF6F80)"/>
<path id="Vector_65" opacity="0.1" d="M59.5734 132.835L59.5179 132.896C57.3104 130.231 54.6406 133.552 54.6406 133.552L54.6012 133.482L54.7374 131.973L58.9248 130.887L59.5179 132.697L59.5734 132.835Z" fill="var(--fill-0, black)"/>
<path id="Vector_66" opacity="0.1" d="M75.902 130.887C75.902 130.887 74.2894 130.853 73.4294 131.612C72.5693 132.37 68.4123 131.776 68.5915 131.612C68.6446 131.53 68.6766 131.437 68.6847 131.34L69.2491 130.887L75.8572 130.692C75.8823 130.812 75.902 130.887 75.902 130.887Z" fill="var(--fill-0, black)"/>
<path id="Vector_67" d="M62.3203 109.959C62.2002 110.255 62.1089 110.563 62.0479 110.876C61.8985 111.736 61.857 112.611 61.9243 113.481C61.9906 114.733 61.9243 123.123 61.9243 123.123C61.9243 123.123 60.507 125.36 59.7168 126.149C58.9266 126.938 61.3294 128.354 61.3294 128.354C61.6878 130.393 59.5161 132.697 59.5161 132.697C57.3086 130.032 54.6389 133.355 54.6389 133.355C54.6389 133.355 53.1875 130.851 52.8256 129.957C52.4636 129.063 54.2429 128.444 54.8682 128.081C55.4935 127.718 54.8377 125.577 54.8377 125.577C54.8377 125.577 54.3092 123.701 53.682 121.989C53.0549 120.277 54.3737 111.756 54.3737 111.756C54.3737 111.756 54.4418 110.243 54.6048 109.716C54.6871 109.335 54.7034 108.943 54.6532 108.557C54.6424 108.426 54.6299 108.317 54.6209 108.244C54.612 108.17 54.6048 108.136 54.6048 108.136L54.6299 108.093L55.5258 106.426C55.5258 106.426 62.7503 108.909 62.3203 109.959Z" fill="var(--fill-0, #FD527B)"/>
<path id="Vector_68" d="M75.902 130.69C75.902 130.69 74.2894 130.656 73.4294 131.406C72.5693 132.155 68.4123 131.57 68.5915 131.406C68.7707 131.241 68.7564 130.023 68.7564 130.023C66.3177 126.7 68.398 125.351 68.398 125.351C68.398 125.351 67.3086 120.12 67.1115 118.179C66.9735 116.823 66.8033 113.18 66.7119 111.1C66.6725 110.206 66.6492 109.59 66.6492 109.59L68.6417 109.19L68.8979 109.138L73.7035 108.176C73.7035 108.176 73.8361 109.07 73.9257 109.801C73.9704 110.114 73.9955 110.429 74.0009 110.744C73.9687 111.102 74.0009 112.221 74.0009 112.221L74.164 115.579C74.0575 115.931 74.0025 116.296 74.0009 116.664C74.0332 117.092 74.6585 123.212 74.6585 123.212C74.6585 123.212 75.7461 126.865 75.3752 127.128C75.0043 127.39 75.902 130.69 75.902 130.69Z" fill="var(--fill-0, #FD527B)"/>
<path id="Vector_69" opacity="0.1" d="M67.9232 43.1712C67.7978 43.4895 67.7781 44.0422 67.8121 44.6611C66.823 45.2556 65.686 45.5596 64.5317 45.538C63.3774 45.5165 62.2525 45.1704 61.2864 44.5394C61.2332 43.6605 61.1273 42.7855 60.9692 41.9192C60.9692 41.9192 68.3532 42.0819 67.9232 43.1712Z" fill="var(--fill-0, black)"/>
<path id="Vector_70" d="M70.7775 39.2184C70.7789 39.8629 70.6773 40.5035 70.4765 41.1161C70.0276 42.4886 69.107 43.6585 67.8776 44.419C66.6482 45.1795 65.1889 45.4817 63.7579 45.2722C62.3268 45.0627 61.016 44.3548 60.0572 43.2739C59.0983 42.1929 58.5532 40.8084 58.5181 39.365C58.5181 39.315 58.5181 39.2685 58.5181 39.2184C58.5042 38.4059 58.6525 37.5989 58.9543 36.8442C59.2561 36.0896 59.7055 35.4025 60.2762 34.823C60.8468 34.2436 61.5274 33.7833 62.2781 33.4692C63.0288 33.155 63.8347 32.9932 64.6487 32.9932C65.4627 32.9932 66.2686 33.155 67.0193 33.4692C67.77 33.7833 68.4506 34.2436 69.0212 34.823C69.5919 35.4025 70.0412 36.0896 70.3431 36.8442C70.6449 37.5989 70.7932 38.4059 70.7793 39.2184H70.7775Z" fill="var(--fill-0, #CF6F80)"/>
<path id="Vector_71" opacity="0.1" d="M65.6171 52.6507C63.252 51.7331 60.2095 48.7015 60.9692 47.2849C61.138 46.9275 61.2382 46.5416 61.2649 46.1474L64.5027 48.8034L66.5059 50.4436L68.0289 46.5731C68.1579 47.3851 68.2869 48.0039 68.2869 48.0039C68.2869 48.0039 67.8354 48.6353 67.5702 48.6693C67.305 48.7033 69.0108 53.9581 65.6171 52.6507Z" fill="var(--fill-0, black)"/>
<path id="Vector_72" d="M73.9902 64.3892L71.2864 109.73L67.7601 109.961L58.6292 83.6702L60.1271 52.4575L60.4425 45.863L64.5027 49.1916L66.5077 50.8317L68.0755 46.8485L70.9907 49.3847L73.9902 64.3892Z" fill="var(--fill-0, #FD527B)"/>
<path id="Vector_73" opacity="0.1" d="M62.3203 109.959C62.2002 110.255 62.109 110.563 62.0479 110.876C59.482 110.481 56.99 109.704 54.655 108.571L54.6066 108.546L54.6227 108.258L54.6317 108.108L55.5276 106.441C55.5276 106.441 62.7503 108.909 62.3203 109.959Z" fill="var(--fill-0, black)"/>
<path id="Vector_74" opacity="0.1" d="M68.6829 110.884C68.027 110.995 67.3654 111.07 66.7012 111.109C66.6618 110.215 66.6385 109.599 66.6385 109.599L68.6309 109.199L68.6829 110.884Z" fill="var(--fill-0, black)"/>
<path id="Vector_75" opacity="0.1" d="M73.9149 109.81C72.641 110.141 70.6736 110.513 68.9123 110.281L68.8872 109.147L73.6928 108.185C73.6928 108.185 73.8254 109.07 73.9149 109.81Z" fill="var(--fill-0, black)"/>
<path id="Vector_76" opacity="0.1" d="M68.88 110.488C61.5337 111.74 54.8055 108.151 54.8055 108.151L54.87 106.934C54.87 106.934 55.0366 93.1461 54.5743 92.0891C54.1121 91.032 53.7519 85.6716 54.0135 84.8489C54.2751 84.0261 53.0585 71.6884 53.0585 71.6884L52.8614 66.6804L45.6476 63.7632L48.8729 57.0524C49.3085 56.1115 49.6832 55.1437 49.9945 54.1549C50.5554 52.4128 53.1588 50.7011 53.1588 50.7011C53.1588 50.7011 55.8286 48.9912 56.884 49.0556C57.9393 49.12 59.3226 47.5425 59.3226 47.5425C60.3439 44.9437 61.2685 46.1206 61.2685 46.1206C61.2685 46.244 61.2685 46.1206 61.2183 46.5051C60.8599 49.3579 67.013 58.3724 67.1008 58.5316L67.6867 72.7795L68.2798 90.8102L68.88 110.488Z" fill="var(--fill-0, black)"/>
<path id="Vector_77" d="M68.6829 110.488C61.3366 111.74 54.6066 108.151 54.6066 108.151L54.6729 106.934C54.6729 106.934 54.8395 93.1461 54.3755 92.0891C53.9114 91.032 53.553 85.6716 53.8164 84.8489C54.0798 84.0261 52.8614 71.6884 52.8614 71.6884L52.6625 66.6804L45.4452 63.7525L48.6704 57.0417C49.1051 56.1004 49.4797 55.1326 49.7921 54.1442C50.3511 52.4021 52.9564 50.6904 52.9564 50.6904C52.9564 50.6904 55.6261 48.9805 56.6797 49.0449C57.7333 49.1093 59.1183 47.5318 59.1183 47.5318C60.1414 44.9329 61.2685 46.1098 61.2685 46.1098C61.2685 46.2332 61.161 46.2887 61.2183 46.4944C62.0067 49.2613 66.8159 58.3617 66.9037 58.5208L67.4967 72.7687L68.0898 90.7995L68.6829 110.488Z" fill="var(--fill-0, white)"/>
<path id="Vector_78" opacity="0.1" d="M66.703 58.9268C65.9128 58.5977 61.7272 53.8276 61.7272 53.8276V52.7419C61.5749 52.3842 60.67 52.6024 59.9354 52.8528L60.2507 46.2583L60.6091 46.5552C61.3939 49.3203 66.6116 58.7677 66.703 58.9268Z" fill="var(--fill-0, black)"/>
<path id="Vector_79" d="M66.9019 58.5316C66.1099 58.2025 61.9243 53.4323 61.9243 53.4323V52.3466C61.772 51.9889 60.8671 52.2071 60.1325 52.4575L60.4496 45.863L60.808 46.1599C61.5946 48.9251 66.8141 58.3742 66.9019 58.5316Z" fill="var(--fill-0, white)"/>
<path id="Vector_80" opacity="0.1" d="M54.8055 82.3216C54.904 82.3216 59.9139 81.7957 59.9139 81.7957C59.9139 81.7957 62.9474 87.75 62.7485 89.1987C62.5496 90.6475 62.1895 91.9299 60.9693 91.7027C59.749 91.4756 54.4023 91.8816 54.4023 91.8816L54.8055 82.3216Z" fill="var(--fill-0, black)"/>
<path id="Vector_81" d="M54.6066 81.9263C54.7052 81.9263 59.715 81.4005 59.715 81.4005C59.715 81.4005 62.7467 87.3565 62.5496 88.8034C62.3525 90.2504 61.9888 91.5346 60.7704 91.3075C59.5519 91.0803 54.2034 91.4863 54.2034 91.4863L54.6066 81.9263Z" fill="var(--fill-0, white)"/>
<path id="Vector_82" d="M58.3819 79.1307C58.3819 79.1307 62.9796 81.5972 63.0782 82.3502C63.1767 83.1032 60.7381 82.0211 60.2113 81.8905C59.8646 81.8071 59.5116 81.7521 59.156 81.726L55.6423 81.8208L58.3819 79.1307Z" fill="var(--fill-0, #CF6F80)"/>
<path id="Vector_83" opacity="0.1" d="M65.4201 59.2345C65.6872 59.2345 65.9038 59.0183 65.9038 58.7516C65.9038 58.4849 65.6872 58.2686 65.4201 58.2686C65.1529 58.2686 64.9363 58.4849 64.9363 58.7516C64.9363 59.0183 65.1529 59.2345 65.4201 59.2345Z" fill="var(--fill-0, black)"/>
<path id="Vector_84" d="M65.4201 59.0377C65.6872 59.0377 65.9038 58.8215 65.9038 58.5548C65.9038 58.2881 65.6872 58.0719 65.4201 58.0719C65.1529 58.0719 64.9363 58.2881 64.9363 58.5548C64.9363 58.8215 65.1529 59.0377 65.4201 59.0377Z" fill="var(--fill-0, #3F3D56)"/>
<path id="Vector_85" opacity="0.1" d="M66.3106 80.1395C66.5778 80.1395 66.7944 79.9233 66.7944 79.6566C66.7944 79.3899 66.5778 79.1737 66.3106 79.1737C66.0434 79.1737 65.8268 79.3899 65.8268 79.6566C65.8268 79.9233 66.0434 80.1395 66.3106 80.1395Z" fill="var(--fill-0, black)"/>
<path id="Vector_86" d="M66.3106 79.941C66.5778 79.941 66.7944 79.7248 66.7944 79.4581C66.7944 79.1913 66.5778 78.9751 66.3106 78.9751C66.0434 78.9751 65.8268 79.1913 65.8268 79.4581C65.8268 79.7248 66.0434 79.941 66.3106 79.941Z" fill="var(--fill-0, #3F3D56)"/>
<path id="Vector_87" opacity="0.1" d="M65.902 69.687C66.1692 69.687 66.3858 69.4708 66.3858 69.2041C66.3858 68.9374 66.1692 68.7212 65.902 68.7212C65.6349 68.7212 65.4183 68.9374 65.4183 69.2041C65.4183 69.4708 65.6349 69.687 65.902 69.687Z" fill="var(--fill-0, black)"/>
<path id="Vector_88" d="M65.902 69.4903C66.1692 69.4903 66.3858 69.274 66.3858 69.0073C66.3858 68.7406 66.1692 68.5244 65.902 68.5244C65.6349 68.5244 65.4183 68.7406 65.4183 69.0073C65.4183 69.274 65.6349 69.4903 65.902 69.4903Z" fill="var(--fill-0, #3F3D56)"/>
<path id="Vector_89" d="M77.0542 81.6258C77.0542 81.6258 77.3838 82.1195 77.0542 82.3502C76.7245 82.5809 77.0864 83.139 77.0864 83.139C77.0864 83.139 76.264 83.6201 76.6259 84.0529C76.9879 84.4858 76.7585 86.4407 76.7585 86.4407L75.7694 88.0755C75.7694 88.0755 75.8286 89.129 75.8322 90.5527C75.8322 92.7741 75.7014 95.897 74.9775 97.3207L75.0778 109.002C75.0778 109.002 71.6143 110.265 68.7152 109.88L68.2851 91.1358C68.2851 91.1358 68.9123 80.5062 69.1434 78.4672C69.2787 77.4086 69.3338 76.3414 69.3082 75.2746C69.3082 75.2746 69.2097 72.0837 68.8782 70.6028C68.8782 70.6028 68.5199 64.1871 68.484 62.411C68.4679 61.5614 68.5127 59.0825 68.5629 56.7251C68.6184 54.1477 68.6811 51.717 68.6811 51.717L68.0271 46.5516C68.0271 46.5516 68.6811 46.4854 68.8782 46.7483C68.9665 46.8307 69.0625 46.9043 69.1649 46.9683C70.2937 47.7303 74.2823 50.0733 74.2823 50.0733C74.2823 50.0733 76.4897 50.9497 77.0183 52.2053C77.5469 53.4609 77.9142 54.3516 78.1704 54.7094C78.4267 55.0671 78.5664 56.7483 78.5664 56.7483C78.5664 56.7483 79.3261 59.8426 79.9192 60.3667C80.5123 60.8907 80.9459 64.2246 80.9459 64.2246L75.7049 68.3384C75.7049 68.3384 75.2444 75.1815 75.1459 75.4463C75.0474 75.711 77.0542 81.6258 77.0542 81.6258Z" fill="var(--fill-0, white)"/>
<path id="Vector_90" d="M77.253 81.6258C77.253 81.6258 77.5809 82.1195 77.253 82.3502C76.9251 82.5809 77.2835 83.139 77.2835 83.139C77.2835 83.139 76.4664 83.6255 76.8248 84.0583C77.1832 84.4911 76.9574 86.4461 76.9574 86.4461L75.9683 88.0809C75.9683 88.0809 76.0275 89.1343 76.0328 90.558C76.0328 92.7795 75.902 95.9024 75.1781 97.3261L75.2767 109.007C75.2767 109.007 71.8078 110.27 68.9123 109.886L68.484 91.1411C68.484 91.1411 69.1111 80.5115 69.3423 78.4725C69.4777 77.414 69.5322 76.3467 69.5053 75.2799C69.5053 75.2799 69.4068 72.0891 69.0771 70.6081C69.0771 70.6081 68.7187 64.1925 68.6811 62.4164C68.665 61.5668 68.7116 59.0878 68.7599 56.7305C68.8155 54.1531 68.8782 51.7224 68.8782 51.7224L68.0146 46.4872C68.0146 46.4872 68.8782 46.4872 69.0771 46.7537C69.1646 46.837 69.2607 46.9108 69.3638 46.9737C70.4926 47.7356 74.4829 50.0787 74.4829 50.0787C74.4829 50.0787 76.6886 50.9551 77.2172 52.2107C77.7458 53.4663 78.1131 54.357 78.3711 54.7147C78.6291 55.0724 78.7653 56.7537 78.7653 56.7537C78.7653 56.7537 79.525 59.848 80.1181 60.372C80.7112 60.8961 81.1394 64.2229 81.1394 64.2229L75.8984 68.3366C75.8984 68.3366 75.438 75.1798 75.3376 75.4445C75.2373 75.7092 77.253 81.6258 77.253 81.6258Z" fill="var(--fill-0, white)"/>
<path id="Vector_91" opacity="0.1" d="M70.9764 53.2409L71.4494 54.6181L68.9588 57.1222C69.0144 54.5466 69.0771 52.1141 69.0771 52.1141L68.2135 46.8789C68.2135 46.8789 69.0771 46.8789 69.276 47.1454C69.3632 47.2285 69.4593 47.3017 69.5627 47.3636L71.6806 53.4627L70.9764 53.2409Z" fill="var(--fill-0, black)"/>
<path id="Vector_92" d="M70.7775 52.8456L71.2523 54.2229L68.7617 56.7269C68.8173 54.1495 68.88 51.7188 68.88 51.7188L68.0146 46.4836C68.0146 46.4836 68.88 46.4836 69.0771 46.7501C69.165 46.8329 69.261 46.9066 69.3638 46.9701L71.4835 53.0674L70.7775 52.8456Z" fill="var(--fill-0, white)"/>
<path id="Vector_93" opacity="0.1" d="M70.7775 39.2184C70.7789 39.8629 70.6773 40.5035 70.4765 41.1161C70.4426 41.1214 70.4081 41.1198 70.3748 41.1115C70.3416 41.1032 70.3104 41.0883 70.283 41.0678C70.2364 39.4581 69.4426 37.9467 68.4661 36.6607C68.1919 36.2724 67.8596 35.9286 67.4806 35.6412C67.0975 35.354 66.621 35.2194 66.1439 35.2638C65.6064 35.3371 65.1316 35.702 64.5887 35.7485C63.8719 35.8075 63.2305 35.3121 62.5191 35.2871C62.23 35.2898 61.9447 35.3541 61.6824 35.4756C61.4201 35.5971 61.1867 35.7731 60.9979 35.9918C60.6242 36.4331 60.3466 36.9472 60.1827 37.5013C59.9009 38.3417 59.7475 39.2196 59.7275 40.1055C59.7186 40.6063 59.6702 41.2341 59.2043 41.4166C59.2394 41.0482 59.1975 40.6767 59.0812 40.3254C58.9649 39.9741 58.7768 39.6507 58.5288 39.3758L58.5181 39.365C58.5181 39.315 58.5181 39.2685 58.5181 39.2184C58.5042 38.4059 58.6525 37.5989 58.9543 36.8442C59.2561 36.0896 59.7055 35.4025 60.2762 34.823C60.8468 34.2436 61.5274 33.7833 62.2781 33.4692C63.0288 33.155 63.8347 32.9932 64.6487 32.9932C65.4627 32.9932 66.2686 33.155 67.0193 33.4692C67.77 33.7833 68.4506 34.2436 69.0212 34.823C69.5919 35.4025 70.0412 36.0896 70.3431 36.8442C70.6449 37.5989 70.7932 38.4059 70.7793 39.2184H70.7775Z" fill="var(--fill-0, black)"/>
<path id="Vector_94" d="M67.1868 29.501C66.2557 29.0638 65.1967 28.9811 64.2088 29.2685C63.7125 29.4151 63.2448 29.653 62.7413 29.7728C61.6663 30.0322 60.412 29.7514 59.4892 30.3792C58.9768 30.7369 58.6686 31.3021 58.3819 31.8512L57.6652 33.2141C57.2746 33.9599 56.8804 34.7183 56.7173 35.5393C56.5543 36.3602 56.6528 37.2796 57.1742 37.9395C57.5541 38.4207 58.1149 38.7229 58.527 39.1755C58.7739 39.4507 58.9612 39.7739 59.0771 40.1247C59.1931 40.4756 59.2352 40.8466 59.2008 41.2144C59.6684 41.0356 59.7132 40.406 59.724 39.9052C59.7439 39.0193 59.8973 38.1414 60.1791 37.301C60.3426 36.7467 60.6203 36.2325 60.9943 35.7914C61.1833 35.5729 61.4166 35.3971 61.6789 35.2756C61.9412 35.1541 62.2264 35.0897 62.5156 35.0867C63.2323 35.1118 63.8755 35.6054 64.5851 35.5464C65.1226 35.5017 65.5992 35.135 66.1404 35.0635C66.6175 35.0184 67.0942 35.153 67.477 35.4409C67.8558 35.7278 68.1877 36.0717 68.4607 36.4604C69.439 37.7464 70.2328 39.2542 70.2794 40.8675C70.4819 41.0159 70.7739 40.8227 70.8743 40.5938C70.9746 40.3649 70.9782 40.0966 71.1054 39.8784C71.2523 39.6262 71.5336 39.492 71.754 39.3024C72.3131 38.8213 72.4528 38.0111 72.4313 37.276C72.4098 36.5409 72.2665 35.795 72.4062 35.0724C72.4905 34.6289 72.6804 34.2139 72.7843 33.7757C72.8882 33.3375 72.9008 32.8456 72.6553 32.4683C72.2969 31.9138 71.5426 31.8047 70.885 31.7528C70.1378 31.6884 69.4695 31.7707 68.9929 31.1429C68.7692 30.8153 68.5174 30.5077 68.2403 30.2236C68.1454 30.1306 67.1868 29.5403 67.1868 29.501Z" fill="var(--fill-0, #512E4E)"/>
<path id="Vector_95" opacity="0.1" d="M47.7118 67.2188L45.8394 63.7632L45.2463 69.095C45.2463 69.095 45.576 71.4631 45.5097 71.8262C45.4434 72.1892 46.8607 75.4445 46.8607 75.4445C46.8607 75.4445 51.5426 83.7686 53.4545 84.1978L59.9139 79.5904L58.2009 77.4191C58.2009 77.4191 57.6079 77.1883 57.4591 77.4191C57.4591 77.4191 54.2787 71.9567 53.949 71.5614C53.6193 71.1662 53.6838 70.3774 53.6838 70.3774C53.6838 70.3774 53.1893 69.8516 53.3541 69.3579C53.519 68.8643 52.3991 67.1526 52.3991 67.1526L53.4204 66.1993L47.7118 67.2188Z" fill="var(--fill-0, black)"/>
<path id="Vector_96" d="M45.9379 63.3697L45.4434 63.7632L44.8503 69.095C44.8503 69.095 45.18 71.4631 45.1137 71.8261C45.0474 72.1892 46.4665 75.4445 46.4665 75.4445C46.4665 75.4445 51.1467 83.7686 53.0585 84.1978L59.5197 79.5904L57.805 77.4191C57.805 77.4191 57.2119 77.1883 57.0631 77.4191C57.0631 77.4191 53.8827 71.9567 53.553 71.5614C53.2233 71.1662 53.2896 70.3774 53.2896 70.3774C53.2896 70.3774 52.7951 69.8515 52.9599 69.3579C53.1248 68.8642 52.0031 67.1526 52.0031 67.1526L53.0245 66.1992L45.9379 63.3697Z" fill="var(--fill-0, white)"/>
<path id="Vector_97" opacity="0.1" d="M76.6259 84.2568C76.9843 84.6915 76.7585 86.6428 76.7585 86.6428L75.7694 88.2776C75.7694 88.2776 75.8286 89.3329 75.8321 90.7548L74.1694 91.2735C74.0191 91.3203 73.8598 91.3306 73.7047 91.3035C73.5496 91.2764 73.4033 91.2127 73.2779 91.1176C73.1526 91.0226 73.0518 90.899 72.984 90.7571C72.9162 90.6153 72.8834 90.4593 72.8882 90.3023L73.1749 81.0714L77.0541 82.5523C76.7245 82.7813 77.0864 83.3429 77.0864 83.3429C77.0864 83.3429 76.264 83.8222 76.6259 84.2568Z" fill="var(--fill-0, black)"/>
<path id="Vector_98" d="M76.8248 84.0583C77.1832 84.4929 76.9574 86.4461 76.9574 86.4461L75.9683 88.0808C75.9683 88.0808 76.0275 89.1343 76.0328 90.558L74.3396 91.0857C74.1924 91.1313 74.0365 91.1412 73.8847 91.1146C73.7329 91.0879 73.5897 91.0254 73.467 90.9323C73.3443 90.8392 73.2457 90.7182 73.1793 90.5794C73.1129 90.4406 73.0807 90.2879 73.0853 90.1341L73.3738 80.8746L77.2548 82.3556C76.9234 82.5845 77.2853 83.1443 77.2853 83.1443C77.2853 83.1443 76.4664 83.6255 76.8248 84.0583Z" fill="var(--fill-0, white)"/>
<path id="Vector_99" d="M78.1095 79.6584C78.1095 79.6584 77.8461 81.3379 77.1867 81.4362C76.5274 81.5346 76.2317 84.1531 75.5741 84.0601C74.9165 83.9671 75.3519 81.6258 75.3752 81.1715C75.3985 80.7172 74.6585 78.8356 75.2122 78.4082C75.7659 77.9807 77.5182 78.4082 77.5182 78.4082L78.1095 79.6584Z" fill="var(--fill-0, #CF6F80)"/>
<path id="Vector_100" opacity="0.1" d="M79.5125 66.7251L80.756 64.2211C80.756 64.2211 81.2505 66.1295 81.2505 67.149C81.2505 68.1685 81.9422 68.2686 81.9422 68.2686C81.9422 68.2686 82.7001 69.1629 82.3005 69.814C81.9009 70.465 81.7397 72.0855 81.7397 72.0855C81.7397 72.0855 81.8705 75.178 81.2774 75.6054C80.6843 76.0329 80.5607 77.0542 80.5607 77.0542C80.5607 77.0542 79.4713 78.9948 79.5053 79.4563C79.5394 79.9177 77.9895 83.0424 77.9895 83.0424C77.9895 83.0424 78.7474 79.1594 74.3306 77.4817C74.3306 77.4817 74.2966 76.1635 74.6263 75.8022C74.956 75.4409 75.4702 75.2763 75.1477 73.4502C74.8252 71.624 75.0545 69.442 75.0545 69.0038C75.0545 68.5655 76.0436 65.8326 76.0436 65.8326L79.5125 66.7251Z" fill="var(--fill-0, black)"/>
<path id="Vector_101" d="M80.05 63.8634L81.1359 64.2211C81.1359 64.2211 81.6322 66.1295 81.6322 67.149C81.6322 68.1685 82.3238 68.2686 82.3238 68.2686C82.3238 68.2686 83.0817 69.1629 82.6822 69.814C82.2826 70.465 82.1231 72.0855 82.1231 72.0855C82.1231 72.0855 82.2539 75.178 81.6608 75.6054C81.0678 76.0329 80.9352 77.0542 80.9352 77.0542C80.9352 77.0542 79.8476 78.9948 79.8816 79.4563C79.9156 79.9177 78.364 83.0424 78.364 83.0424C78.364 83.0424 79.1237 79.1594 74.7051 77.4817C74.7051 77.4817 74.6729 76.1635 75.0026 75.8022C75.3322 75.4409 75.8465 75.2763 75.524 73.4502C75.2014 71.624 75.4308 69.442 75.4308 69.0038C75.4308 68.5656 76.4199 65.8326 76.4199 65.8326L80.05 63.8634Z" fill="var(--fill-0, white)"/>
<path id="Vector_102" opacity="0.1" d="M56.0669 128.766C56.0669 128.766 57.7978 127.68 58.9338 128.469C60.0698 129.258 56.0669 128.766 56.0669 128.766Z" fill="var(--fill-0, black)"/>
<path id="Vector_103" opacity="0.1" d="M69.5161 125.409C69.5161 125.409 71.0481 125.212 72.3346 126.595C73.6211 127.977 69.5161 125.409 69.5161 125.409Z" fill="var(--fill-0, black)"/>
<g id="Group" opacity="0.1">
<path id="Vector_104" d="M71.7576 38.9107C71.5372 39.1003 71.2541 39.2363 71.1072 39.4885C70.9818 39.7049 70.9782 39.9714 70.8779 40.2039C70.7775 40.4364 70.4854 40.626 70.283 40.4793C70.2364 38.8696 69.4408 37.3583 68.4643 36.0705C68.1913 35.6818 67.8594 35.3379 67.4806 35.051C67.0971 34.7632 66.6198 34.6286 66.1422 34.6736C65.6046 34.7469 65.1316 35.1118 64.5887 35.1565C63.8719 35.2173 63.2287 34.7219 62.5174 34.6968C62.2283 34.6997 61.9432 34.7642 61.6811 34.8861C61.4191 35.0079 61.1861 35.1843 60.9979 35.4033C60.6239 35.8437 60.3462 36.3573 60.1827 36.9111C59.9011 37.7515 59.7477 38.6294 59.7275 39.5153C59.7168 40.0143 59.6702 40.6367 59.2079 40.8227C59.2187 40.9549 59.2187 41.0877 59.2079 41.2198C59.6738 41.041 59.7204 40.4114 59.7311 39.9106C59.7511 39.0246 59.9045 38.1467 60.1862 37.3064C60.3498 36.752 60.6275 36.2379 61.0015 35.7968C61.1901 35.5784 61.4231 35.4025 61.6851 35.281C61.9471 35.1595 62.2321 35.0951 62.5209 35.0921C63.2377 35.1172 63.8827 35.6108 64.5923 35.5518C65.1298 35.5071 65.6064 35.1404 66.1457 35.0689C66.6234 35.0239 67.1007 35.1584 67.4842 35.4463C67.863 35.7332 68.1949 36.0771 68.4679 36.4657C69.4444 37.7517 70.24 39.2595 70.2866 40.8728C70.489 41.0213 70.7811 40.8281 70.8814 40.5992C70.9818 40.3702 70.9854 40.1019 71.1108 39.8837C71.2577 39.6315 71.5408 39.4974 71.7612 39.3078C72.3202 38.8267 72.46 38.0165 72.4385 37.2813C72.4385 37.2581 72.4385 37.2348 72.4385 37.2134C72.4045 37.8501 72.2342 38.4994 71.7576 38.9107Z" fill="var(--fill-0, black)"/>
<path id="Vector_105" d="M58.5306 38.7838C58.1185 38.3312 57.5559 38.029 57.1778 37.5496C56.8595 37.1253 56.6777 36.6145 56.6564 36.0848C56.6 36.7467 56.7852 37.4067 57.1778 37.9431C57.5559 38.4242 58.1185 38.7265 58.5306 39.179C58.9263 39.6217 59.1639 40.1827 59.2061 40.7745C59.2336 40.4143 59.1879 40.0524 59.0718 39.7103C58.9557 39.3683 58.7717 39.0531 58.5306 38.7838Z" fill="var(--fill-0, black)"/>
<path id="Vector_106" d="M72.7879 33.384C72.6822 33.8222 72.494 34.239 72.408 34.6807C72.3571 34.9759 72.3385 35.2758 72.3525 35.575C72.3585 35.4046 72.3771 35.2348 72.408 35.0671C72.494 34.6235 72.6822 34.2085 72.7879 33.7703C72.8495 33.5286 72.8695 33.2783 72.847 33.0299C72.8359 33.1492 72.8161 33.2675 72.7879 33.384Z" fill="var(--fill-0, black)"/>
</g>
<path id="Vector_107" opacity="0.1" d="M23.7824 136.038C33.4249 136.038 41.2416 134.785 41.2416 133.239C41.2416 131.693 33.4249 130.44 23.7824 130.44C14.14 130.44 6.32323 131.693 6.32323 133.239C6.32323 134.785 14.14 136.038 23.7824 136.038Z" fill="var(--fill-0, #6C63FF)"/>
<path id="Vector_108" d="M24.3451 79.6172H23.2216V104.867H24.3451V79.6172Z" fill="var(--fill-0, #535461)"/>
<path id="Vector_109" d="M31.4047 104.79L31.3348 105.927L31.2345 107.537L31.1933 108.206L31.0947 109.816L31.0517 110.485L30.9514 112.094L29.819 130.351C29.7698 131.136 29.4225 131.873 28.848 132.412C28.2735 132.951 27.5148 133.251 26.7263 133.252H20.8385C20.0503 133.251 19.2918 132.951 18.7175 132.412C18.1433 131.873 17.7965 131.136 17.7477 130.351L16.6206 112.082L16.5203 110.472L16.4791 109.803L16.3788 108.194L16.3375 107.525L16.2372 105.915L16.1655 104.777C16.1531 104.558 16.1856 104.339 16.261 104.133C16.3365 103.927 16.4533 103.739 16.6043 103.58C16.7553 103.42 16.9373 103.294 17.1392 103.207C17.341 103.12 17.5585 103.076 17.7781 103.076H29.8208C30.0396 103.078 30.2558 103.125 30.4559 103.213C30.656 103.302 30.8358 103.43 30.9842 103.591C31.1326 103.752 31.2465 103.941 31.3188 104.147C31.3912 104.353 31.4204 104.572 31.4047 104.79Z" fill="var(--fill-0, #3F3D56)"/>
<path id="Vector_110" d="M31.3348 105.927L31.2345 107.532H16.3304L16.23 105.927H31.3348Z" fill="var(--fill-0, #9D9CB5)"/>
<path id="Vector_111" d="M31.1933 108.201L31.0947 109.807H16.4719L16.3716 108.201H31.1933Z" fill="var(--fill-0, #9D9CB5)"/>
<path id="Vector_112" d="M31.0517 110.478L30.9532 112.082H16.6135L16.5131 110.478H31.0517Z" fill="var(--fill-0, #9D9CB5)"/>
<path id="Vector_113" d="M14.5153 89.0807C21.0571 93.8061 23.7878 101.197 23.7878 101.197C23.7878 101.197 15.9039 100.926 9.36031 96.201C2.81669 91.4756 0.0913813 84.0869 0.0913813 84.0869C0.0913813 84.0869 7.97167 84.3552 14.5153 89.0807Z" fill="var(--fill-0, #FD527B)"/>
<path id="Vector_114" d="M0.0860061 84.0869C0.0860061 84.0869 8.2709 88.621 10.8959 92.3752C13.5208 96.1295 23.7878 101.197 23.7878 101.197" stroke="var(--stroke-0, #535461)" stroke-width="2" stroke-miterlimit="10"/>
<path id="Vector_115" d="M18.7385 79.5618C22.2988 82.132 23.7878 86.1545 23.7878 86.1545C23.7878 86.1545 19.4965 86.0079 15.9344 83.4377C12.3723 80.8675 10.8869 76.8431 10.8869 76.8431C10.8869 76.8431 15.1765 76.9898 18.7385 79.5618Z" fill="var(--fill-0, #FD527B)"/>
<path id="Vector_116" d="M10.8869 76.8431C10.8869 76.8431 15.3413 79.3114 16.7694 81.354C18.1974 83.3965 23.7878 86.1545 23.7878 86.1545" stroke="var(--stroke-0, #535461)" stroke-width="2" stroke-miterlimit="10"/>
<path id="Vector_117" d="M28.9571 85.9506C24.8665 90.4382 24.001 96.303 24.001 96.303C24.001 96.303 29.7688 94.89 33.8559 90.4006C37.943 85.9113 38.812 80.0483 38.812 80.0483C38.812 80.0483 33.0478 81.4631 28.9571 85.9506Z" fill="var(--fill-0, #FD527B)"/>
<path id="Vector_118" d="M38.8156 80.0501C38.8156 80.0501 33.4868 84.6503 32.1322 87.8197C30.7776 90.9891 24.001 96.303 24.001 96.303" stroke="var(--stroke-0, #535461)" stroke-width="2" stroke-miterlimit="10"/>
<path id="Vector_119" d="M179.12 84.3713C179.12 84.3713 176.162 69.6798 177.294 67.8519C177.294 67.8519 177.335 66.1527 177.267 63.9868C177.267 63.9045 177.267 63.8222 177.267 63.7382C177.466 63.8707 177.674 63.9902 177.889 64.0959C178.932 64.6309 180.13 64.7853 181.275 64.5323L180.38 63.536C180.165 63.2982 179.941 63.0406 179.894 62.7258C179.847 62.411 179.976 62.1302 180.087 61.8494C180.939 59.7031 180.983 57.0041 179.344 55.3658C177.959 53.9886 177.622 52.2107 176.119 50.9533C175.02 50.0322 174.416 48.6818 173.847 47.3761C173.365 46.2726 172.879 45.1601 172.603 43.9903C172.388 43.0764 172.302 42.1302 172.006 41.2377C171.711 40.3452 171.157 39.4777 170.292 39.0789C169.984 38.9376 169.641 38.8571 169.36 38.6693C168.991 38.4207 168.769 38.0165 168.502 37.6623C167.145 35.8737 162.603 36.9272 160.453 37.6534C159.868 37.8362 159.327 38.1356 158.862 38.5334L158.882 38.5012C158.898 38.4743 158.917 38.4475 158.935 38.4207C158.7 38.6106 158.497 38.8371 158.333 39.0914C158.02 39.5868 157.889 40.1646 157.627 40.7011C157.312 41.3361 155.558 43.1086 156.312 43.8222C156.365 43.8701 156.426 43.9088 156.491 43.9367C156.775 44.0543 157.086 44.0855 157.387 44.0261L157.355 44.103C157.097 44.7327 156.965 45.4064 156.966 46.0866C156.966 49.0252 159.394 51.4076 162.392 51.4076C162.955 51.4082 163.516 51.3219 164.053 51.1519C164.065 51.2198 164.076 51.2878 164.089 51.3558C164.089 51.3826 164.098 51.4094 164.101 51.4362L164.006 51.5686C164.001 51.5604 163.996 51.5527 163.99 51.5453L161.177 55.4695C160.747 55.7718 158.271 57.5604 158.131 58.9018C157.984 60.3702 157.837 62.0891 157.837 62.0891L157.817 62.4575C157.694 62.5601 157.551 62.6348 157.396 62.6765C157.241 62.7181 157.079 62.7258 156.921 62.699C156.043 62.5559 156.043 65.9184 156.043 65.9184C156.043 65.9184 155.459 66.455 155.058 65.99C154.657 65.525 153.596 67.1007 153.596 67.1007L146.948 67.3869L146.796 67.3958L146.438 66.2887C146.399 66.1719 146.316 66.075 146.206 66.0191C146.096 65.9632 145.969 65.9527 145.852 65.99C145.824 65.9991 145.797 66.0105 145.771 66.024L145.746 66.0383L145.699 66.0705L145.676 66.0919C145.663 66.1036 145.651 66.1161 145.64 66.1295L145.619 66.1545L145.608 66.1653C145.567 66.2224 145.539 66.2884 145.528 66.3579C145.517 66.4275 145.522 66.4987 145.544 66.5659L145.852 67.5157C144.569 67.7732 143.257 68.4994 144.327 70.499L138.905 69.4992L140.659 70.9694L149.715 72.8349C149.595 73.0495 149.674 73.3608 150.048 73.799C151.661 75.6895 154.599 76.2028 155.782 76.3352C156.094 77.0326 156.484 77.6925 156.945 78.3026L156.843 80.186C156.843 80.186 153.848 94.5412 153.3 95.2692C153.577 94.9561 153.83 94.6231 154.058 94.2729C153.189 97.2223 151.974 101.259 151.655 101.864C151.143 102.83 150.668 106.738 151.252 106.988C151.431 107.065 151.944 107.027 152.675 106.972V107.296L152.643 119.564C152.643 119.564 152.79 127.088 152.386 127.805C151.983 128.523 151.876 130.027 151.876 130.027C151.876 130.027 150.263 132.994 148.986 134.187C148.977 134.196 148.967 134.205 148.957 134.212L148.917 133.933C148.917 133.933 147.382 135.868 143.985 135.759C143.985 135.759 141.94 137.086 144.972 137.158C148.004 137.229 151.876 137.051 151.876 137.051C151.876 137.051 154.58 132.937 156.844 133.473V136.591H157.538V133.423C157.859 133.212 158.135 132.938 158.347 132.617C158.559 132.296 158.704 131.936 158.772 131.558C158.832 131.168 158.788 130.77 158.646 130.402C158.504 130.034 158.268 129.709 157.962 129.46C157.825 129.336 157.715 129.185 157.638 129.016C157.562 128.847 157.522 128.665 157.52 128.48L157.495 128.501C157.495 128.439 157.479 128.374 157.471 128.308C157.273 126.698 157.024 123.377 157.903 120.919C159.109 117.55 159.475 112.856 158.597 110.063C158.313 109.17 158.081 108.261 157.9 107.342C157.878 107.226 157.859 107.115 157.841 107.011C158.441 107.092 159.035 107.212 159.62 107.369C161.654 107.929 166.103 108.033 169.901 108.002C169.91 108.106 169.921 108.215 169.933 108.324C170.001 109.082 170.143 109.832 170.356 110.563C170.833 111.994 171.051 118.303 171.051 118.303C171.051 118.303 171.666 123.49 171.331 125.6C171.152 126.773 170.973 127.952 170.87 129.136V129.159C170.87 129.159 169.864 132.021 169.127 133.575C169.109 133.615 169.089 133.654 169.072 133.692C168.875 133.71 168.682 133.752 168.496 133.819C168.496 133.819 167.509 135.786 166.525 136.112C165.542 136.437 165.868 137.509 168.095 137.115C170.322 136.722 173.685 136.4 173.685 136.4L173.831 134.393L174.515 133.538L174.336 135.539L175.065 135.396L174.968 132.962L176.088 131.563C176.088 131.563 177.441 130.361 175.431 127.997V128.049C175.409 128.015 175.389 127.979 175.366 127.945V127.934C175.033 127.419 174.768 126.459 175.253 124.754C176.131 121.674 176.642 118.879 176.642 118.879C176.642 118.879 178.602 111.39 176.246 107.847H176.35C176.108 107.348 175.938 106.818 175.843 106.273C175.831 106.208 175.82 106.142 175.81 106.074C177.554 105.974 179.265 105.659 180.661 104.979C180.655 104.972 179.815 87.2009 179.12 84.3713ZM156.986 71.9764V72.0122L156.628 72.0301L156.986 71.9764ZM155.757 72.1463C155.698 72.1593 155.643 72.1856 155.595 72.2232C155.441 72.4408 155.345 72.6936 155.314 72.9583L154.755 72.8331C154.755 72.8331 154.363 72.7491 153.798 72.6543L153.531 72.386C154.266 72.3252 155.029 72.2357 155.757 72.1463Z" fill="url(#paint1_linear_0_60)"/>
<path id="Vector_120" d="M174.253 132.987L174.04 135.521L174.755 135.378L174.648 132.629L174.253 132.987Z" fill="var(--fill-0, #1D2366)"/>
<path id="Vector_121" d="M157.943 120.953C157.081 123.404 157.325 126.711 157.518 128.317C157.59 128.911 157.656 129.272 157.656 129.272C157.656 129.272 156.368 132.202 156.26 132.313C156.153 132.424 152.469 134.668 152.469 134.668L149.894 136.169C149.894 136.169 147.282 135.026 148.534 134.632C148.79 134.53 149.02 134.373 149.21 134.173C150.464 132.983 152.039 130.027 152.039 130.027C152.039 130.027 152.146 128.526 152.54 127.813C152.935 127.099 152.791 119.599 152.791 119.599L152.822 107.374V105.781L157.722 105.816C157.753 106.358 157.824 106.896 157.934 107.426C158.11 108.342 158.338 109.248 158.616 110.138C159.48 112.926 159.122 117.596 157.943 120.953Z" fill="var(--fill-0, #FFB0B1)"/>
<path id="Vector_122" opacity="0.1" d="M157.656 129.272C157.656 129.272 156.368 132.202 156.26 132.313C156.153 132.424 152.469 134.668 152.469 134.668L149.894 136.169C149.894 136.169 147.282 135.026 148.534 134.632C148.79 134.53 149.02 134.373 149.21 134.173L149.321 134.954L150.179 134.919L157.525 128.321C157.59 128.911 157.656 129.272 157.656 129.272Z" fill="var(--fill-0, black)"/>
<path id="Vector_123" d="M157.566 128.487L150.179 135.13L149.321 135.165L149.141 133.913C149.141 133.913 147.64 135.842 144.304 135.734C144.304 135.734 142.3 137.056 145.269 137.128C148.238 137.199 152.03 137.02 152.03 137.02C152.03 137.02 154.678 132.906 156.895 133.443V136.55H157.575V133.414C157.892 133.202 158.162 132.927 158.37 132.608C158.577 132.288 158.718 131.93 158.783 131.554C158.842 131.168 158.8 130.772 158.662 130.407C158.524 130.041 158.293 129.716 157.993 129.465C157.859 129.34 157.752 129.188 157.678 129.02C157.605 128.852 157.567 128.67 157.566 128.487Z" fill="var(--fill-0, #1D2366)"/>
<path id="Vector_124" d="M174.934 124.774C174.458 126.473 174.717 127.43 175.044 127.943V127.954C175.462 128.588 175.753 129.297 175.9 130.041L175.929 130.202L172.567 135.094L170.743 135.809C170.743 135.809 167.81 134.81 168.346 134.523C168.48 134.454 168.69 134.082 168.93 133.568C169.647 132.021 170.636 129.167 170.636 129.167V129.143C170.74 127.965 170.905 126.789 171.087 125.62C171.415 123.515 170.813 118.347 170.813 118.347C170.813 118.347 170.598 112.064 170.132 110.635C169.922 109.908 169.782 109.163 169.715 108.41C169.618 107.516 169.597 106.779 169.597 106.779C169.597 106.779 171.528 104.096 175.069 106.993C175.352 107.224 175.601 107.494 175.809 107.795C178.254 111.268 176.285 118.92 176.285 118.92C176.285 118.92 175.793 121.703 174.934 124.774Z" fill="var(--fill-0, #FFB0B1)"/>
<path id="Vector_125" opacity="0.1" d="M175.934 130.202L172.573 135.094L170.749 135.809C170.749 135.809 167.815 134.81 168.351 134.523C168.486 134.454 168.695 134.082 168.935 133.568C170.177 133.557 170.82 134.738 170.82 134.738L172.394 134.488C172.394 134.488 174.468 130.417 174.934 130.168C175.4 129.92 175.006 128.31 175.006 128.31V127.9C175.018 127.915 175.029 127.931 175.044 127.945V127.956C175.462 128.589 175.753 129.298 175.9 130.043L175.934 130.202Z" fill="var(--fill-0, black)"/>
<path id="Vector_126" d="M170.928 134.843C170.928 134.843 170.032 133.202 168.315 133.808C168.315 133.808 167.35 135.775 166.384 136.094C165.418 136.412 165.741 137.485 167.923 137.094C170.105 136.702 173.395 136.378 173.395 136.378L173.538 134.377L175.757 131.556C175.757 131.556 177.079 130.359 175.112 128.004V128.414C175.112 128.414 175.506 130.023 175.04 130.272C174.574 130.52 172.506 134.593 172.506 134.593L170.928 134.843Z" fill="var(--fill-0, #1D2366)"/>
<path id="Vector_127" opacity="0.1" d="M157.728 105.813C157.759 106.354 157.829 106.892 157.939 107.423C155.922 107.128 154.049 107.274 152.822 107.371V105.777L157.728 105.813Z" fill="var(--fill-0, black)"/>
<path id="Vector_128" opacity="0.1" d="M176.008 108.24C176.008 108.24 173.141 108.38 169.722 108.408C169.625 107.514 169.604 106.777 169.604 106.777C169.604 106.777 171.535 104.094 175.076 106.992C175.359 107.223 175.608 107.492 175.816 107.793C175.871 107.945 175.935 108.095 176.008 108.24Z" fill="var(--fill-0, black)"/>
<path id="Vector_129" d="M176.008 107.918C176.008 107.918 163.451 108.524 159.623 107.453C155.796 106.382 152.003 107.31 151.431 107.061C150.86 106.813 151.324 102.919 151.826 101.955C152.327 100.991 155.079 91.2413 155.079 91.2413L157.728 77.4584L160.518 76.6911L160.715 76.6357L165.576 75.2978L169.138 74.3159C169.138 74.3159 176.221 101.919 175.613 103.955C175.393 104.734 175.357 105.554 175.509 106.349C175.602 106.893 175.77 107.421 176.008 107.918Z" fill="var(--fill-0, #1D2366)"/>
<path id="Vector_130" d="M148.496 68.0325C148.496 68.0325 145.988 70.7154 147.887 72.2107C149.787 73.7059 151.035 72.3538 151.035 72.3538L148.496 68.0325Z" fill="var(--fill-0, #C7DAF5)"/>
<path id="Vector_131" opacity="0.1" d="M148.496 68.0325C148.496 68.0325 145.988 70.7154 147.887 72.2107C149.787 73.7059 151.035 72.3538 151.035 72.3538L148.496 68.0325Z" fill="var(--fill-0, black)"/>
<path id="Vector_132" d="M168.763 50.3935C168.763 50.3935 168.469 50.6725 168.027 51.0839C167.396 51.6723 166.463 52.5326 165.635 53.2534C164.488 54.2497 163.542 54.9812 163.881 54.357C164.219 53.7328 164.155 52.6453 163.986 51.6276C163.974 51.5596 163.963 51.4917 163.951 51.4255C163.811 50.6781 163.626 49.9398 163.397 49.2148C163.397 49.2148 165.25 46.8253 166.275 45.8827C166.656 45.525 166.923 45.3783 166.939 45.6269C166.957 45.9614 167.208 46.7001 167.52 47.4835C167.529 47.5085 167.538 47.5317 167.549 47.5568C167.756 48.0934 167.991 48.6443 168.197 49.12C168.512 49.8498 168.763 50.3935 168.763 50.3935Z" fill="var(--fill-0, #FFB0B1)"/>
<path id="Vector_133" opacity="0.1" d="M167.549 47.5568C167.374 48.4916 166.952 49.3625 166.325 50.0786C165.699 50.7947 164.891 51.3297 163.986 51.6276C163.844 50.8111 163.647 50.0051 163.397 49.2148C163.397 49.2148 166.886 44.7165 166.939 45.6269C166.952 45.9721 167.224 46.7376 167.549 47.5568Z" fill="var(--fill-0, black)"/>
<path id="Vector_134" opacity="0.1" d="M163.639 52.8295L164.09 52.1946C164.09 52.1946 164.39 54.0154 165.49 53.2123C166.59 52.4092 166.644 59.2559 166.644 59.2559L165.463 76.8789L156.93 76.3692L157.172 67.8537L158.138 63.5611L160.526 57.3207L161.947 55.2584L163.639 52.8295Z" fill="var(--fill-0, black)"/>
<path id="Vector_135" d="M166.644 59.365L165.569 75.2996L165.456 76.988L160.699 76.7036L160.519 76.6929L156.936 76.4783L157.178 67.961L158.143 63.6684L160.532 57.428L161.953 55.3658L163.644 52.9279L164.096 52.2948C164.096 52.2948 164.395 54.1155 165.495 53.3125L165.518 53.2964C166.593 52.6167 166.644 59.365 166.644 59.365Z" fill="var(--fill-0, #1D2366)"/>
<path id="Vector_136" d="M158.263 62.1767C158.263 62.1767 157.835 63.071 156.975 62.9261C156.115 62.7813 156.117 66.1456 156.117 66.1456C156.117 66.1456 155.545 66.6822 155.151 66.2171C154.757 65.7521 153.718 67.3243 153.718 67.3243L147.206 67.6105C147.206 67.6105 150.104 68.9322 149.536 72.9315C149.536 72.9315 159.373 72.3234 159.695 71.3951C160.018 70.4668 158.263 62.1767 158.263 62.1767Z" fill="var(--fill-0, white)"/>
<path id="Vector_137" opacity="0.03" d="M158.263 62.1767C158.263 62.1767 157.835 63.071 156.975 62.9261C156.115 62.7813 156.117 66.1456 156.117 66.1456C156.117 66.1456 155.545 66.6822 155.151 66.2171C154.757 65.7521 153.718 67.3243 153.718 67.3243L147.206 67.6105C147.206 67.6105 150.104 68.9322 149.536 72.9315C149.536 72.9315 159.373 72.3234 159.695 71.3951C160.018 70.4668 158.263 62.1767 158.263 62.1767Z" fill="var(--fill-0, black)"/>
<path id="Vector_138" d="M139.34 69.712L141.057 71.1751L155.187 74.1388L153.435 72.3538L139.34 69.712Z" fill="var(--fill-0, white)"/>
<path id="Vector_139" d="M163.666 53.393C163.431 53.7507 162.759 55.5822 162.198 57.1812C161.731 58.5137 161.34 59.6852 161.34 59.6852C161.34 59.6852 160.428 65.6126 159.962 66.684C159.496 67.7553 159.749 71.9335 159.749 71.9335L158.013 82.2518C158.013 82.2518 157.226 87.5729 156.011 90.7512C154.812 93.8795 153.478 95.3461 153.436 95.3926C153.974 94.6664 156.903 80.3685 156.903 80.3685L157.871 62.3359C157.871 62.3359 158.013 60.6224 158.156 59.1576C158.299 57.6927 161.202 55.6931 161.202 55.6931L164.001 51.7206C164.282 52.0962 164.094 52.7509 163.666 53.393Z" fill="var(--fill-0, white)"/>
<path id="Vector_140" d="M156.368 76.5677C156.368 76.5677 152.247 76.3888 150.251 73.9957C148.255 71.6026 154.864 73.0406 154.864 73.0406L156.583 73.4341L156.368 76.5677Z" fill="var(--fill-0, #FFB0B1)"/>
<path id="Vector_141" opacity="0.1" d="M175.613 103.956C175.393 104.736 175.357 105.556 175.509 106.351C171.014 106.67 166.205 105.457 166.205 105.457C165.309 106.28 162.949 107.492 162.949 107.492L161.662 91.574C160.84 89.4276 160.518 78.1828 160.518 78.1828C160.518 78.1828 160.591 77.5943 160.697 76.7126C160.697 76.6911 160.697 76.6679 160.706 76.6464C161.026 74.1835 161.662 69.56 161.974 68.9358C162.404 68.0773 160.652 65.7932 160.652 65.7932L161.449 59.0055L161.546 58.1864C163.227 57.437 164.515 55.0438 164.515 55.0438L165.504 53.3142C166.579 52.6256 166.635 59.374 166.635 59.374L165.56 75.3085L169.122 74.3266C169.122 74.3266 176.221 101.921 175.613 103.956Z" fill="var(--fill-0, black)"/>
<path id="Vector_142" d="M180.227 105.056C175.327 107.485 166.42 105.235 166.42 105.235C165.524 106.058 163.164 107.271 163.164 107.271L161.876 91.3522C161.055 89.2059 160.733 77.961 160.733 77.961C160.733 77.961 161.768 69.5707 162.198 68.714C162.324 68.4636 162.263 68.0916 162.114 67.6909C161.383 65.784 161.114 63.7315 161.329 61.7009L161.673 58.7838L161.768 57.9664C163.451 57.2152 164.739 54.822 164.739 54.822L165.635 53.2552L167.283 50.3684L168.065 49.002L168.197 49.1218L169.21 50.0376C169.21 50.0376 169.64 50.3953 170.285 50.9319C171.688 52.1123 174.112 54.1907 175.363 55.4624C176.463 56.582 176.81 60.9372 176.911 64.2157C176.977 66.3745 176.937 68.0665 176.937 68.0665C175.828 69.8891 178.729 84.5216 178.729 84.5216C179.405 87.3493 180.227 105.056 180.227 105.056Z" fill="var(--fill-0, white)"/>
<path id="Vector_143" opacity="0.03" d="M170.82 54.7863C170.82 54.7863 167.457 61.1769 167.848 63.6058C168.238 66.0347 169.349 68.7838 168.814 69.4259C168.629 69.6691 168.391 69.8666 168.118 70.0028C167.845 70.139 167.544 70.2103 167.239 70.211C166.701 70.2468 165.268 71.2466 165.268 71.354C165.268 71.4613 163.943 71.4613 162.759 71.9621C161.575 72.4629 159.826 72.7473 159.826 72.7473C159.826 72.7473 156.422 72.64 156.104 72.9619C155.787 73.2838 155.461 75.2102 156.14 76.7466C156.819 78.283 157.574 79.4294 158.143 79.6387C158.713 79.848 162.329 78.6389 165.262 78.3527C168.195 78.0665 171.379 75.7467 171.379 75.7467C171.379 75.7467 174.886 74.4947 175.5 72.3895C176.115 70.2844 174.75 58.714 174.75 58.714C174.75 58.714 173.718 53.3214 170.82 54.7863Z" fill="var(--fill-0, black)"/>
<path id="Vector_144" opacity="0.03" d="M170.39 54.2497C170.39 54.2497 167.027 60.6421 167.421 63.0692C167.815 65.4963 168.923 68.2472 168.385 68.8911C168.202 69.1346 167.964 69.3323 167.691 69.4686C167.418 69.6048 167.117 69.6759 166.812 69.6763C166.275 69.712 164.841 70.7119 164.841 70.8192C164.841 70.9265 163.517 70.9265 162.333 71.4255C161.148 71.9245 159.399 72.2107 159.399 72.2107C159.399 72.2107 155.995 72.1034 155.68 72.4253C155.364 72.7473 155.035 74.6754 155.716 76.21C156.396 77.7446 157.149 78.8929 157.719 79.1021C158.289 79.3114 161.904 78.1023 164.838 77.8179C167.771 77.5335 170.955 75.2102 170.955 75.2102C170.955 75.2102 174.459 73.9581 175.067 71.8548C175.674 69.7514 174.316 58.1774 174.316 58.1774C174.316 58.1774 173.288 52.7866 170.39 54.2497Z" fill="var(--fill-0, black)"/>
<path id="Vector_145" d="M170.715 54.4643C170.715 54.4643 167.351 60.8567 167.746 63.2838C168.14 65.711 169.247 68.4618 168.711 69.1039C168.528 69.348 168.29 69.5462 168.017 69.6828C167.744 69.8194 167.442 69.8906 167.136 69.8909C166.599 69.9267 165.165 70.9265 165.165 71.032C165.165 71.1375 163.843 71.1393 162.657 71.6401C161.471 72.1409 159.724 72.4253 159.724 72.4253C159.724 72.4253 156.319 72.318 156.002 72.64C155.685 72.9619 155.359 74.89 156.038 76.4246C156.717 77.9592 157.471 79.1075 158.041 79.3168C158.611 79.526 162.227 78.3169 165.16 78.0308C168.093 77.7446 171.277 75.4248 171.277 75.4248C171.277 75.4248 174.784 74.1728 175.398 72.0676C176.013 69.9624 174.657 58.3921 174.657 58.3921C174.657 58.3921 173.61 53.0084 170.715 54.4643Z" fill="var(--fill-0, white)"/>
<path id="Vector_146" opacity="0.1" d="M170.641 71.6097C170.641 71.6097 167.953 71.0732 168.889 71.9675C169.824 72.8618 169.819 73.6452 170.964 73.6094C172.109 73.5736 170.641 71.6097 170.641 71.6097Z" fill="var(--fill-0, black)"/>
<path id="Vector_147" opacity="0.1" d="M175.183 90.8514C175.183 90.8514 173.969 91.6723 176.292 93.5647C178.616 95.457 175.183 90.8514 175.183 90.8514Z" fill="var(--fill-0, black)"/>
<path id="Vector_148" opacity="0.1" d="M172.865 97.5997C172.865 97.707 172.435 101.535 174.044 102.492C175.653 103.448 172.865 97.5997 172.865 97.5997Z" fill="var(--fill-0, black)"/>
<path id="Vector_149" d="M147.317 67.6015C146.02 67.6462 143.218 68.0415 144.671 70.7476C145.956 73.1425 148.115 71.5418 149.33 70.3273C149.033 69.195 148.313 68.2194 147.317 67.6015Z" fill="var(--fill-0, #FFB0B1)"/>
<g id="Vector_150">
</g>
<path id="Vector_151" opacity="0.1" d="M170.285 51.041C168.908 51.98 167.755 52.7723 167.529 52.9369C166.912 53.393 165.737 56.0705 164.979 57.437C164.375 58.5369 162.413 58.8195 161.673 58.8893L161.768 58.0719C163.451 57.3207 164.739 54.9276 164.739 54.9276L168.065 49.1075L169.21 50.1467C169.21 50.1467 169.64 50.5044 170.285 51.041Z" fill="var(--fill-0, black)"/>
<path id="Vector_152" d="M170.285 50.9336C168.908 51.8726 167.755 52.665 167.529 52.8313C166.912 53.2856 165.737 55.9632 164.979 57.3296C164.375 58.4296 162.413 58.7122 161.673 58.782L161.768 57.9646C163.451 57.2134 164.739 54.8202 164.739 54.8202L168.065 49.0002L169.21 50.0358C169.21 50.0358 169.64 50.3899 170.285 50.9336Z" fill="var(--fill-0, #DCE7FF)"/>
<path id="Vector_153" d="M167.636 46.3763C167.637 47.45 167.311 48.4985 166.701 49.3829C165.981 50.4286 164.909 51.1819 163.68 51.5061C162.451 51.8304 161.146 51.704 160.002 51.1501C158.858 50.5962 157.951 49.6513 157.446 48.487C156.94 47.3226 156.869 46.0159 157.246 44.804C157.624 43.5921 158.423 42.5552 159.501 41.8815C160.578 41.2079 161.862 40.942 163.118 41.1322C164.375 41.3224 165.522 41.9561 166.351 42.9183C167.18 43.8804 167.636 45.1073 167.636 46.3763Z" fill="var(--fill-0, #FFB0B1)"/>
<path id="Vector_154" opacity="0.1" d="M176.911 64.2175C176.183 63.7707 175.59 63.1352 175.196 62.3788C174.897 61.7886 174.698 61.1071 174.187 60.6886C173.727 60.313 173.112 60.2218 172.539 60.0537C170.654 59.4974 169.073 57.7804 169.014 55.8201C168.986 54.8972 169.274 53.976 169.143 53.0621C169.069 52.5448 168.863 52.0552 168.545 51.6401C168.387 51.4416 168.214 51.2556 168.027 51.0839C167.776 50.8478 167.513 50.6189 167.283 50.3684C167.139 50.2134 167.013 50.0424 166.907 49.8587C166.822 49.7084 166.753 49.5495 166.701 49.3847C166.343 48.2901 166.669 46.9916 166.275 45.8845L166.253 45.8236C166.104 45.4302 165.802 45.0367 165.38 45.0063C164.959 44.9759 164.599 45.3246 164.198 45.4802C163.358 45.8058 162.451 45.2513 161.75 44.6861C161.05 44.1209 160.26 43.4752 159.369 43.6004C158.779 43.6845 158.314 44.0851 157.771 44.2926C157.648 44.34 157.522 44.3765 157.393 44.4017C157.852 43.2579 158.696 42.3096 159.78 41.7196C160.864 41.1296 162.12 40.9348 163.332 41.1686C164.544 41.4025 165.637 42.0504 166.422 43.0011C167.208 43.9517 167.637 45.1458 167.636 46.3781C167.637 46.7502 167.598 47.1214 167.52 47.4852C167.529 47.5103 167.538 47.5335 167.549 47.5586C167.756 48.0952 167.991 48.646 168.197 49.1218L169.21 50.0376C169.21 50.0376 169.64 50.3953 170.285 50.9319C171.688 52.1123 174.112 54.1907 175.363 55.4624C176.463 56.5856 176.807 60.939 176.911 64.2175Z" fill="var(--fill-0, black)"/>
<path id="Vector_155" d="M157.708 41.0249C157.964 40.5044 158.091 39.9213 158.398 39.4277C158.848 38.7122 159.632 38.2543 160.439 37.9771C162.544 37.2527 166.993 36.201 168.323 37.9771C168.584 38.3348 168.801 38.7319 169.163 38.9787C169.439 39.1665 169.772 39.247 170.075 39.3883C170.922 39.7854 171.464 40.651 171.752 41.5346C172.041 42.4182 172.127 43.3661 172.338 44.2765C172.609 45.4445 173.083 46.5516 173.556 47.6516C174.114 48.9501 174.705 50.2969 175.78 51.2145C177.247 52.4665 177.572 54.239 178.934 55.6126C180.546 57.2438 180.494 59.9356 179.663 62.073C179.553 62.3538 179.43 62.6471 179.473 62.9458C179.516 63.2445 179.738 63.5164 179.948 63.7542L180.829 64.7469C178.744 65.2495 176.384 64.162 175.413 62.2536C175.113 61.6634 174.915 60.9837 174.402 60.5634C173.943 60.1878 173.327 60.0984 172.755 59.9302C170.87 59.3722 169.29 57.6534 169.231 55.6931C169.202 54.772 169.491 53.8508 169.36 52.9386C169.287 52.4179 169.08 51.9249 168.76 51.5078C168.267 50.8657 167.523 50.4346 167.122 49.7192C166.443 48.5226 166.959 46.9683 166.47 45.6841C166.319 45.2906 166.018 44.8972 165.597 44.8668C165.176 44.8363 164.816 45.1851 164.413 45.3407C163.574 45.6662 162.668 45.1136 161.967 44.5466C161.266 43.9796 160.476 43.3357 159.584 43.4627C158.995 43.545 158.53 43.9456 157.988 44.1549C157.586 44.3087 156.773 44.4464 156.421 44.1084C155.68 43.4269 157.398 41.6616 157.708 41.0249Z" fill="var(--fill-0, #591D4B)"/>
<path id="Vector_156" opacity="0.1" d="M175.911 61.6634C175.61 61.0732 175.413 60.3935 174.9 59.975C174.442 59.5994 173.825 59.5081 173.252 59.34C171.369 58.7838 169.788 57.0649 169.727 55.1046C169.699 54.1835 169.987 53.2606 169.858 52.3484C169.783 51.831 169.576 51.3415 169.258 50.9265C168.763 50.2844 168.02 49.8533 167.62 49.1379C166.941 47.9431 167.457 46.3888 166.966 45.1028C166.817 44.7111 166.515 44.3177 166.095 44.2855C165.676 44.2533 165.312 44.6056 164.911 44.7612C164.072 45.0868 163.164 44.5323 162.465 43.9671C161.766 43.4019 160.973 42.7562 160.082 42.8814C159.493 42.9655 159.027 43.3661 158.486 43.5736C158.084 43.7274 157.269 43.8669 156.918 43.5289C156.18 42.8135 157.898 41.0517 158.206 40.4185C158.462 39.8963 158.59 39.315 158.898 38.8213C158.914 38.7945 158.932 38.7677 158.95 38.7408C158.719 38.9315 158.52 39.1572 158.36 39.4098C158.054 39.9034 157.927 40.4829 157.67 41.007C157.36 41.6401 155.642 43.4073 156.382 44.1173C156.74 44.4572 157.547 44.3177 157.948 44.1638C158.486 43.9546 158.955 43.5539 159.545 43.4717C160.44 43.3447 161.229 43.9903 161.928 44.5555C162.626 45.1207 163.54 45.6752 164.375 45.3497C164.777 45.1941 165.128 44.8435 165.558 44.8757C165.988 44.9079 166.275 45.2996 166.43 45.6931C166.92 46.9773 166.404 48.5316 167.083 49.7281C167.484 50.4311 168.228 50.871 168.72 51.5167C169.041 51.9339 169.248 52.4269 169.321 52.9476C169.451 53.8598 169.163 54.7809 169.192 55.702C169.251 57.6695 170.831 59.3812 172.716 59.9392C173.284 60.1073 173.904 60.1967 174.363 60.5724C174.877 60.9927 175.079 61.6723 175.373 62.2626C176.344 64.171 178.704 65.2585 180.79 64.7559L180.374 64.2873C178.566 64.3141 176.737 63.2874 175.911 61.6634Z" fill="var(--fill-0, black)"/>
<path id="Vector_157" opacity="0.1" d="M163.558 53.5003C163.323 53.858 162.652 55.6895 162.091 57.2885C161.566 57.0846 161.089 55.7843 161.089 55.7843L163.888 51.8101C164.175 52.2035 163.986 52.8564 163.558 53.5003Z" fill="var(--fill-0, black)"/>
<path id="Vector_158" d="M163.666 53.3929C163.431 53.7507 162.759 55.5822 162.198 57.1812C161.673 56.9791 161.197 55.677 161.197 55.677L163.995 51.7045C164.282 52.0962 164.094 52.7508 163.666 53.3929Z" fill="var(--fill-0, #DCE7FF)"/>
<path id="Vector_159" d="M147.393 71.6652L145.841 66.7805C145.823 66.7233 145.816 66.6631 145.821 66.6033C145.826 66.5434 145.843 66.4851 145.87 66.4318C145.898 66.3784 145.936 66.3311 145.982 66.2924C146.028 66.2537 146.081 66.2245 146.138 66.2064C146.254 66.1704 146.379 66.1814 146.486 66.237C146.594 66.2926 146.675 66.3883 146.712 66.5033L148.263 71.3826L148.109 72.4039L147.393 71.6652Z" fill="var(--fill-0, #BE8B87)"/>
<path id="Vector_160" opacity="0.1" d="M145.988 66.3513C146.104 66.3147 146.229 66.3255 146.337 66.3811C146.445 66.4368 146.526 66.5328 146.563 66.6482L148.115 71.5275L147.998 72.293L148.111 72.411L148.265 71.3897L146.705 66.5105C146.668 66.3955 146.587 66.2998 146.479 66.2442C146.372 66.1886 146.247 66.1776 146.131 66.2136C146.034 66.245 145.95 66.308 145.893 66.3924C145.923 66.3761 145.955 66.3623 145.988 66.3513Z" fill="var(--fill-0, white)"/>
<path id="Vector_161" d="M147.393 71.6652L148.263 71.3897L148.136 72.2268L148.109 72.411L147.855 72.1463L147.393 71.6652Z" fill="var(--fill-0, #EFC8C4)"/>
<path id="Vector_162" d="M147.855 72.1463C147.87 72.1272 147.889 72.1114 147.91 72.0998C147.923 72.0919 147.938 72.0876 147.953 72.0876C147.968 72.0876 147.982 72.0919 147.995 72.0998C148.007 72.1145 148.017 72.1308 148.025 72.1481C148.037 72.1678 148.053 72.1847 148.072 72.1974C148.092 72.21 148.113 72.2183 148.136 72.2214L148.109 72.4003L147.855 72.1463Z" fill="var(--fill-0, #727A9C)"/>
<path id="Vector_163" d="M145.832 68.5155C145.832 68.5155 148.944 68.4976 148.212 69.8194C147.479 71.1411 146.334 71.3003 146.334 71.3003L145.832 68.5155Z" fill="var(--fill-0, #FFB0B1)"/>
<path id="Vector_164" d="M126.475 9.19692H126.341C120.994 9.19692 116.266 12.0211 113.546 16.1885C110.826 12.0211 106.097 9.19692 100.751 9.19692H100.616C96.6036 9.23509 92.7683 10.8524 89.9436 13.6975C87.119 16.5426 85.5333 20.3854 85.5311 24.391C85.5311 29.3651 87.7135 36.4228 91.969 42.2304C100.077 53.2964 113.546 62.978 113.546 62.978C113.546 62.978 127.015 53.2982 135.121 42.2304C139.378 36.4228 141.559 29.3651 141.559 24.391C141.556 20.3857 139.971 16.5431 137.147 13.6981C134.322 10.8531 130.488 9.23556 126.475 9.19692ZM124.553 43.0817C123.944 43.0794 123.35 42.8934 122.849 42.548C122.348 42.2026 121.963 41.7141 121.745 41.1465H118.548C118.338 41.1452 118.133 41.0783 117.963 40.9552C117.792 40.832 117.664 40.6588 117.597 40.4597L116.615 37.5067L113.508 48.3438C113.448 48.5524 113.321 48.7358 113.147 48.8664C112.973 48.997 112.762 49.0678 112.544 49.0681H112.481C112.254 49.0572 112.038 48.9688 111.868 48.8178C111.699 48.6667 111.586 48.4621 111.55 48.2382L108.348 29.0145L106.008 40.3899C105.954 40.606 105.829 40.7979 105.654 40.9351C105.478 41.0722 105.261 41.1466 105.038 41.1465H100.536C100.401 41.1522 100.266 41.1306 100.139 41.0829C100.013 41.0353 99.8976 40.9627 99.8001 40.8693C99.7026 40.776 99.625 40.664 99.5719 40.5399C99.5189 40.4159 99.4916 40.2824 99.4916 40.1476C99.4916 40.0127 99.5189 39.8792 99.5719 39.7552C99.625 39.6312 99.7026 39.5191 99.8001 39.4258C99.8976 39.3325 100.013 39.2598 100.139 39.2122C100.266 39.1645 100.401 39.1429 100.536 39.1486H104.25L107.565 23.8544C107.619 23.6283 107.751 23.4281 107.937 23.2879C108.122 23.1478 108.351 23.0765 108.584 23.0863C108.817 23.096 109.039 23.1861 109.213 23.3412C109.386 23.4963 109.5 23.7068 109.536 23.9367L112.806 43.5468L115.59 33.8508C115.648 33.6466 115.771 33.4666 115.94 33.3377C116.109 33.2087 116.315 33.1378 116.527 33.1354H116.547C116.758 33.1355 116.963 33.2019 117.133 33.3252C117.304 33.4486 117.431 33.6225 117.497 33.8222L119.272 39.154H121.706C121.879 38.6293 122.193 38.1626 122.615 37.8053C123.037 37.448 123.55 37.214 124.097 37.1291C124.644 37.0443 125.203 37.1119 125.714 37.3245C126.225 37.5371 126.667 37.8864 126.991 38.3339C127.315 38.7813 127.51 39.3096 127.552 39.8603C127.595 40.411 127.484 40.9628 127.232 41.4547C126.981 41.9466 126.598 42.3595 126.126 42.6479C125.654 42.9363 125.111 43.0889 124.558 43.0889L124.553 43.0817Z" fill="var(--fill-0, #FD527B)"/>
</g>
<defs>
<linearGradient id="paint0_linear_0_60" x1="63.8469" y1="138.592" x2="63.8469" y2="28.5334" gradientUnits="userSpaceOnUse">
<stop stop-color="#808080" stop-opacity="0.25"/>
<stop offset="0.54" stop-color="#808080" stop-opacity="0.12"/>
<stop offset="1" stop-color="#808080" stop-opacity="0.1"/>
</linearGradient>
<linearGradient id="paint1_linear_0_60" x1="160.084" y1="137.201" x2="160.084" y2="36.6822" gradientUnits="userSpaceOnUse">
<stop stop-color="#808080" stop-opacity="0.25"/>
<stop offset="0.54" stop-color="#808080" stop-opacity="0.12"/>
<stop offset="1" stop-color="#808080" stop-opacity="0.1"/>
</linearGradient>
<clipPath id="clip0_0_60">
<rect width="198" height="140" fill="white"/>
</clipPath>
</defs>
</svg>
