<svg preserveAspectRatio="none" width="100%" height="100%" overflow="visible" style="display: block;" viewBox="0 0 44.9996 73.0002" fill="none" xmlns="http://www.w3.org/2000/svg">
<g id="Group 2120">
<path id="Path 22804" d="M43.0161 49.2709L42.4801 70.5754L42.3099 73.0002H35.1257L34.8666 68.3276L32.7663 50.5187L43.0161 49.2709Z" fill="var(--fill-0, #ED9DA0)"/>
<path id="Path 22806" d="M11.5977 67.3636L10.3821 72.984H35.0801L34.1909 70.0026L11.5977 67.3636Z" fill="var(--fill-0, #090814)"/>
<path id="Path 22807" d="M3.39466 63.1349L0.00383659 67.305C0.00383659 67.305 -0.25107 72.9842 3.39466 72.9842C7.04039 72.9842 12.4313 62.3419 12.4313 62.3419L8.63966 52.7665L2.5274 51.2674L3.39466 63.1349Z" fill="var(--fill-0, #ED9DA0)"/>
<path id="Path 22809" d="M28.4769 31.3544C28.4769 31.3544 24.1877 47.413 17.2178 33.2815L8.00494 37.5478C8.00494 37.5478 8.64829 61.7428 10.5784 65.1691C10.5784 65.1691 8.54126 68.3811 11.0073 69.0232C13.4734 69.6652 12.1868 68.5949 13.4736 69.6655C14.7604 70.736 17.3338 68.916 17.3338 68.916C17.3338 68.916 30.351 73.873 34.1906 70.0027V53.9701C34.1906 53.9701 40.7105 48.0402 44.9996 52.3225C44.9996 52.3225 44.1418 38.7262 39.3163 35.7286C34.4909 32.7309 28.4767 31.3552 28.4767 31.3552L28.4769 31.3544Z" fill="var(--fill-0, #FD527B)"/>
<path id="Path 22810" d="M9.98932 38.6719L8.00555 37.548C8.00555 37.548 0.338258 51.0908 1.19648 53.0178C2.05469 54.9448 12.134 54.8378 12.134 54.8378L9.98932 38.6719Z" fill="var(--fill-0, #FD527B)"/>
<path id="Path 22812" d="M8.32114 33.6789L6.14014 50.6026C5.91268 50.4575 5.69424 50.2987 5.48601 50.1273L6.8799 33.5333L8.32114 33.6793V33.6789Z" fill="var(--fill-0, #090814)"/>
<g id="Group 2118">
<path id="Path 22805" d="M27.6958 15.8754C27.8704 15.3371 28.6463 15.1796 29.1102 15.5037C29.5742 15.8278 29.7329 16.4637 29.6429 17.0221C29.5529 17.5804 29.259 18.0824 28.9712 18.5694C26.8196 22.2083 23.9918 32.4992 21.8393 36.1387C22.4825 36.5562 23.2209 36.8047 23.986 36.8609C24.751 36.9172 25.5179 36.7795 26.2154 36.4605C26.5846 37.097 27.1266 37.6163 27.7787 37.9586C28.4308 38.3009 29.1665 38.4521 29.901 38.395C30.6355 38.3378 31.3389 38.0745 31.93 37.6354C32.521 37.1964 32.9758 36.5994 33.2417 35.9135L32.1832 38.3498C33.0715 38.052 33.8785 37.5527 34.541 36.8911C35.2035 36.2294 35.7034 35.4235 36.0014 34.5365L34.8422 38.0964C37.2699 36.5916 39.1013 26.976 38.2708 23.997C38.2558 23.9444 38.2583 23.8884 38.2777 23.8374C38.2972 23.7863 38.3326 23.7429 38.3788 23.7135L38.3821 23.7114C38.4106 23.6935 38.4355 23.6702 38.4552 23.6429C39.7718 21.7991 39.2629 19.1808 38.1518 17.1996C37.0319 15.2032 35.3847 13.5237 34.3995 11.458C33.0912 8.71559 32.9672 5.34591 30.8979 3.11913C29.5847 1.7064 27.656 0.988901 25.7372 0.77565C23.8184 0.562399 21.8818 0.806949 19.9668 1.05077L20.0993 0.743256C18.4513 -0.456225 16.0542 -0.0948748 14.3679 1.05104C12.6816 2.19696 11.5444 3.96739 10.4539 5.68864L7.45748 10.419C6.47953 11.9633 2.68217 18.7592 2.33011 20.552C1.97805 22.3448 2.41008 24.4127 3.86247 25.5242L4.41432 22.6608L4.24067 22.8108C5.47453 27.2901 5.4674 33.9171 1.43698 36.2385C2.32579 36.4875 3.26315 36.5087 4.16233 36.3001C5.06151 36.0914 5.89347 35.6598 6.58125 35.045L4.00084 37.9257C5.40453 37.898 6.76622 37.4427 7.90349 36.6208L5.92932 38.9584L11.2029 36.2559L10.1062 39.0319L16.6996 37.7958" fill="var(--fill-0, #090814)"/>
<path id="Path 22808" d="M32.7263 18.5192C32.8276 16.3377 32.3214 14.1707 31.2637 12.2591C30.2061 10.3474 28.6385 8.76578 26.735 7.68984C24.8315 6.6139 22.6665 6.08573 20.4805 6.16398C18.2945 6.24224 16.1729 6.92385 14.3515 8.13314C12.53 9.34242 11.0799 11.0321 10.1621 13.0144C9.24435 14.9968 8.89485 17.1944 9.15242 19.3631C9.40999 21.5318 10.2646 23.5868 11.6212 25.2999C12.9779 27.0131 14.7836 28.3173 16.8378 29.0677L18.419 44.2526L30.5217 35.1016C30.5217 35.1016 28.1545 31.784 26.9728 28.1119C28.6514 27.1123 30.0556 25.7128 31.0596 24.0386C32.0637 22.3645 32.6363 20.4679 32.7263 18.5186V18.5192Z" fill="var(--fill-0, #ED9DA0)"/>
<path id="Path 22811" d="M19.8597 1.05113C21.7746 0.807405 23.7119 0.563311 25.6301 0.776015C27.5483 0.988719 29.4779 1.70613 30.7906 3.11904C32.8599 5.34554 32.9841 8.71559 34.292 11.458C35.2773 13.5237 36.9248 15.2033 38.0443 17.1996C39.1554 19.1812 39.6643 21.7986 38.3477 23.6429C38.328 23.6702 38.3032 23.6935 38.2746 23.7114C38.2276 23.7409 38.1916 23.785 38.1722 23.8369C38.1528 23.8888 38.151 23.9456 38.1672 23.9986C39.0185 26.7125 37.8352 29.9426 35.4105 31.4457L36.5697 27.8855C35.9904 29.659 34.1413 37.3846 32.3654 37.9639L33.4241 35.5276C33.1581 36.2135 32.7034 36.8105 32.1123 37.2495C31.5212 37.6886 30.8179 37.9519 30.0834 38.0091C29.3489 38.0663 28.6131 37.915 27.961 37.5727C27.3089 37.2304 26.767 36.7111 26.3977 36.0746C25.7003 36.3936 24.9334 36.5313 24.1683 36.475C23.4032 36.4188 22.6648 36.1703 22.0217 35.7528C24.1737 32.1133 26.7119 22.2085 28.8639 18.5689C29.1519 18.0819 29.4454 17.5801 29.5356 17.0216C29.6258 16.4632 29.4673 15.8272 29.0029 15.5032C28.5385 15.1792 27.7631 15.337 27.5885 15.875" fill="var(--fill-0, #090814)"/>
<path id="Path 22813" d="M27.7265 15.831L16.4673 6.83784L8.3804 20.5234V11.8882L17.7537 2.87705L25.2598 3.62648L27.7265 15.831Z" fill="var(--fill-0, #090814)"/>
</g>
<path id="Path 22814" d="M42.6404 58.4849L17.2835 69.7882C16.8699 69.972 16.4003 69.9846 15.9775 69.823C15.5547 69.6615 15.2134 69.3392 15.0284 68.9267L2.03426 39.8702C1.85009 39.4574 1.83746 38.9885 1.99914 38.5664C2.16082 38.1443 2.48361 37.8034 2.89668 37.6187L28.2539 26.3152C28.6674 26.1316 29.137 26.1191 29.5596 26.2806C29.9823 26.4421 30.3235 26.7644 30.5085 27.1767L43.5036 56.2339C43.6877 56.6468 43.7003 57.1157 43.5385 57.5378C43.3767 57.9599 43.0538 58.3007 42.6407 58.4853L42.6404 58.4849Z" fill="var(--fill-0, #D6D6E3)"/>
<path id="Path 22815" d="M41.4724 57.8716L17.9316 67.3829C17.5424 67.556 17.1003 67.5678 16.7024 67.4157C16.3045 67.2637 15.9832 66.9603 15.8091 66.5721L3.25303 40.3511C3.07972 39.9625 3.06789 39.5211 3.22015 39.1238C3.37241 38.7265 3.67632 38.4058 4.06519 38.232L27.9312 27.5931C28.3204 27.4201 28.7625 27.4083 29.1604 27.5604C29.5583 27.7124 29.8795 28.0158 30.0536 28.4041L42.2845 55.7529C42.4578 56.1414 42.4696 56.5828 42.3174 56.9801C42.1651 57.3773 41.8612 57.698 41.4724 57.8719V57.8716Z" fill="var(--fill-0, white)"/>
<path id="Path 22816" d="M8.05819 46.547L7.04231 66.8194L0.00411131 67.305L2.47091 46.28C1.49735 45.2431 0.914881 43.6961 0.996682 41.9941C1.13954 39.0156 3.25665 36.6975 5.72528 36.8155C8.19391 36.9336 10.0797 39.4435 9.9363 42.4216C9.8545 44.1236 9.12653 45.6081 8.05819 46.547Z" fill="var(--fill-0, #ED9DA0)"/>
<path id="Path 22820" d="M26.1468 35.7399L21.0269 38.0162C20.2557 38.359 19.4721 38.2819 19.2768 37.8441C19.0815 37.4062 19.5484 36.7732 20.3196 36.4303L25.4396 34.1541C26.2108 33.8112 26.9943 33.8883 27.1896 34.3262C27.3849 34.7641 26.9181 35.3971 26.1468 35.7399Z" fill="var(--fill-0, #FD527B)"/>
<path id="Ellipse 3612" d="M21.4095 58.8564C22.5958 58.8564 23.5574 57.8964 23.5574 56.7121C23.5574 55.5277 22.5958 54.5677 21.4095 54.5677C20.2233 54.5677 19.2617 55.5277 19.2617 56.7121C19.2617 57.8964 20.2233 58.8564 21.4095 58.8564Z" fill="var(--fill-0, #E6E6E6)"/>
<path id="Path 22848" d="M33.7087 51.332L24.8037 55.291C24.7355 55.323 24.6616 55.3412 24.5862 55.3446C24.5109 55.3481 24.4357 55.3367 24.3648 55.3111C24.2939 55.2855 24.2287 55.2462 24.173 55.1955C24.1173 55.1448 24.0722 55.0836 24.0402 55.0154C23.981 54.8754 23.9799 54.7176 24.0373 54.5768C24.0946 54.436 24.2056 54.3237 24.3459 54.2646L33.2509 50.3056C33.3888 50.241 33.5466 50.2338 33.6898 50.2855C33.833 50.3371 33.9498 50.4434 34.0144 50.5811C34.0736 50.7211 34.0747 50.8789 34.0173 51.0197C33.96 51.1605 33.849 51.2728 33.7087 51.3319L33.7087 51.332Z" fill="var(--fill-0, #E6E6E6)"/>
<path id="Path 22852" d="M16.6391 36.3217L10.9196 38.8195C10.8973 38.8292 10.8771 38.8433 10.8603 38.8608C10.8434 38.8783 10.8301 38.899 10.8213 38.9216C10.8124 38.9442 10.8081 38.9684 10.8086 38.9927C10.809 39.017 10.8143 39.0409 10.8241 39.0632L12.7766 43.5193C12.7864 43.5416 12.8004 43.5617 12.8179 43.5786C12.8355 43.5954 12.8562 43.6086 12.8789 43.6175C12.9015 43.6264 12.9257 43.6307 12.95 43.6302C12.9744 43.6297 12.9984 43.6244 13.0207 43.6147L18.7402 41.1172C18.7852 41.0976 18.8205 41.0608 18.8385 41.0151C18.8564 40.9694 18.8554 40.9185 18.8357 40.8735L16.8831 36.417C16.8634 36.3721 16.8266 36.3368 16.7809 36.3189C16.7351 36.3011 16.6841 36.302 16.6391 36.3217Z" fill="var(--fill-0, #F2F2F2)"/>
<g id="Group 2119">
<path id="Path 22853" d="M13.8882 39.776C13.877 39.7664 13.8638 39.7593 13.8496 39.7553C13.8354 39.7513 13.8205 39.7505 13.806 39.7528C13.7914 39.7552 13.7776 39.7607 13.7654 39.769C13.7532 39.7773 13.743 39.7881 13.7354 39.8008C13.722 39.8277 13.7162 39.8577 13.7187 39.8876C13.7212 39.9175 13.7318 39.9462 13.7494 39.9705C13.7854 40.0186 13.8301 40.0596 13.8811 40.0914C14.2462 40.3509 14.9636 41.2249 15.3287 41.4845C15.2846 41.5525 15.2239 41.6083 15.1524 41.6466C15.0809 41.6849 15.0008 41.7045 14.9196 41.7036C14.9114 41.781 14.8814 41.8545 14.8331 41.9157C14.7849 41.9768 14.7203 42.023 14.6468 42.049C14.4969 42.1022 14.3297 42.0646 14.4243 42.1428C14.2241 42.1617 14.0266 42.0858 14.1563 42.2325C13.8569 42.1912 13.2648 41.3397 13.2165 41.0159C13.2157 41.0101 13.213 41.0048 13.2089 41.0007C13.2048 40.9966 13.1995 40.9939 13.1938 40.993C13.1903 40.9925 13.1869 40.9914 13.1838 40.9896C12.977 40.8678 12.9132 40.5927 12.9351 40.3533C12.9574 40.1119 13.0436 39.879 13.0499 39.6368C13.0577 39.3152 12.9243 38.9841 13.0281 38.6796C13.1032 38.4878 13.2442 38.3289 13.4258 38.2314C13.6063 38.1354 13.7975 38.0611 13.9955 38.0101L13.9694 37.986C14.0769 37.7991 14.3243 37.7311 14.5366 37.7695C14.7466 37.8228 14.9436 37.9184 15.1153 38.0504L15.6092 38.3792C15.7704 38.4866 16.4308 38.9807 16.5422 39.139C16.6019 39.2156 16.6396 39.3069 16.6514 39.4033C16.6631 39.4996 16.6483 39.5973 16.6087 39.6858L16.4317 39.4325L16.4549 39.4396C16.5289 39.9255 16.9457 40.784 16.7564 40.7233C16.9933 40.9487 16.8419 40.9632 15.897 41.4241" fill="var(--fill-0, #090814)"/>
<path id="Path 22854" d="M13.516 40.2477C13.412 40.0411 13.3674 39.8097 13.3871 39.5794C13.4068 39.349 13.4901 39.1287 13.6276 38.9428C13.7652 38.7569 13.9517 38.6128 14.1664 38.5265C14.381 38.4402 14.6155 38.4149 14.8438 38.4537C15.0721 38.4924 15.2852 38.5935 15.4594 38.7459C15.6337 38.8982 15.7623 39.0958 15.831 39.3166C15.8997 39.5375 15.9058 39.773 15.8486 39.9969C15.7914 40.2209 15.6731 40.4247 15.5069 40.5855L16.2121 42.1968L15.0718 41.913L14.4447 41.7569C14.4956 41.484 14.5095 41.2054 14.4862 40.9287C14.2808 40.9041 14.0846 40.8291 13.9153 40.7102C13.7459 40.5913 13.6087 40.4324 13.516 40.2476L13.516 40.2477Z" fill="var(--fill-0, #ED9DA0)"/>
<path id="Path 22855" d="M14.0055 38.0059C13.8075 38.0569 13.6163 38.1312 13.4359 38.2272C13.2543 38.3248 13.1134 38.4836 13.0383 38.6755C12.9343 38.9797 13.0678 39.311 13.0596 39.6324C13.0536 39.875 12.9667 40.1078 12.9447 40.3489C12.923 40.5885 12.9867 40.8634 13.1935 40.9851C13.1965 40.9869 13.1999 40.9881 13.2034 40.9886C13.2092 40.9894 13.2146 40.9921 13.2187 40.9963C13.2228 41.0005 13.2254 41.0059 13.2262 41.0117C13.2468 41.1616 13.3151 41.3009 13.4209 41.4093C13.5267 41.5176 13.6645 41.5892 13.814 41.6136L13.5485 41.3191C13.6811 41.4657 14.6123 42.0197 14.6123 42.0197C14.6123 42.0197 14.8682 41.8323 14.885 41.6743C14.9662 41.6752 15.0462 41.6556 15.1178 41.6173C15.1893 41.579 15.2499 41.5232 15.2941 41.4552C14.929 41.1956 14.2564 40.347 13.8913 40.0871C13.8403 40.0553 13.7956 40.0144 13.7596 39.9663C13.742 39.942 13.7314 39.9133 13.7289 39.8834C13.7264 39.8534 13.7322 39.8234 13.7456 39.7966C13.7532 39.7839 13.7634 39.7731 13.7756 39.7648C13.7878 39.7565 13.8016 39.751 13.8162 39.7486C13.8307 39.7463 13.8456 39.7471 13.8598 39.7511C13.874 39.7551 13.8872 39.7622 13.8984 39.7718" fill="var(--fill-0, #090814)"/>
<path id="Path 22856" d="M13.8837 39.7732L14.5839 38.4196L15.9563 39.396L15.5836 38.5608L14.2886 38.0917L13.5953 38.4867L13.8837 39.7732Z" fill="var(--fill-0, #090814)"/>
</g>
<path id="Path 22857" d="M34.3484 52.6814L25.4434 56.6404C25.3751 56.6724 25.3012 56.6906 25.2259 56.694C25.1506 56.6975 25.0754 56.6861 25.0044 56.6605C24.9335 56.6349 24.8684 56.5956 24.8127 56.5449C24.757 56.4942 24.7118 56.433 24.6798 56.3648C24.6207 56.2248 24.6196 56.067 24.677 55.9262C24.7343 55.7854 24.8453 55.6731 24.9856 55.614L33.8906 51.655C34.0285 51.5904 34.1863 51.5832 34.3295 51.6349C34.4727 51.6865 34.5895 51.7929 34.6541 51.9305C34.7133 52.0705 34.7143 52.2283 34.657 52.3691C34.5997 52.5099 34.4886 52.6222 34.3484 52.6813L34.3484 52.6814Z" fill="var(--fill-0, #E6E6E6)"/>
<path id="Ellipse 3613" d="M18.9874 54.227C20.1736 54.227 21.1353 53.2669 21.1353 52.0826C21.1353 50.8983 20.1736 49.9382 18.9874 49.9382C17.8012 49.9382 16.8396 50.8983 16.8396 52.0826C16.8396 53.2669 17.8012 54.227 18.9874 54.227Z" fill="var(--fill-0, #E6E6E6)"/>
<path id="Path 22858" d="M31.2866 46.7025L22.3816 50.6615C22.3133 50.6935 22.2394 50.7117 22.1641 50.7152C22.0888 50.7186 22.0136 50.7072 21.9427 50.6816C21.8717 50.656 21.8066 50.6167 21.7509 50.566C21.6952 50.5153 21.6501 50.4541 21.618 50.3859C21.5589 50.2459 21.5578 50.0881 21.6152 49.9473C21.6725 49.8065 21.7835 49.6942 21.9238 49.6351L30.8288 45.6761C30.9667 45.6115 31.1245 45.6043 31.2677 45.656C31.4109 45.7076 31.5277 45.814 31.5923 45.9516C31.6515 46.0916 31.6525 46.2494 31.5952 46.3902C31.5379 46.531 31.4269 46.6433 31.2866 46.7024L31.2866 46.7025Z" fill="var(--fill-0, #E6E6E6)"/>
<path id="Path 22859" d="M31.9264 48.052L23.0214 52.011C22.9531 52.043 22.8792 52.0612 22.8039 52.0647C22.7286 52.0681 22.6533 52.0567 22.5824 52.0311C22.5115 52.0055 22.4464 51.9663 22.3907 51.9155C22.335 51.8648 22.2898 51.8036 22.2578 51.7354C22.1986 51.5954 22.1976 51.4376 22.2549 51.2968C22.3123 51.156 22.4233 51.0437 22.5636 50.9846L31.4686 47.0256C31.6064 46.961 31.7643 46.9538 31.9075 47.0055C32.0507 47.0571 32.1674 47.1635 32.2321 47.3011C32.2913 47.4411 32.2923 47.5989 32.235 47.7397C32.1776 47.8805 32.0666 47.9928 31.9264 48.0519L31.9264 48.052Z" fill="var(--fill-0, #E6E6E6)"/>
<path id="Ellipse 3614" d="M16.1935 49.2709C17.3797 49.2709 18.3413 48.3108 18.3413 47.1265C18.3413 45.9422 17.3797 44.9821 16.1935 44.9821C15.0073 44.9821 14.0457 45.9422 14.0457 47.1265C14.0457 48.3108 15.0073 49.2709 16.1935 49.2709Z" fill="var(--fill-0, #E6E6E6)"/>
<path id="Path 22860" d="M28.4928 41.7465L19.5878 45.7055C19.5195 45.7374 19.4456 45.7557 19.3703 45.7591C19.295 45.7626 19.2197 45.7512 19.1488 45.7256C19.0779 45.7 19.0128 45.6607 18.9571 45.61C18.9014 45.5592 18.8562 45.498 18.8242 45.4299C18.765 45.2898 18.764 45.1321 18.8213 44.9912C18.8787 44.8504 18.9897 44.7381 19.13 44.679L28.035 40.72C28.1728 40.6555 28.3307 40.6483 28.4739 40.6999C28.6171 40.7516 28.7338 40.8579 28.7985 40.9955C28.8577 41.1356 28.8587 41.2934 28.8014 41.4342C28.744 41.575 28.633 41.6873 28.4928 41.7464L28.4928 41.7465Z" fill="var(--fill-0, #E6E6E6)"/>
<path id="Path 22861" d="M29.1326 43.0959L20.2276 47.0549C20.1593 47.0868 20.0854 47.1051 20.0101 47.1085C19.9348 47.112 19.8595 47.1006 19.7886 47.075C19.7177 47.0494 19.6525 47.0101 19.5969 46.9594C19.5412 46.9086 19.496 46.8474 19.464 46.7793C19.4048 46.6392 19.4038 46.4815 19.4611 46.3406C19.5185 46.1998 19.6295 46.0875 19.7698 46.0284L28.6748 42.0694C28.8126 42.0049 28.9705 41.9977 29.1137 42.0493C29.2569 42.101 29.3736 42.2073 29.4383 42.3449C29.4975 42.485 29.4985 42.6428 29.4412 42.7836C29.3838 42.9244 29.2728 43.0367 29.1325 43.0958L29.1326 43.0959Z" fill="var(--fill-0, #E6E6E6)"/>
</g>
</svg>
