<svg preserveAspectRatio="none" width="100%" height="100%" overflow="visible" style="display: block;" viewBox="0 0 168 151.999" fill="none" xmlns="http://www.w3.org/2000/svg">
<g id="Group">
<path id="Vector" d="M80.7505 30.4562C82.6207 28.5604 85.1185 27.985 86.3302 29.1707C87.5419 30.3564 87.0066 32.854 85.1355 34.7503C84.3985 35.5182 83.4876 36.0991 82.479 36.4445L74.4523 44.3773L70.7943 40.5455L79.0954 33.132C79.4246 32.1212 79.9921 31.2036 80.7505 30.4562Z" fill="var(--fill-0, #FFB6B6)"/>
<path id="Vector_2" d="M55.0799 23.908L63.4954 42.5024L76.9339 35.2573L81.7429 37.7996C81.7429 37.7996 70.7572 56.0922 63.2354 54.0096C55.7136 51.927 42.357 33.0462 44.7636 27.219C47.1702 21.3918 55.0799 23.908 55.0799 23.908Z" fill="var(--fill-0, #FD527B)"/>
<g id="Group_2">
<path id="Vector_3" d="M94.0907 34.4045C92.1377 32.594 91.4913 30.1224 92.6484 28.8843C93.8055 27.6463 96.3268 28.1105 98.2808 29.9218C99.0714 30.6347 99.679 31.5258 100.053 32.5206L108.233 40.2959L104.488 44.0416L96.8211 35.9789C95.798 35.6788 94.8618 35.1389 94.0911 34.4045H94.0907Z" fill="var(--fill-0, #ED9DA0)"/>
<path id="Vector_4" d="M135.297 35.603L119.507 52.3465C119.507 52.3465 115.962 55.841 110.128 50.8017C104.294 45.7624 97.8081 37.4949 97.8081 37.4949L101.447 33.5505L107.892 39.2775C107.892 39.2775 111.719 40.8111 111.984 41.8034C112.25 42.7956 111.507 43.206 112.702 42.8881C113.898 42.5702 113.92 41.8609 113.996 42.9366C114.072 44.0123 113.341 45.2696 114.722 44.0518C116.103 42.8341 116.515 43.575 116.515 43.575L126.607 30.2604C126.607 30.2604 133.128 25.1243 135.003 29.7283C136.877 34.3324 135.297 35.603 135.297 35.603H135.297Z" fill="var(--fill-0, #F2F2F2)"/>
</g>
<g id="Group_3">
<path id="Vector_5" d="M51.3897 147.836H57.5261L60.4451 124.262H51.3885L51.3897 147.836Z" fill="var(--fill-0, #ED9DA0)"/>
<path id="Vector_6" d="M72.4137 147.697C72.6048 148.018 72.7056 149.052 72.7056 149.425C72.7056 149.975 72.4861 150.503 72.0955 150.892C71.7049 151.281 71.1752 151.5 70.6228 151.5H51.6193C51.2424 151.5 50.881 151.35 50.6146 151.085C50.3481 150.82 50.1984 150.46 50.1984 150.084V149.296C50.1984 149.296 49.2582 146.928 51.1938 144.009C51.1938 144.009 53.5993 146.294 57.1939 142.714L58.254 140.802L65.9259 146.391L70.1788 146.912C71.1094 147.026 71.9342 146.894 72.4128 147.697H72.4137Z" fill="var(--fill-0, #090814)"/>
</g>
<path id="Vector_7" d="M133.907 32.2219L133.375 25.8118H126.294L124.724 32.6032L133.907 32.2219Z" fill="var(--fill-0, #ED9DA0)"/>
<path id="Vector_8" d="M56.033 25.1015L56.1571 16.858L51.0541 13.6892L45.5034 20.4506L56.033 25.1015Z" fill="var(--fill-0, #ED9DA0)"/>
<path id="Vector_9" d="M128.719 27.8515C132.994 27.8515 136.459 24.3999 136.459 20.1421C136.459 15.8842 132.994 12.4326 128.719 12.4326C124.444 12.4326 120.979 15.8842 120.979 20.1421C120.979 24.3999 124.444 27.8515 128.719 27.8515Z" fill="var(--fill-0, #ED9DA0)"/>
<path id="Vector_10" d="M56.0492 19.4234C61.0623 19.4234 65.1263 15.3757 65.1263 10.3826C65.1263 5.38955 61.0623 1.34186 56.0492 1.34186C51.0361 1.34186 46.9722 5.38955 46.9722 10.3826C46.9722 15.3757 51.0361 19.4234 56.0492 19.4234Z" fill="var(--fill-0, #ED9DA0)"/>
<path id="Vector_11" d="M68.4281 79.611L59.9724 136.921H49.3639L50.7744 104.207L51.5168 87.0061L49.3639 78.8181C48.6802 77.5135 48.0762 76.1691 47.5551 74.792C46.6229 72.303 45.8867 69.3178 46.9797 67.9024C47.3819 67.3806 48.4275 66.9945 49.8485 66.7069C50.8307 66.5168 51.8219 66.3763 52.8184 66.2858C59.0921 65.6676 68.0159 66.0537 68.0159 66.0537L68.2429 73.5102L68.3689 77.674L68.4281 79.611Z" fill="var(--fill-0, #090814)"/>
<g id="Group_4">
<path id="Vector_12" d="M16.4512 138.705L21.857 141.597L35.6307 122.206L27.6524 117.937L16.4512 138.705Z" fill="var(--fill-0, #ED9DA0)"/>
<path id="Vector_13" d="M35.0374 148.494C35.0534 148.866 34.6506 149.825 34.4736 150.153C34.2122 150.638 33.7682 150.999 33.2393 151.158C32.7104 151.316 32.1399 151.259 31.6533 150.999L14.9127 142.04C14.5808 141.863 14.3333 141.561 14.2247 141.202C14.1161 140.842 14.1552 140.455 14.3335 140.124L14.708 139.43C14.708 139.43 15.0053 136.9 18.0974 135.241C18.0974 135.241 19.1304 138.389 23.9984 136.929L25.8409 135.744L29.9443 144.284L33.4429 146.748C34.2084 147.287 34.9969 147.56 35.0379 148.493L35.0374 148.494Z" fill="var(--fill-0, #090814)"/>
</g>
<path id="Vector_14" d="M68.3682 77.674L63.8805 86.6361L50.7742 104.207L29.1982 133.135L19.8532 128.136L45.4679 85.1797L47.4642 76.9509C47.4642 76.9509 47.4642 76.0616 47.5549 74.792C47.7324 72.2798 48.2643 68.2764 49.8483 66.7071C50.0497 66.5007 50.2874 66.3329 50.5495 66.212C51.026 65.9984 51.8179 66.0497 52.8175 66.286C56.9965 67.2802 64.7936 71.5508 68.2418 73.5102L68.3678 77.674H68.3682Z" fill="var(--fill-0, #090814)"/>
<g id="Group_5">
<path id="Vector_15" d="M133.331 148.555H128.055L125.545 128.285H133.332L133.331 148.555Z" fill="var(--fill-0, #ED9DA0)"/>
<path id="Vector_16" d="M115.254 148.435C115.09 148.711 115.002 149.6 115.002 149.92C115.002 150.393 115.191 150.847 115.527 151.182C115.863 151.516 116.318 151.704 116.793 151.704H133.133C133.457 151.704 133.768 151.576 133.997 151.348C134.226 151.119 134.355 150.81 134.355 150.487V149.81C134.355 149.81 135.163 147.773 133.499 145.263C133.499 145.263 131.431 147.23 128.34 144.151L127.429 142.506L120.832 147.312L117.175 147.76C116.375 147.859 115.666 147.745 115.254 148.435Z" fill="var(--fill-0, #090814)"/>
</g>
<g id="Group_6">
<path id="Vector_17" d="M154.116 142.362L149.238 144.366L139.155 126.582L146.354 123.624L154.116 142.362Z" fill="var(--fill-0, #ED9DA0)"/>
<path id="Vector_18" d="M137.36 149.12C137.314 149.437 137.574 150.291 137.696 150.588C137.786 150.805 137.917 151.001 138.084 151.167C138.25 151.333 138.447 151.465 138.664 151.555C138.881 151.645 139.114 151.691 139.349 151.691C139.584 151.692 139.817 151.646 140.034 151.556L155.139 145.349C155.287 145.288 155.422 145.198 155.535 145.086C155.649 144.973 155.739 144.839 155.801 144.691C155.863 144.543 155.894 144.385 155.895 144.225C155.895 144.065 155.863 143.907 155.802 143.759L155.542 143.133C155.542 143.133 155.51 140.943 153.01 139.256C153.01 139.256 151.851 141.858 147.815 140.187L146.343 139.013L142.086 145.961L138.877 147.765C138.175 148.159 137.476 148.324 137.36 149.119V149.12Z" fill="var(--fill-0, #090814)"/>
</g>
<path id="Vector_19" d="M135.752 79.0235L133.598 87.2103L134.172 100.496L135.122 122.563L135.149 123.185L135.257 125.667L135.752 137.124H125.143L120.42 105.115L116.687 79.8164L117.079 66.9321L117.1 66.2584C117.1 66.2584 136.074 65.4369 138.136 68.1072C140.198 70.7776 135.752 79.0227 135.752 79.0227L135.752 79.0235Z" fill="var(--fill-0, #090814)"/>
<path id="Vector_20" d="M150.512 128.889L148.713 129.815L142.062 133.244L141.089 133.746L135.257 125.669L120.42 105.118L116.687 79.8164L117.079 66.9321C118.758 66.4 120.1 66.1823 120.781 66.4988C123.846 67.9263 123.7 77.285 123.7 77.285L125.566 85.5424L134.173 100.496L150.512 128.889Z" fill="var(--fill-0, #090814)"/>
<path id="Vector_21" d="M168 151.757C168 151.821 167.974 151.883 167.929 151.928C167.884 151.973 167.822 151.999 167.758 151.999H0V151.517H167.758C167.822 151.517 167.884 151.542 167.929 151.587C167.974 151.632 168 151.694 168 151.757Z" fill="var(--fill-0, #E6E6E6)"/>
<path id="Vector_22" d="M46.6704 18.7066L56.9814 23.6365C56.9814 23.6365 67.9119 55.8862 67.9119 57.5293C67.9119 59.1725 71.0054 60.1997 69.1492 62.0485C67.293 63.8972 72.6039 65.4628 69.7423 66.9395C66.8806 68.4161 49.0291 76.4935 47.044 75.766C41.5693 73.7581 47.275 66.3747 47.275 66.3747C47.275 66.3747 43.1626 63.0761 43.7812 61.4327C44.3999 59.7893 40.069 28.3614 40.069 28.3614L46.6685 18.7072L46.6704 18.7066Z" fill="var(--fill-0, #FD527B)"/>
<path id="Vector_23" d="M55.4946 12.5485L56.662 14.8741C56.662 14.8741 57.8296 10.688 59.6975 9.75765C61.5655 8.8273 61.799 7.43199 61.799 7.43199C61.799 7.43199 64.134 10.4554 65.768 9.75765C67.402 9.05989 68.103 8.59493 66.2351 5.80451C64.3671 3.0141 64.8341 4.4092 64.8341 4.4092C64.8341 4.4092 63.1997 2.08354 63.4332 2.7813C63.6668 3.47906 62.0323 0.919774 62.0323 1.61858C62.0323 2.31739 60.8649 0.223269 60.8649 0.92082C60.8649 1.61837 55.9614 -0.707078 56.662 0.22306C57.3626 1.1532 52.4591 -1.63847 50.1241 2.08459C47.7891 5.80765 44.5513 5.11742 45.7031 7.4391C46.855 9.76079 46.388 16.0392 46.388 16.0392H49.6083C49.6083 16.0392 52.9261 9.75702 55.4946 12.5485Z" fill="var(--fill-0, #090814)"/>
<path id="Vector_24" d="M124.215 32.2638L124.404 32.2106L133.702 29.5934L141.126 39.6586L136.176 60.6105L138.032 69.0323C138.032 69.0323 122.977 65.1296 116.996 68.4161C116.996 68.4161 116.583 66.5431 116.996 65.631C117.408 64.7188 118.027 60.9228 117.408 59.226C116.79 57.5293 118.646 49.5183 118.646 49.5183C118.646 49.5183 118.027 44.1776 120.708 41.5074C123.389 38.8373 124.215 32.264 124.215 32.264L124.215 32.2638Z" fill="var(--fill-0, #F2F2F2)"/>
<path id="Vector_25" d="M83.0983 53.9244C82.9365 53.8445 82.7928 53.7325 82.6762 53.5952L77.5782 47.6111C77.4126 47.4164 77.3069 47.1782 77.2738 46.9251C77.2408 46.672 77.2817 46.4147 77.3917 46.1842L86.9507 26.2094C87.0333 26.0365 87.1526 25.8835 87.3003 25.761C87.448 25.6384 87.6206 25.5492 87.8062 25.4995C87.9918 25.4498 88.1861 25.4408 88.3755 25.4731C88.565 25.5054 88.7452 25.5782 88.9037 25.6865L111.945 41.4286C112.175 41.5858 112.35 41.8113 112.444 42.073C112.539 42.3348 112.548 42.6195 112.47 42.8866C107.665 59.5454 116.51 70.2363 83.0983 53.9244Z" fill="var(--fill-0, #090814)"/>
<path id="Vector_26" d="M105.438 60.2564L107.122 58.3005L111.377 42.7389C111.442 42.5481 111.443 42.3413 111.379 42.15C111.315 41.9587 111.191 41.7933 111.024 41.6789L89.4312 26.954C89.3216 26.8794 89.1972 26.8291 89.0664 26.8065C88.9355 26.7839 88.8014 26.7895 88.6729 26.823C88.5445 26.8565 88.4247 26.917 88.3218 27.0006C88.2189 27.0841 88.1352 27.1887 88.0763 27.3073L78.9732 45.7182C78.9054 45.8525 78.8722 46.0015 78.8765 46.1517C78.8808 46.3019 78.9226 46.4487 78.998 46.5789C79.0168 46.6162 79.0396 46.6512 79.066 46.6835L83.644 52.7021L105.438 60.2564Z" fill="var(--fill-0, #F2F2F2)"/>
<path id="Vector_27" d="M82.5552 44.5883C82.5934 44.5884 82.6309 44.5779 82.6635 44.5579C82.696 44.538 82.7224 44.5094 82.7396 44.4754L90.1421 29.8291C90.1548 29.805 90.1626 29.7786 90.1649 29.7514C90.1673 29.7242 90.1642 29.6969 90.1558 29.6709C90.1475 29.645 90.134 29.6209 90.1162 29.6002C90.0984 29.5795 90.0767 29.5625 90.0522 29.5502C90.0278 29.538 90.0011 29.5307 89.9738 29.5288C89.9465 29.5269 89.9191 29.5304 89.8932 29.5392C89.8672 29.548 89.8433 29.5618 89.8228 29.5799C89.8023 29.5979 89.7856 29.6199 89.7737 29.6444L82.3721 44.2907C82.3562 44.322 82.3487 44.3568 82.3502 44.3918C82.3517 44.4269 82.3621 44.4609 82.3806 44.4908C82.399 44.5206 82.4248 44.5453 82.4555 44.5624C82.4863 44.5795 82.5209 44.5885 82.556 44.5886L82.5552 44.5883Z" fill="var(--fill-0, #6C63FF)"/>
<path id="Vector_28" d="M86.4736 47.0533C86.5118 47.0534 86.5493 47.0428 86.5819 47.0229C86.6144 47.0029 86.6408 46.9744 86.658 46.9404L94.0596 32.2941C94.0723 32.2699 94.0801 32.2435 94.0825 32.2164C94.0848 32.1892 94.0817 32.1618 94.0734 32.1359C94.065 32.1099 94.0515 32.0859 94.0337 32.0652C94.0159 32.0444 93.9942 32.0275 93.9697 32.0152C93.9453 32.0029 93.9186 31.9957 93.8913 31.9938C93.864 31.9919 93.8366 31.9954 93.8107 32.0042C93.7848 32.0129 93.7609 32.0268 93.7404 32.0448C93.7199 32.0629 93.7032 32.0848 93.6913 32.1094L86.2896 46.7557C86.2738 46.787 86.2663 46.8218 86.2677 46.8568C86.2692 46.8918 86.2797 46.9259 86.2981 46.9557C86.3166 46.9856 86.3424 47.0103 86.3731 47.0274C86.4038 47.0445 86.4384 47.0535 86.4736 47.0535V47.0533Z" fill="var(--fill-0, #6C63FF)"/>
<path id="Vector_29" d="M89.7733 49.1075C89.8115 49.1075 89.849 49.097 89.8816 49.0771C89.9142 49.0571 89.9405 49.0285 89.9577 48.9945L97.3594 34.3482C97.3721 34.3241 97.3798 34.2977 97.3822 34.2705C97.3846 34.2434 97.3815 34.216 97.3731 34.19C97.3647 34.1641 97.3513 34.14 97.3335 34.1193C97.3157 34.0986 97.2939 34.0816 97.2695 34.0694C97.245 34.0571 97.2184 34.0498 97.1911 34.0479C97.1637 34.046 97.1363 34.0496 97.1104 34.0583C97.0845 34.0671 97.0606 34.0809 97.0401 34.099C97.0196 34.1171 97.0029 34.139 96.991 34.1636L89.5894 48.8098C89.5735 48.8411 89.566 48.8759 89.5675 48.911C89.569 48.946 89.5794 48.98 89.5979 49.0099C89.6163 49.0398 89.6421 49.0644 89.6728 49.0815C89.7035 49.0986 89.7381 49.1076 89.7733 49.1077V49.1075Z" fill="var(--fill-0, #6C63FF)"/>
<path id="Vector_30" d="M78.0902 47.1236C80.6492 46.3706 83.1138 47.0753 83.5947 48.6975C84.0756 50.3198 82.391 52.2449 79.8307 52.9979C78.8121 53.3126 77.7327 53.3798 76.6828 53.1938L65.7991 56.2476L64.4689 51.1301L75.3396 48.662C76.12 47.9373 77.0633 47.4094 78.0906 47.1225L78.0902 47.1236Z" fill="var(--fill-0, #FFB6B6)"/>
<path id="Vector_31" d="M58.8407 28.9868L57.1349 49.3129L72.4149 49.4764L75.3803 54.0244C75.3803 54.0244 56.86 64.7052 51.299 59.2476C45.738 53.79 43.2642 30.8245 48.2078 26.8936C53.1514 22.9626 58.8407 28.9868 58.8407 28.9868Z" fill="var(--fill-0, #FD527B)"/>
<g id="Group_7">
<path id="Vector_32" d="M108.895 65.6864C106.235 65.4868 104.181 63.9575 104.309 62.2708C104.437 60.5841 106.697 59.3791 109.359 59.5791C110.424 59.6444 111.457 59.9627 112.372 60.5073L123.636 61.495L123.059 66.7497L112.016 65.2183C111.028 65.6202 109.958 65.7807 108.896 65.6862L108.895 65.6864Z" fill="var(--fill-0, #ED9DA0)"/>
<path id="Vector_33" d="M141.837 41.0014L139.997 63.8993C139.997 63.8993 139.417 68.8338 131.702 68.5245C123.987 68.2151 113.737 65.7893 113.737 65.7893L114.107 60.4454L122.732 60.9121C122.732 60.9121 126.682 59.7307 127.512 60.3406C128.342 60.9506 128.018 61.7334 128.753 60.7418C129.487 59.7502 129.061 59.1815 129.794 59.9752C130.527 60.769 130.744 62.2053 131.06 60.395C131.376 58.5847 132.162 58.9075 132.162 58.9075L131.7 42.2311C131.7 42.2311 133.575 34.164 137.925 36.5951C142.275 39.0261 141.837 41.0014 141.837 41.0014Z" fill="var(--fill-0, #F2F2F2)"/>
</g>
<path id="Vector_34" d="M138.902 29.2502C138.902 29.2502 138.545 31.9513 135.232 32.0393L128.515 32.2184C128.515 32.2184 134.194 18.4537 131.858 20.0034C129.523 21.5531 123.297 15.0532 123.297 15.0532L121.459 18.4853C121.459 18.4853 117.07 16.9022 121.935 13.0262C121.935 13.0262 127.739 8.55686 133.901 11.2406C140.062 13.9243 138.902 29.2502 138.902 29.2502Z" fill="var(--fill-0, #090814)"/>
</g>
</svg>
